<?xml version="1.0" standalone="no"?>
<!DOCTYPE svg PUBLIC "-//W3C//DTD SVG 1.1//EN" "http://www.w3.org/Graphics/SVG/1.1/DTD/svg11.dtd" >
<svg xmlns="http://www.w3.org/2000/svg">
<metadata></metadata>
<defs>
<font id="moondog_thirtyitalic" horiz-adv-x="1183" >
<font-face units-per-em="2048" ascent="1638" descent="-410" />
<missing-glyph horiz-adv-x="512" />
<glyph horiz-adv-x="0" />
<glyph horiz-adv-x="682" />
<glyph horiz-adv-x="1019" d="M485 1300q-10 -68 26 -117.5t107 -49.5h41q33 0 65 14t57.5 37.5t42 53.5t22.5 62l6 50q10 66 -29 112.5t-104 46.5h-41q-68 0 -122 -46t-64 -113zM602 1300l6 50q4 16 19.5 29.5t31.5 13.5h41q14 0 22.5 -13.5t4.5 -29.5l-6 -50q-4 -18 -15.5 -30.5t-27.5 -12.5h-41 q-16 0 -27.5 13.5t-7.5 29.5z" />
<glyph horiz-adv-x="741" d="M309 1436q-4 -18 5.5 -43t23.5 -49.5t28.5 -47t22.5 -36.5q10 -16 19.5 -35l17.5 -35q10 -23 26.5 -43.5t45.5 -20.5q27 0 45 15.5t32 29.5q27 33 51.5 64t51.5 61q12 16 25.5 32t27.5 32q12 16 22.5 35.5t14.5 40.5q4 16 -6 39.5t-37 23.5t-45 -16.5t-31 -32.5 l-129 -160q-10 25 -28.5 58.5t-39 65.5t-41 54.5t-34.5 22.5q-23 0 -43.5 -16.5t-24.5 -38.5z" />
<glyph unicode="&#xd;" horiz-adv-x="1024" />
<glyph horiz-adv-x="1009" d="M35 78q-4 -47 26.5 -62.5t59.5 -15.5h672q14 0 31.5 4t33.5 13.5t28.5 21.5t14.5 30.5t-5 31t-20.5 21.5t-30 13t-30.5 4h-590q223 328 445.5 653.5t449.5 655.5q2 20 -7 34.5t-22.5 22.5t-28.5 11.5t-28 3.5h-672q-14 0 -31.5 -4.5t-33.5 -13.5t-29.5 -21.5t-15.5 -30.5 q-2 -16 8 -29.5t24.5 -22.5t30 -13.5t25.5 -4.5h596zM539 1890q-4 -20 6 -47.5t24.5 -55.5t29.5 -53.5t25.5 -44t18.5 -38t19 -39.5q8 -23 25.5 -47.5t45.5 -24.5q29 0 49.5 18.5t34.5 34.5q29 35 56.5 71t56.5 71q30 34 57 69q14 20 24.5 42t14.5 44q4 16 -6 44t-39 28 q-25 0 -45.5 -18.5t-34.5 -36.5q-33 -47 -68.5 -91t-72.5 -92q-10 27 -28.5 66t-40 76t-43 62.5t-36.5 25.5q-25 0 -47 -19.5t-26 -44.5z" />
<glyph horiz-adv-x="839" d="M31 66q-2 -16 7 -28.5t22.5 -21t29.5 -12.5t29 -4h512q12 0 29.5 4t34 13.5t28.5 21.5t14 30.5t-5 31t-20.5 21.5t-29.5 13t-29 4h-428q14 16 49 61.5t84.5 107t106.5 135t115.5 147.5t113 143.5t96 123.5t67.5 88t26 38q2 18 -5.5 30.5t-21.5 21.5t-30.5 13.5t-28.5 4.5 h-512q-12 0 -30.5 -5.5t-37 -14.5t-32 -21.5t-15.5 -28.5q-4 -18 6 -30.5t25.5 -21.5t33 -13.5t29.5 -4.5h428l-635 -802q-10 -10 -17 -20.5t-9 -24.5zM371 1442q-4 -20 5 -47t22.5 -54.5t28.5 -53t24 -42.5q20 -39 38 -78q10 -23 28 -47t48 -24q29 0 47.5 17t32.5 34 q27 35 54.5 70.5t56.5 70.5q12 16 26.5 34t28.5 36q31 43 39 84q2 16 -6 43.5t-37 27.5q-27 0 -45.5 -17t-32.5 -38q-35 -47 -69.5 -91t-69.5 -89q-10 27 -29.5 65.5t-41 74.5t-42 61.5t-35.5 25.5q-25 0 -46 -19.5t-25 -43.5z" />
<glyph unicode=" "  horiz-adv-x="512" />
<glyph unicode="&#x09;" horiz-adv-x="512" />
<glyph unicode="&#xa0;" horiz-adv-x="512" />
<glyph unicode="!" horiz-adv-x="389" d="M104 84q2 -21 7.5 -40t13.5 -34.5t18 -15.5q12 0 24.5 12t23 30.5t16.5 38t8 32t2 32.5q0 23 -4 44.5t-12 37t-21 15.5q-10 0 -23.5 -14.5t-23.5 -34t-18.5 -40t-10.5 -30.5q-2 -12 0 -33zM158 455q-2 -10 1 -31t8 -41.5t12.5 -35.5t17.5 -15t22 15t23.5 35.5t18.5 41 t9 31.5l148 923q2 12 1 33t-5 41.5t-12.5 34.5t-20.5 14q-10 0 -22.5 -15.5t-23.5 -35.5t-19.5 -40.5t-10.5 -31.5z" />
<glyph unicode="&#x22;" horiz-adv-x="491" d="M245 1199.5q1 -17.5 5 -33t13.5 -26t25.5 -10.5q12 0 25.5 11.5t24.5 27t18.5 33t9.5 27.5l28 180q2 10 0 27.5t-8 33t-15.5 26.5t-21.5 11q-16 0 -28.5 -10t-22.5 -25.5t-16.5 -33t-8.5 -29.5l-28 -180q-2 -12 -1 -29.5zM411 1199.5q1 -17.5 6 -33t14.5 -26t25.5 -10.5 q12 0 24.5 11.5t23.5 27t18 33t9 27.5l29 180q2 10 0 27.5t-7 33t-14.5 26.5t-21.5 11q-16 0 -28.5 -11t-22.5 -26.5t-17.5 -32t-9.5 -28.5l-28 -180q-2 -12 -1 -29.5z" />
<glyph unicode="#" horiz-adv-x="1101" d="M135 657q-4 -16 4 -28.5t22.5 -20.5t31 -12t30.5 -4h164l-25 -156q-2 -12 -1 -30.5t6.5 -36t15.5 -28.5t27 -11q14 0 27.5 12t24.5 29.5t18 36t9 28.5l25 156h164l-25 -156q-2 -12 0 -30.5t8.5 -35t16.5 -28.5t27 -12q16 0 30.5 11t25.5 28.5t18 36t9 30.5l25 156h156 q12 0 31.5 4t37 12t30.5 20.5t17 28.5q2 18 -7 30.5t-24.5 22t-32.5 13.5t-32 4h-155l26 164h156q12 0 31.5 4t37 12t30.5 20.5t18 30.5q2 12 -8.5 23.5t-27 20t-33.5 12.5t-28 4h-155l24 164q2 14 1 30.5t-6 32t-16.5 25.5t-27.5 10q-18 0 -32.5 -12.5t-26 -27.5 t-18.5 -32.5t-9 -25.5l-25 -164h-163l24 164q2 10 0 26.5t-8 32.5t-15.5 27.5t-21.5 11.5q-16 0 -30.5 -10t-24.5 -25.5t-17.5 -32t-9.5 -30.5l-24 -164h-164q-10 0 -27.5 -4t-35 -12.5t-31 -19.5t-15.5 -24q-4 -18 4.5 -30.5t22.5 -20.5t30.5 -12t30.5 -4h164l-26 -164 h-164q-14 0 -31.5 -4t-34 -13.5t-29 -22.5t-14.5 -30zM535 727l26 164h164l-27 -164h-163z" />
<glyph unicode="$" d="M113 63q-4 -16 6 -29.5t25.5 -21.5t33 -12t31.5 -4h268q-4 -18 -8 -46t-2 -52.5t13.5 -43t37.5 -18.5q14 0 28.5 13.5t26 31t19.5 35.5t10 31l8 49h193q37 0 70.5 14.5t61.5 39t46 56t25 68.5l61 387q6 35 -3 68t-29.5 57.5t-50.5 39.5t-64 15h-193l76 478h262 q14 0 32.5 4t37 12t32 20.5t15.5 30.5q2 14 -8.5 25.5t-27 19.5t-33.5 12.5t-28 4.5h-260q2 16 6.5 43.5t1 53t-13.5 44t-35 18.5q-27 0 -43 -18.5t-27.5 -43t-16.5 -52t-7 -45.5h-192q-37 0 -72 -13.5t-64.5 -37t-49 -56.5t-25.5 -72l-60 -378q-12 -78 33 -133.5t121 -55.5 h192l-75 -477h-269q-10 0 -28.5 -5t-37 -13.5t-33.5 -19.5t-17 -24zM362 791l60 378q4 20 19.5 35t35.5 15h193l-76 -478h-193q-45 0 -39 50zM631 125l76 477h192q16 0 26.5 -12.5t6.5 -28.5l-62 -387q-2 -18 -16 -33.5t-31 -15.5h-192z" />
<glyph unicode="%" horiz-adv-x="1576" d="M240 872q-6 -37 3 -70.5t28.5 -59t50 -42t67.5 -16.5h158q39 0 73.5 15.5t62.5 41t45 60.5t24 71l73 455q12 78 -28.5 129t-118.5 51h-158q-37 0 -71.5 -14t-63.5 -38.5t-47.5 -57.5t-24.5 -70zM342 61q-4 -18 5 -40.5t32 -22.5q33 0 60.5 25.5t41.5 46.5l860 1304 q6 10 12.5 17.5t10.5 15.5q4 10 8 19.5t6 19.5q4 18 -5 40.5t-38 22.5q-33 0 -58.5 -27.5t-41.5 -49.5q-217 -319 -427 -639t-423 -641q-16 -23 -27.5 -42.5t-15.5 -48.5zM377 872l74 455q4 18 17 29.5t30 11.5h157q16 0 28.5 -12.5t10.5 -28.5l-73 -455q-4 -20 -18.5 -34.5 t-33.5 -14.5h-157q-16 0 -27.5 13.5t-7.5 35.5zM889 180q-6 -35 3 -67.5t29.5 -57t50 -40t64.5 -15.5h158q37 0 71.5 14.5t62.5 39t47.5 57t25.5 69.5l74 463q10 76 -33 128t-117 52h-158q-35 0 -69.5 -15t-62 -40t-47 -57.5t-25.5 -67.5zM1026 180l74 463q2 16 15 28.5 t30 12.5h158q16 0 27 -11.5t7 -29.5l-73 -463q-4 -18 -17.5 -29.5t-29.5 -11.5h-158q-16 0 -26.5 11.5t-6.5 29.5z" />
<glyph unicode="&#x26;" horiz-adv-x="1034" d="M131 176q-12 -72 30 -124t113 -52h529q14 0 31.5 4t34 13.5t28.5 21.5t14 31q2 16 -5 29.5t-20.5 21.5t-29.5 12t-31 4h-100l61 398q18 0 51 -1.5t66 5t59.5 21.5t30.5 44q2 23 -12 37t-36.5 21.5t-47.5 10.5t-41 3q-12 0 -23.5 -1t-23.5 -1l25 155q2 14 1 32t-7.5 33 t-17.5 25.5t-28 10.5q-18 0 -32.5 -11.5t-24.5 -26.5t-17.5 -32.5t-9.5 -30.5l-24 -155h-338l63 399q2 14 18.5 26.5t33.5 12.5h342q8 0 25.5 4t34.5 12.5t31.5 21.5t16.5 30q2 18 -5 30.5t-20.5 21.5t-30 13t-30.5 4h-342q-74 0 -131 -51t-70 -125zM258 176l55 361h338 l-61 -400h-293q-16 0 -29.5 12.5t-9.5 26.5z" />
<glyph unicode="'" horiz-adv-x="307" d="M244 1198q0 -16 4 -31.5t12.5 -26t20.5 -10.5q10 0 21 11.5t21.5 27t16.5 33t8 27.5l29 180q2 10 1 27.5t-6 33t-12.5 26.5t-17.5 11q-12 0 -23.5 -10t-20.5 -25.5t-15.5 -33t-8.5 -29.5l-28 -180q-2 -12 -2 -31z" />
<glyph unicode="(" horiz-adv-x="405" d="M90 -76q-6 -35 1 -66.5t23.5 -57t43 -41t59.5 -15.5h62q25 0 62.5 17.5t43.5 52.5q4 33 -27.5 51t-56.5 18h-35q-23 0 -41 5.5t-14 35.5l260 1637q4 31 24.5 36t43.5 5h34q8 0 24.5 4t34 13t31 22.5t15.5 29.5q6 35 -25.5 52.5t-56.5 17.5h-61q-35 0 -66 -15.5t-55.5 -40 t-41 -57.5t-22.5 -67z" />
<glyph unicode=")" horiz-adv-x="405" d="M-141 -186q-6 -35 25.5 -52.5t56.5 -17.5h61q33 0 63.5 15.5t56 41t42 57t22.5 66.5l260 1637q6 35 -1 67.5t-23 57t-43 40t-60 15.5h-61q-12 0 -28.5 -5t-34 -14.5t-29.5 -22.5t-14 -28q-2 -16 7 -29.5t23.5 -22.5t29.5 -13t24 -4h34q23 0 41.5 -5.5t14.5 -35.5 l-260 -1637q-4 -27 -20.5 -34t-45.5 -7q-14 0 -36.5 -2t-45 -9t-40 -21.5t-19.5 -36.5z" />
<glyph unicode="*" horiz-adv-x="868" d="M266 1036q-4 -23 16.5 -34t39.5 -11q14 0 35.5 8.5t46 19.5t46 23.5t35.5 20.5l-16 -109q-4 -27 7 -60.5t44 -33.5t54.5 34t25.5 60l16 109q31 -23 76 -47.5t72 -24.5q14 0 36.5 10.5t26.5 34.5q4 23 -10 44.5t-35.5 40t-45 31.5t-38.5 24l101 53q23 12 45 32.5t28 51.5 q4 27 -15 37t-36 10q-14 0 -36.5 -8.5t-47 -19.5t-47 -23.5t-37.5 -20.5l15 101q2 12 1 30.5t-6.5 33.5t-16.5 26.5t-28 11.5q-16 0 -30.5 -11.5t-24.5 -26.5t-17 -33.5t-9 -30.5l-17 -105q-18 12 -38.5 24.5t-41.5 26.5q-12 10 -26.5 17.5t-34.5 7.5q-16 0 -40 -9.5 t-28 -37.5q-6 -33 13.5 -54.5t37.5 -33.5l80 -49q-20 -10 -48.5 -23.5t-55.5 -32t-47.5 -39t-24.5 -45.5z" />
<glyph unicode="+" horiz-adv-x="1101" d="M213 694q-2 -12 7 -23.5t24.5 -18.5t31 -12t25.5 -5h229l-34 -227q-2 -14 -2 -33q0 -18 5 -34.5t15 -28t29 -11.5q18 0 32.5 11.5t25.5 27.5t18.5 34.5t9.5 33.5l35 227h227q10 0 28.5 5t37 12t34 18.5t17.5 23.5q2 16 -8.5 28.5t-26 22t-32.5 13.5t-30 4h-227l35 227 q2 14 2 33q0 18 -6 34.5t-16.5 28t-28.5 11.5t-32.5 -11.5t-25 -28t-17.5 -34.5t-9 -33l-35 -227h-229q-14 0 -32 -4t-34 -12.5t-28.5 -21.5t-14.5 -30z" />
<glyph unicode="," horiz-adv-x="311" d="M35 -123q0 -18 4 -33.5t11.5 -27t19.5 -11.5q8 0 19 12.5t21.5 28t17.5 32t9 26.5l27 180q2 8 0 25.5t-7 33t-12.5 27.5t-15.5 12q-12 0 -22.5 -11t-19.5 -26.5t-15 -33t-9 -27.5l-26 -180q-2 -10 -2 -27z" />
<glyph unicode="-" horiz-adv-x="724" d="M131 549q0 -8 10.5 -16.5t24.5 -14.5t28.5 -9t24.5 -3h330q8 0 26.5 3t36 9t31.5 14.5t14 16.5q2 12 -8 21.5t-25.5 15.5t-32 9t-28.5 3h-330q-12 0 -28.5 -3t-31.5 -9t-27.5 -15.5t-14.5 -21.5z" />
<glyph unicode="." horiz-adv-x="305" d="M66 68q0 -16 3 -33t10 -28t21 -11q12 0 23.5 10t21 25.5t14.5 32t7 28.5t2 29q0 16 -4 31.5t-12.5 25.5t-20.5 10t-23.5 -10t-19.5 -24.5t-13 -29.5t-7 -26q-2 -12 -2 -30z" />
<glyph unicode="/" horiz-adv-x="903" d="M10 61q-4 -20 2 -41.5t39 -21.5q14 0 28.5 8t28 19.5t22.5 23.5t15 21l850 1306q23 33 29 66q4 20 -5 43.5t-38 23.5q-23 0 -47.5 -21.5t-40.5 -41.5h-2l-854 -1315q-23 -33 -27 -70z" />
<glyph unicode="0" d="M168 408q-12 -82 7.5 -156t63.5 -130t111.5 -89t149.5 -33h73q82 0 161 33t143.5 88t108.5 129t58 158l109 692q12 84 -8.5 157.5t-66.5 129t-114.5 88t-150.5 32.5h-74q-82 0 -159.5 -32.5t-141 -89t-106.5 -130t-56 -155.5zM303 408l109 692q8 55 35.5 104t69.5 85 t93.5 57.5t106.5 21.5h74q57 0 103 -20.5t76.5 -56.5t43 -85t4.5 -106l-109 -692q-10 -57 -38.5 -106.5t-70.5 -85.5t-94.5 -56.5t-109.5 -20.5h-74q-55 0 -100 21.5t-74 57.5t-42 85t-3 105z" />
<glyph unicode="1" horiz-adv-x="503" d="M202 77q1 -20 5 -36t13.5 -28.5t25.5 -12.5q12 0 23.5 13.5t21.5 31.5t16 35.5t8 28.5l195 1218q10 72 -22.5 126t-104.5 54h-45q-12 0 -28.5 -5t-34 -14t-30 -22.5t-14.5 -27.5q-2 -16 7.5 -29.5t23.5 -23t29.5 -13.5t23.5 -4h25q16 0 29.5 -3t21.5 -11t6 -27 l-194 -1218q-2 -12 -1 -32z" />
<glyph unicode="2" horiz-adv-x="1175" d="M131 180q-12 -74 31 -127t114 -53h596q14 0 32 4t34 13.5t28.5 21.5t14.5 31q2 16 -5 29.5t-20.5 22.5t-30 13t-30.5 4h-596q-16 0 -30.5 12.5t-10.5 28.5l37 228q8 57 36.5 107t71.5 88t96.5 59.5t108.5 21.5h74q84 0 162 34t140.5 91t105.5 132t55 159l37 227 q12 78 -29 129t-117 51h-596q-14 0 -31.5 -4t-34 -13t-29.5 -21.5t-15 -31t8 -30.5t24.5 -21.5t30 -13.5t25.5 -4h596q16 0 29.5 -12.5t11.5 -28.5l-37 -227q-10 -57 -39 -107.5t-71 -88.5t-95 -59.5t-108 -21.5h-74q-86 0 -164 -33.5t-140.5 -90t-104.5 -132t-54 -159.5z " />
<glyph unicode="3" horiz-adv-x="1107" d="M37 69.5q-2 -18.5 7 -31.5t24.5 -21.5t33 -12.5t31.5 -4h588q35 0 69.5 14.5t64.5 39t50.5 57t26.5 69.5l37 228q16 104 -17.5 196t-109.5 150q94 57 156.5 149t78.5 197l37 227q12 78 -34 129t-119 51h-588q-14 0 -32.5 -4t-37 -12t-33 -21.5t-16.5 -31.5 q-2 -14 8 -27.5t25.5 -23t33 -14.5t29.5 -5h588q20 0 32.5 -11t8.5 -30l-37 -227q-10 -55 -36.5 -105.5t-66.5 -88.5t-91.5 -60.5t-106.5 -22.5h-307q-29 0 -67 -17.5t-44 -51.5q-2 -18 6.5 -30.5t21.5 -22t29.5 -13.5t30.5 -4h307q55 0 99.5 -22.5t73 -60.5t40 -88 t3.5 -105l-37 -228q-4 -18 -18.5 -29.5t-35.5 -11.5h-587q-14 0 -33 -4t-37 -13t-32.5 -21.5t-16.5 -31z" />
<glyph unicode="4" horiz-adv-x="1093" d="M240 872q-10 -78 33.5 -133t119.5 -55h269l-93 -575q-2 -10 0 -29t7.5 -36t14.5 -30.5t23 -13.5q18 0 33 11.5t25 28.5t16 35.5t8 33.5l92 575h193q14 0 32.5 4t36 12.5t31 21.5t17.5 32q2 18 -6.5 31.5t-23.5 21.5t-32.5 12t-31.5 4h-193l70 439q2 12 -1 28.5t-9.5 31.5 t-16.5 25.5t-25 10.5q-12 0 -25 -13.5t-24.5 -31t-18.5 -35.5t-9 -29l-68 -426h-268q-47 0 -41 49l84 527q2 12 1 31.5t-6 36t-15.5 28.5t-28.5 12q-14 0 -28.5 -12t-27 -29.5t-20.5 -36t-10 -30.5z" />
<glyph unicode="5" d="M113 69.5q-2 -18.5 7 -31.5t24.5 -21.5t33 -12.5t31.5 -4h588q35 0 69.5 14.5t64.5 39t50 57t27 69.5l36 228q12 86 -7 160.5t-65 132t-115 90t-152 32.5h-295q-18 0 -28.5 13.5t-6.5 35.5l74 455q2 16 16 28.5t31 12.5h594q10 0 29.5 6t38 15.5t32.5 22.5t16 26 q2 18 -6 30.5t-23.5 21.5t-33 13t-31.5 4h-594q-37 0 -71.5 -14t-62.5 -38.5t-46.5 -57.5t-24.5 -70l-73 -455q-6 -35 2 -68.5t28.5 -60t50 -43t66.5 -16.5h295q57 0 103 -21.5t77 -58.5t43.5 -88t3.5 -108l-37 -228q-4 -18 -18 -29.5t-35 -11.5h-588q-14 0 -32.5 -4 t-37 -13t-32.5 -21.5t-16 -31z" />
<glyph unicode="6" d="M131 180q-6 -37 4 -69.5t31.5 -57t52.5 -39t66 -14.5h518q35 0 69.5 15.5t62.5 40t47 57t26 67.5l49 307q12 82 -6.5 157t-63.5 132.5t-111.5 91t-150.5 33.5h-297q-20 0 -32.5 11.5t-8.5 29.5l25 158q8 57 37.5 106t71.5 85t94.5 56.5t109.5 20.5h365q12 0 30.5 5 t37 14.5t32.5 22.5t16 28q2 18 -6 31.5t-23.5 21.5t-33 12t-31.5 4h-364q-84 0 -163 -32.5t-143.5 -88t-108.5 -129t-57 -157.5zM266 180l94 590q16 -8 46 -8h296q55 0 100.5 -21.5t74 -59.5t41 -88.5t4.5 -105.5l-50 -307q-4 -16 -17 -28.5t-30 -12.5h-518 q-20 0 -32.5 11.5t-8.5 29.5z" />
<glyph unicode="7" horiz-adv-x="995" d="M219 79.5q-4 -16.5 5 -41t30 -24.5q14 0 31.5 10.5t34 26t29.5 32.5t22 30q131 223 258 445t256 446q14 25 49 82t71.5 120.5t65.5 118.5t33 74q6 33 -4 54.5t-28.5 33.5t-43 16t-47.5 4h-631q-14 0 -32.5 -4t-37 -12t-33 -21.5t-16.5 -31.5q-2 -14 8.5 -27.5t26 -23 t32.5 -14.5t30 -5h245q123 0 246 -2h55q29 0 56 -2h10l-696 -1221q-8 -14 -14.5 -30.5t-10.5 -33z" />
<glyph unicode="8" horiz-adv-x="1175" d="M131 180q-12 -74 31 -127t114 -53h521q37 0 70.5 14.5t61 39t46 57t24.5 69.5l37 228q16 104 -17.5 195t-109.5 151q94 59 156.5 150t79.5 196l37 227q12 78 -29 129t-117 51h-520q-76 0 -133 -51t-70 -129l-37 -227q-16 -102 15 -194.5t104 -151.5 q-92 -59 -151.5 -151.5t-75.5 -194.5zM258 180l37 228q8 55 35.5 104t68.5 88t91.5 61.5t103.5 22.5h88q55 0 100 -21.5t74 -59.5t41 -88t4 -107l-37 -228q-4 -16 -16 -28.5t-29 -12.5h-520q-16 0 -30.5 12.5t-10.5 28.5zM403 1100l37 227q2 16 19.5 28.5t34.5 12.5h520 q16 0 25.5 -12.5t7.5 -28.5l-37 -227q-8 -55 -35 -104.5t-66 -88.5t-88 -61.5t-104 -22.5h-101q-53 0 -96 22.5t-71.5 61.5t-41 88t-4.5 105z" />
<glyph unicode="9" d="M113 70q-2 -18 7 -30.5t24.5 -22t34 -13.5t30.5 -4h364q82 0 161 33t143.5 88t108.5 129t58 158l146 919q10 74 -32 127t-116 53h-518q-37 0 -71.5 -13t-64.5 -37.5t-49.5 -57.5t-25.5 -72l-49 -307q-14 -86 6.5 -160t67.5 -128t115.5 -86t152.5 -32h295q16 0 26.5 -15 t6.5 -34l-25 -157q-10 -57 -38.5 -106.5t-70.5 -85.5t-94.5 -56.5t-109.5 -20.5h-365q-12 0 -31.5 -4t-38 -13t-32.5 -22.5t-16 -29.5zM399 1020l50 307q4 18 18 29.5t35 11.5h518q16 0 26.5 -12.5t8.5 -28.5l-94 -588q-18 6 -39 6h-295q-55 0 -101.5 21.5t-77 59.5 t-45 88.5t-4.5 105.5z" />
<glyph unicode=":" horiz-adv-x="305" d="M66 76q0 -18 3 -35.5t10 -31t21 -13.5q12 0 23.5 12t21 28.5t15.5 35t8 31t2 30.5q0 20 -4 36.5t-12.5 29t-20.5 12.5t-23.5 -11.5t-19.5 -27.5t-14 -33.5t-8 -30t-2 -32.5zM146 588.5q-1 -19.5 2.5 -38t10.5 -31.5t21 -13q12 0 24.5 12t22 28.5t15.5 36t8 32t1 31 t-4 34.5t-11.5 28.5t-20.5 12.5t-23.5 -11.5t-19.5 -26.5t-14 -32.5t-8.5 -30t-3.5 -32z" />
<glyph unicode=";" horiz-adv-x="305" d="M35 -121q0 -18 4 -34.5t11.5 -28t19.5 -11.5q8 0 19 12.5t21.5 29t17.5 34t9 27.5l31 190q2 8 0 25.5t-7 35t-12.5 30t-15.5 12.5q-12 0 -22.5 -12.5t-19.5 -29t-15 -33.5t-8 -28l-31 -190q-2 -12 -2 -29zM146 586.5q-1 -19.5 2.5 -37t10.5 -30.5t21 -13q12 0 24.5 12 t22 28.5t14.5 35t7 31t2 30.5q0 20 -3 36.5t-11.5 29t-20.5 12.5t-23.5 -11.5t-20.5 -27.5t-14 -33.5t-7.5 -30t-3.5 -32z" />
<glyph unicode="&#x3c;" horiz-adv-x="817" d="M144 586.5q3 -25.5 32 -43.5l449 -291q8 0 15 -3t15 -3q20 0 39 12t23 39q8 47 -35 78l-406 262l488 254q23 10 39 33.5t20 46.5q6 49 -35 55l60 51l-637 -346q-29 -14 -45 -37.5t-20.5 -52.5t-1.5 -54.5z" />
<glyph unicode="=" horiz-adv-x="960" d="M117 522.5q-2 -14.5 8 -27t25.5 -20.5t33 -12t29.5 -4h590q14 0 31.5 4t34 11t28.5 19.5t14 29t-6 27.5t-21.5 19.5t-30.5 11.5t-30 3h-590q-12 0 -30.5 -4.5t-37 -12.5t-32.5 -19t-16 -25.5zM162 797q-2 -14 8 -25.5t25.5 -20t33 -12.5t29.5 -4h590q12 0 29.5 3t34 11.5 t28.5 19.5t16 28q2 14 -7 25.5t-23.5 19.5t-29.5 13t-28 5h-589q-10 0 -30 -5t-38 -13t-32.5 -20.5t-16.5 -24.5z" />
<glyph unicode="&#x3e;" horiz-adv-x="817" d="M86 301q-6 -55 45 -55q8 0 15.5 3t15.5 3l543 291q31 16 44 40.5t17 53.5t-4 53.5t-31 40.5l-461 299l-2 -6q-4 2 -14 2q-23 0 -40 -11t-21 -40q-4 -23 4 -47.5t30 -36.5l406 -254l-488 -262q-20 -10 -37.5 -28.5t-21.5 -45.5z" />
<glyph unicode="?" d="M330 1434q-2 -12 8 -25.5t25.5 -23t33 -15.5t27.5 -6h588q20 0 32.5 -11.5t8.5 -29.5l-47 -307q-4 -20 -20.5 -34.5t-35.5 -14.5h-288q-37 0 -73 -13.5t-64.5 -37t-49 -55.5t-26.5 -70l-50 -308q-2 -14 0 -32.5t8.5 -36t17.5 -29.5t28 -12q16 0 30.5 12t24.5 29.5t17 37 t10 31.5l49 308q4 18 20.5 32.5t36.5 14.5h289q37 0 71.5 13t63.5 36.5t49.5 56.5t26.5 72l47 307q12 78 -34 129t-120 51h-588q-14 0 -32.5 -4t-36 -13t-31.5 -21.5t-16 -30.5zM340 76q0 -18 6 -37t17.5 -31t29.5 -12q16 0 30.5 12t25 28.5t17.5 36t9 31.5q2 14 1 33t-6 36 t-15.5 29.5t-26.5 12.5q-18 0 -32.5 -11t-26 -27.5t-18.5 -34t-9 -32t-2 -34.5z" />
<glyph unicode="@" horiz-adv-x="1339" d="M131 184q-6 -35 3 -68.5t28.5 -59t49.5 -41t67 -15.5h679q41 0 77 17.5t63.5 47t46 68.5t24.5 82h-135q-12 -78 -53 -78h-680q-16 0 -27.5 14.5t-7.5 32.5l135 852q4 18 18.5 32.5t31.5 14.5h679q16 0 26.5 -14t6.5 -33l-98 -624q-4 -20 -17.5 -33.5t-31.5 -13.5 q-47 0 -41 47l63 397q6 35 -2 68.5t-28.5 59.5t-50 42t-66.5 16h-340q-12 0 -31.5 -4t-38 -13t-32 -22.5t-15.5 -29.5q-4 -16 6.5 -29.5t25.5 -23t32.5 -13.5t29.5 -4h340q20 0 28.5 -15.5t4.5 -37.5q-8 -49 -47 -80t-88 -31h-184q-35 0 -71 -14t-65.5 -39t-50 -57.5 t-26.5 -69.5l-17 -100q-12 -76 32 -131.5t122 -55.5h262q31 0 61.5 11.5t57.5 29.5q41 -41 106 -41q37 0 73 15.5t63.5 42t46 60.5t24.5 69l98 624q6 35 -3 69t-28.5 59.5t-49 41t-66.5 15.5h-680q-37 0 -71.5 -15.5t-62.5 -41t-46.5 -59.5t-24.5 -69zM489 412l17 100 q2 18 17.5 29.5t35.5 11.5h184q33 0 63.5 8.5t59.5 22.5l-26 -172q-4 -20 -17.5 -33.5t-31.5 -13.5h-263q-23 0 -33 12t-6 35z" />
<glyph unicode="A" d="M118 76q1 -19 7 -36t16.5 -28.5t28.5 -11.5t32.5 12.5t26 28.5t17.5 35.5t8 32.5l92 575h606l-92 -575q-2 -12 -1 -32t7 -36t16.5 -28.5t28.5 -12.5q14 0 28.5 12.5t27 29.5t19.5 35.5t9 31.5l195 1218q2 16 3 31q0 57 -37 98q-46 51 -120 51h-518q-37 0 -71.5 -14 t-62.5 -38.5t-46.5 -57.5t-24.5 -70l-194 -1218q-1 -9 -1 -21v-12zM369 823l80 504q2 16 16 28.5t31 12.5h518q20 0 32 -12q9 -9 10 -21q0 -4 -1 -8l-80 -504h-606z" />
<glyph unicode="B" d="M131 180q-2 -14 -2 -27q0 -23 6 -43q10 -32 31.5 -56.5t52.5 -39t66 -14.5h297q82 0 159.5 33t140 89t106.5 130t56 156q5 33 5 65q1 68 -23 130q-34 91 -108 151q92 59 155.5 150t79.5 196q5 31 4 61q1 49 -11 95q-20 74 -64 130t-111.5 88.5t-149.5 32.5h-297 q-37 0 -71.5 -13t-64.5 -37.5t-49.5 -57.5t-25.5 -72zM266 180l80 504h356q55 0 97.5 -22.5t70.5 -61.5t38 -88q6 -26 5 -55q0 -24 -4 -49q-10 -55 -37.5 -104.5t-68.5 -85.5t-92.5 -57.5t-106.5 -21.5h-297q-21 -1 -33 11q-9 9 -9 22q0 4 1 8zM369 823l80 504q4 18 18 29.5 t35 11.5h297q55 0 99 -21.5t74 -57.5t42 -85q8 -30 7 -62q0 -20 -3 -42q-8 -56 -35 -105t-65.5 -88t-88 -61.5t-104.5 -22.5h-356z" />
<glyph unicode="C" horiz-adv-x="1083" d="M131 180q-2 -14 -2 -28q0 -20 5 -40q9 -32 29.5 -56.5t50.5 -40t65 -15.5h593q14 0 33 4t37.5 13.5t31.5 21.5t15 31q2 16 -6 29.5t-23.5 22.5t-33 13t-31.5 4h-594q-16 0 -27.5 12.5t-7.5 28.5l183 1147q2 16 16 28.5t31 12.5h594q10 0 29.5 6t38 15.5t32.5 22.5t16 26 v7q0 13 -6 23q-8 12 -23.5 21.5t-33 13.5t-31.5 4h-594q-37 0 -71.5 -14t-62.5 -38.5t-46.5 -57.5t-24.5 -70z" />
<glyph unicode="D" d="M131 180q-2 -14 -2 -28q0 -20 5 -40q9 -32 29.5 -56.5t50.5 -40t65 -15.5h294q82 0 161 33t143.5 88t108.5 129t58 158l109 692q4 31 4 61q-1 51 -13 97q-20 74 -66 129t-114.5 87.5t-150.5 32.5h-295q-37 0 -71.5 -14t-62.5 -38.5t-46.5 -57.5t-24.5 -70zM266 180 l183 1147q2 16 16 28.5t31 12.5h295q57 0 103 -20.5t76 -56.5q32 -36 44 -85q8 -30 7 -63q0 -21 -3 -43l-109 -692q-10 -57 -38.5 -106.5t-70.5 -85.5t-94.5 -56.5t-109.5 -20.5h-295q-15 1 -27 13q-9 9 -9 20q0 4 1 8z" />
<glyph unicode="E" horiz-adv-x="1081" d="M131 180q-3 -16 -3 -31q0 -54 34 -96q43 -53 114 -53h596q14 0 32 4t34 13.5t28.5 21.5t14.5 31q2 16 -5 29.5t-20.5 22.5t-30 13t-30.5 4h-596q-16 0 -30.5 12.5t-10.5 28.5l80 504h491q14 0 33 4t36 13.5t30.5 21.5t15.5 30.5t-6 31t-22.5 21.5t-32 13t-31.5 4h-492 l80 504q2 16 19.5 28.5t34.5 12.5h596q8 0 25.5 4t34.5 13.5t32 21.5q14 13 16 31v7q0 13 -5 23q-7 12 -20.5 21.5t-30 13.5t-30.5 4h-596q-76 0 -133 -51t-70 -129z" />
<glyph unicode="F" horiz-adv-x="1073" d="M118 76q1 -19 7 -36t16.5 -28.5t28.5 -11.5q12 0 25.5 13.5t23.5 30.5t17.5 35.5t9.5 29.5l92 575h491q14 0 33 4t36 13.5t30.5 21.5t15.5 30.5t-6 31t-22.5 21.5t-32 13t-31.5 4h-492l80 504q2 16 19.5 28.5t34.5 12.5h596q8 0 25.5 4t34.5 13.5t32 21.5q14 13 16 31v7 q0 13 -5 23q-7 12 -20.5 21.5t-30 13.5t-30.5 4h-596q-76 0 -133 -51t-70 -129l-194 -1218q-1 -9 -1 -21v-12z" />
<glyph unicode="G" d="M129 137q8 -55 47 -96t100 -41h553q6 4 9 4q2 0 8 2q59 12 105 63.5t57 106.5l73 471q3 16 3 30q0 19 -5 35q-8 27 -25.5 48.5t-42 37t-48.5 29.5v-6q-6 0 -12.5 1t-12.5 1h-305q-10 0 -22.5 -3t-22.5 -3q-23 -10 -43.5 -22.5t-24.5 -40.5q-4 -27 13.5 -41.5t43 -21.5 t53 -8t46.5 -1q45 0 89 2t89 2h25q16 0 34 -2q10 -4 20.5 -6t6.5 -14q6 -10 6 -13v-2l-74 -471q-4 -14 -12 -22h2l-6 -6q-12 -10 -29 -11h-536q-6 0 -15 8q-14 4 -10 31l185 1163q0 8 8 13q59 12 115.5 14t76.5 2h162q70 0 138.5 -1t138.5 -1q35 0 58 11.5t54 45.5q4 4 4 13 v8q0 13 -5 24q-7 13 -20.5 21t-27.5 12t-27 4h-614q-12 0 -33 -4q-59 -16 -107 -60t-59 -112l-184 -1169q-2 -6 -2 -12t2 -13z" />
<glyph unicode="H" horiz-adv-x="1175" d="M118 76q1 -19 7 -36t16.5 -28.5t28.5 -11.5q14 0 28.5 12.5t27 29.5t19.5 35.5t9 31.5l92 575h606l-92 -575q-2 -14 -1 -33t6 -36t16.5 -28.5t29.5 -11.5q12 0 25.5 13.5t24 30.5t17.5 35.5t9 29.5l205 1290q1 5 1 12t-1 17q-2 18 -6 35.5t-13.5 30.5t-21.5 13 q-18 0 -33.5 -12t-26 -28.5t-17.5 -35t-9 -32.5l-90 -576h-606l90 576q2 12 0 30.5t-8.5 36t-16.5 29.5t-24 12q-18 0 -33 -12t-26 -28.5t-18 -35t-9 -32.5l-205 -1290q-1 -9 -1 -21v-12z" />
<glyph unicode="I" horiz-adv-x="413" d="M118 77q1 -20 4 -36t11.5 -28.5t22.5 -12.5q12 0 23 12.5t21.5 29.5t16.5 35.5t8 31.5l205 1290q1 8 2 19q0 6 -1 12q-1 18 -5 35.5t-11 29.5t-20 12q-14 0 -26.5 -12t-21.5 -28.5t-15 -36t-8 -31.5l-205 -1290q-1 -8 -1 -20v-12z" />
<glyph unicode="J" horiz-adv-x="1081" d="M10 70v-7q0 -14 8 -25q9 -13 24 -21.5t32.5 -12.5t31.5 -4h588q35 0 70 14.5t64.5 39t50 57t26.5 69.5l193 1219q1 6 1 13.5t-1 17.5q-2 18 -8.5 35.5t-16.5 29.5t-24 12q-18 0 -33 -12t-26 -28.5t-18 -36t-9 -31.5l-193 -1219q-4 -18 -18.5 -29.5t-34.5 -11.5h-588 q-14 0 -32.5 -4t-37 -13t-33 -21.5t-16.5 -30.5z" />
<glyph unicode="K" d="M119 109q-1 -5 -1 -11q0 -9 2 -20q3 -19 9 -36t16.5 -29.5t24.5 -12.5q18 0 32.5 12.5t26 28.5t17.5 35.5t8 32.5l92 575h356q55 0 97.5 -22.5t70.5 -61.5t38 -88q6 -26 5 -55q0 -24 -4 -49l-49 -299q-2 -12 -1 -32t7 -36t16.5 -28.5t28.5 -12.5t32.5 11.5t26 28.5 t17.5 35.5t8 33.5l49 299q5 33 5 65q1 68 -23 130q-34 91 -108 151q92 59 155.5 150t79.5 196l47 299q1 9 1 21v12q-1 18 -6 34.5t-15.5 28.5t-28.5 12t-32.5 -12t-26 -28.5t-18.5 -36t-9 -31.5l-47 -299q-10 -57 -38 -107.5t-69 -88.5t-92 -59.5t-106 -21.5h-344l90 576 q2 12 1 31.5t-6 36t-15.5 28.5t-28.5 12q-14 0 -28.5 -12t-27 -29.5t-20.5 -36t-10 -30.5z" />
<glyph unicode="L" horiz-adv-x="1075" d="M131 180q-3 -16 -3 -31q0 -54 34 -96q43 -53 114 -53h596q14 0 32 4t34 13.5t28.5 21.5t14.5 31v7q0 13 -5 23q-7 14 -20.5 22.5t-30 12.5t-30.5 4h-596q-16 0 -30.5 12.5t-10.5 28.5l193 1219q2 10 0 28.5t-6.5 36t-13.5 30.5t-21 13q-18 0 -33 -12t-26 -28.5t-18 -35 t-9 -32.5z" />
<glyph unicode="M" horiz-adv-x="1658" d="M118 76q1 -19 7 -36t17.5 -28.5t29.5 -11.5t32.5 11.5t26 28.5t17.5 35.5t8 33.5l195 1218q4 18 17 29.5t32 11.5h381q16 0 30.5 -12.5t12.5 -22.5l-195 -1227q-2 -14 -1 -32.5t6 -36t16.5 -28.5t29.5 -11q16 0 30.5 12.5t25 29.5t16.5 35.5t8 30.5l195 1221 q2 16 19.5 28.5t35.5 12.5h375q23 0 35 -10t8 -31l-195 -1218q-2 -14 -1 -33t7.5 -36t16.5 -28.5t28 -11.5t34 11.5t27 28.5t17 35.5t8 33.5l195 1218q2 16 2 30q0 58 -38 99q-48 51 -122 51h-374q-66 0 -121 -37q-23 16 -50.5 26.5t-58.5 10.5h-381q-37 0 -71.5 -14 t-63.5 -38.5t-48.5 -57.5t-25.5 -70l-194 -1218q-1 -9 -1 -21v-12z" />
<glyph unicode="N" horiz-adv-x="1175" d="M118 76q1 -19 7 -36t16.5 -28.5t28.5 -11.5q14 0 28.5 12.5t27 29.5t19.5 35.5t9 31.5l195 1218q2 16 15 28.5t30 12.5h520q16 0 29.5 -12.5t11.5 -28.5l-195 -1218q-2 -14 -1 -33t6 -36t16.5 -28.5t29.5 -11.5q12 0 25.5 13.5t24 30.5t17.5 35.5t9 29.5l195 1218 q3 18 3 34q0 56 -32 95q-41 51 -117 51h-520q-76 0 -133 -51t-70 -129l-194 -1218q-1 -9 -1 -21v-12z" />
<glyph unicode="O" horiz-adv-x="1175" d="M131 180q-3 -16 -3 -31q0 -54 34 -96q43 -53 114 -53h521q37 0 70.5 14.5t61 39t46 57t24.5 69.5l183 1147q3 18 2 34q0 56 -31 95q-41 51 -117 51h-520q-76 0 -133 -51t-70 -129zM258 180l182 1147q2 16 19.5 28.5t34.5 12.5h520q16 0 26 -12q8 -10 7 -24v-5l-183 -1147 q-4 -16 -16 -28.5t-29 -12.5h-520q-17 1 -31 13q-11 10 -11 21q0 4 1 7z" />
<glyph unicode="P" d="M118 76q1 -19 7 -36t16.5 -28.5t28.5 -11.5t32.5 12.5t26 28.5t17.5 35.5t8 32.5l92 575h559q37 0 73 15.5t64.5 41t48 60.5t25.5 71l74 455q2 16 3 31q0 57 -37 98q-46 51 -120 51h-512q-37 0 -71.5 -13t-64.5 -37.5t-49.5 -57.5t-25.5 -72l-194 -1218q-1 -9 -1 -21v-12 zM369 823l80 504q4 18 18 29.5t35 11.5h512q20 0 32 -12q9 -9 10 -21q0 -4 -1 -8l-74 -455q-6 -49 -53 -49h-559z" />
<glyph unicode="Q" d="M76 -168q-1 -5 -1 -10q0 -12 7 -22q10 -13 25.5 -21t33 -12.5t31.5 -4.5h627q20 0 45.5 4.5t48 16.5t39 32.5t22.5 53.5q2 13 2 26q0 30 -10 59q-14 42 -31 79q35 27 59.5 62.5t31.5 76.5l184 1155q2 16 2 31q0 58 -36 98q-46 51 -120 51h-518q-37 0 -71.5 -14 t-62.5 -38.5t-46.5 -57.5t-24.5 -70l-184 -1155q-2 -15 -2 -29q0 -21 5 -41q9 -32 28.5 -57t49.5 -39t66 -14h506q8 -16 18.5 -45t10.5 -45h-618q-12 0 -31 -5.5t-37.5 -14.5t-32.5 -22.5t-16 -27.5zM264 172l185 1155q2 16 16 28.5t31 12.5h518q20 0 32 -12q10 -8 10 -21 q0 -4 -1 -8l-185 -1155v-10l-280 776q-6 16 -25.5 42t-48.5 26t-44 -26t-17 -42q-4 -16 -3 -31.5t7 -29.5l272 -746h-432q-16 0 -27 13q-8 10 -8 23v5z" />
<glyph unicode="R" d="M118 76q1 -19 7 -36t16.5 -28.5t28.5 -11.5t32.5 12.5t26 28.5t17.5 35.5t8 32.5l92 575h336q57 0 103 -21.5t77 -58.5q32 -37 44 -88q7 -30 7 -61q0 -23 -4 -47l-49 -299q-2 -12 -1 -32t7 -36t16.5 -28.5t28.5 -12.5t32.5 11.5t26 28.5t17.5 35.5t8 33.5l49 299 q5 32 5 62q0 48 -12 94q-19 74 -64 132q53 23 93 68t50 100l74 463q2 14 2 28q0 57 -34 99q-42 53 -116 53h-518q-37 0 -71.5 -13t-64.5 -37.5t-49.5 -57.5t-25.5 -72l-194 -1218q-1 -9 -1 -21v-12zM369 823l80 504q4 18 18 29.5t35 11.5h518q16 0 26 -12q9 -10 9 -24v-5 l-74 -455q-4 -23 -16.5 -36t-30.5 -13h-565z" />
<glyph unicode="S" d="M113 70v-7q0 -14 7 -25q9 -13 24.5 -21.5t33 -12.5t31.5 -4h588q35 0 69.5 14.5t64.5 39t50 57t27 69.5l73 463q2 14 2 26q0 59 -38 102q-46 52 -117 52h-518q-18 0 -28.5 13.5t-6.5 35.5l74 455q2 16 16 28.5t31 12.5h594q10 0 29.5 6t38 15.5t32.5 22.5t16 26v7 q0 13 -6 23q-8 12 -23.5 21.5t-33 13.5t-31.5 4h-594q-37 0 -71.5 -14t-62.5 -38.5t-46.5 -57.5t-24.5 -70l-73 -455q-3 -15 -3 -30q0 -20 5 -38q8 -34 28.5 -60.5t50 -43t66.5 -16.5h518q20 0 32.5 -11t8.5 -30l-74 -463q-4 -18 -18 -29.5t-35 -11.5h-588q-14 0 -32.5 -4 t-37 -13t-32.5 -21.5t-16 -30.5z" />
<glyph unicode="T" horiz-adv-x="987" d="M231 1434q1 -12 9 -24q10 -14 25.5 -23t32.5 -14t30 -5h268l-201 -1259q-2 -10 0 -29t7.5 -36t14.5 -30.5t21 -13.5q18 0 32.5 11.5t26 28.5t17.5 35.5t8 33.5l201 1259h268q12 0 30.5 6t37 15.5t33 22.5t16.5 26v6q0 12 -7 22q-9 12 -24.5 21.5t-33 14.5t-29.5 5h-664 q-14 0 -32.5 -4t-37.5 -12q-18 -7 -32 -21q-16 -16 -17 -36z" />
<glyph unicode="U" d="M133 188q-3 -17 -3 -33q0 -54 31 -98q40 -57 118 -57h518q37 0 72.5 15.5t65.5 41t49.5 59.5t25.5 72l192 1219q1 5 1 10q0 9 -2 19q-3 16 -9 32.5t-16.5 27.5t-24.5 11q-18 0 -32.5 -11t-25 -26.5t-17.5 -33t-9 -29.5l-193 -1219q-10 -49 -55 -49h-518q-18 0 -27.5 13.5 t-5.5 35.5l193 1219q2 10 -1 27.5t-9.5 34t-16.5 27.5t-24 11q-18 0 -33 -10t-25 -25.5t-17 -33t-9 -31.5z" />
<glyph unicode="V" horiz-adv-x="995" d="M238 1384l110 -1298q2 -33 22.5 -59.5t57.5 -26.5q35 0 68.5 21.5t50.5 54.5q43 86 75.5 174t69.5 174l242 571q12 31 39.5 93.5t58.5 132.5q29 68 53.5 128t28.5 85v8q0 18 -6 40q-8 28 -41 27q-29 0 -53.5 -31.5t-34.5 -56.5l-510 -1194l-98 1203q-2 23 -19.5 51 t-46.5 28q-35 0 -49 -26.5t-18 -44.5q-2 -14 -2 -28t2 -26z" />
<glyph unicode="W" horiz-adv-x="1658" d="M131 176q-2 -16 -2 -30q0 -58 38 -99q48 -51 122 -51h375q66 0 120 37q47 -37 109 -37h381q37 0 71.5 14.5t63.5 39t48.5 57t25.5 69.5l192 1219q1 9 1 21v12q-1 18 -7 34.5t-17.5 28.5t-29.5 12t-32.5 -12t-25 -28.5t-17.5 -35t-9 -32.5l-192 -1219q-4 -18 -18.5 -29.5 t-33.5 -11.5h-381q-16 0 -30.5 12.5t-12.5 22.5l195 1227q2 14 1 32.5t-6 35t-16.5 28.5t-29.5 12q-16 0 -30.5 -12t-25 -29.5t-16.5 -36t-8 -30.5l-193 -1221q-4 -16 -21.5 -28.5t-35.5 -12.5h-375q-42 0 -41 32v9l193 1219q2 14 1 32.5t-7 35t-16.5 28.5t-28.5 12t-34 -12 t-26 -28.5t-17 -35t-9 -32.5z" />
<glyph unicode="X" d="M118 76q1 -19 7 -36t16.5 -28.5t28.5 -11.5t32.5 12.5t26 28.5t17.5 35.5t8 32.5l74 456q8 49 47 84t86 35h377q48 0 76 -34q21 -26 22 -63q0 -11 -2 -22l-74 -456q-2 -12 -1 -32t7 -36t16.5 -28.5t28.5 -12.5t32.5 11.5t26 28.5t17.5 35.5t8 33.5l74 456q3 20 3 40 q0 33 -8 63q-13 50 -46 86q45 37 72.5 86t37.5 102l72 457q1 9 1 21v12q-1 18 -6 34.5t-15.5 28.5t-28.5 12t-32.5 -12t-26 -28.5t-18.5 -36t-9 -31.5l-72 -457q-8 -47 -44 -83t-83 -36h-389q-43 0 -71 37q-21 29 -20 62q0 10 1 20l72 457q2 12 1 31.5t-6 36t-15.5 28.5 t-28.5 12t-33 -12t-26 -28.5t-18 -35t-9 -32.5l-72 -457q-4 -23 -4 -45q0 -29 7 -57q13 -49 46 -86q-45 -37 -72.5 -86.5t-35.5 -102.5l-74 -456q-1 -9 -1 -21v-12z" />
<glyph unicode="Y" d="M252 942q-3 -21 -3 -41q0 -30 7 -58q12 -46 40 -82t70 -56.5t95 -20.5h125l-92 -575q-2 -14 -1 -33t7 -36t16 -28.5t29 -11.5q14 0 28.5 12.5t25.5 29.5t18.5 35.5t9.5 31.5l92 575h119q51 0 100 20.5t89 56.5t66.5 82t34.5 99l72 457q1 9 1 21v12q-1 18 -6 34.5 t-15.5 28.5t-28.5 12t-32.5 -12t-26 -28.5t-18.5 -36t-9 -31.5l-72 -457q-8 -49 -47 -84t-86 -35h-377q-47 0 -75 36q-23 28 -23 63q0 10 2 20l72 457q2 12 1 31.5t-6 36t-15.5 28.5t-28.5 12q-14 0 -28.5 -12t-27 -29.5t-20.5 -36t-10 -30.5z" />
<glyph unicode="Z" horiz-adv-x="1009" d="M35 76v-10q1 -36 27 -50q30 -16 59 -16h672q14 0 31.5 4t33.5 13.5t28.5 21.5t14.5 31q2 16 -5 29.5t-20.5 22.5t-30 13t-30.5 4h-590q223 324 444.5 646.5t448.5 650.5v7q0 15 -7 27q-9 14 -22.5 22.5t-29 11.5t-27.5 3h-672q-14 0 -31.5 -4t-33.5 -13t-29.5 -21.5 t-15.5 -30.5q-2 -16 8 -29.5t24.5 -23t30 -13.5t25.5 -4h596z" />
<glyph unicode="[" horiz-adv-x="405" d="M90 -76q-6 -35 1 -66.5t23.5 -57t43 -41t59.5 -15.5h62q25 0 62.5 17.5t43.5 52.5q4 33 -27.5 51t-56.5 18h-35q-23 0 -41 5.5t-14 35.5l260 1637q4 31 24.5 36t43.5 5h34q8 0 24.5 4t34 13t31 22.5t15.5 29.5q6 35 -25.5 52.5t-56.5 17.5h-61q-35 0 -66 -15.5t-55.5 -40 t-41 -57.5t-22.5 -67z" />
<glyph unicode="\" horiz-adv-x="911" d="M238 1446q-6 -39 4 -70l436 -1306q8 -16 26.5 -44t47.5 -28q33 0 45 21.5t16 41.5q4 35 -6 70l-434 1303q-10 25 -26.5 50t-47.5 25q-33 0 -45 -21.5t-16 -41.5z" />
<glyph unicode="]" horiz-adv-x="405" d="M-141 -186q-6 -35 25.5 -52.5t56.5 -17.5h61q33 0 63.5 15.5t56 41t42 57t22.5 66.5l260 1637q6 35 -1 67.5t-23 57t-43 40t-60 15.5h-61q-12 0 -28.5 -5t-34 -14.5t-29.5 -22.5t-14 -28q-2 -16 7 -29.5t23.5 -22.5t29.5 -13t24 -4h34q23 0 41.5 -5.5t14.5 -35.5 l-260 -1637q-4 -27 -20.5 -34t-45.5 -7q-14 0 -36.5 -2t-45 -9t-40 -21.5t-19.5 -36.5z" />
<glyph unicode="^" horiz-adv-x="741" d="M193 1077q-4 -18 6 -38.5t37 -20.5q23 0 51 23.5t43 39.5q41 47 76.5 94.5t76.5 94.5q12 14 24.5 27.5t22.5 25.5l132 -242q10 -23 21 -43t46 -20q29 0 43 22.5t19 40.5q6 41 -12.5 73t-37.5 65q-29 53 -57.5 105t-52.5 106q-10 25 -24.5 46t-49.5 21q-25 0 -50.5 -23.5 t-41.5 -39.5q-37 -43 -72 -87t-71 -87l-35 -40t-40.5 -48.5t-34.5 -49t-19 -45.5z" />
<glyph unicode="_" horiz-adv-x="909" d="M4 -8q-2 -10 8.5 -17.5t25.5 -13.5t31.5 -9t26.5 -3h596q10 0 28.5 3t37 9t32 13.5t15.5 17.5q2 12 -8.5 21.5t-26.5 15.5t-33.5 9t-29.5 3h-596q-12 0 -30 -3t-34 -9t-28.5 -15.5t-14.5 -21.5z" />
<glyph unicode="`" horiz-adv-x="561" d="M373 1456q-4 -18 4 -66.5t23.5 -97.5t34 -87t36.5 -38q27 0 39 21.5t16 38.5q2 16 -1 40.5t-9 50t-12 50.5t-12 41h20l-33 41q-8 18 -21.5 40.5t-35.5 22.5q-23 0 -34 -18t-15 -39z" />
<glyph unicode="a" horiz-adv-x="1019" d="M131 176q-2 -15 -2 -29q0 -21 5 -39q9 -32 30.5 -56.5t52.5 -38t66 -13.5h360q37 0 69.5 14.5t60.5 38t46.5 55t24.5 68.5l106 680q3 16 3 31q-1 52 -33 93q-42 52 -113 52h-436q-14 0 -33 -4t-36 -12t-31.5 -21.5t-16.5 -31.5q-2 -16 7 -28.5t24.5 -21t33 -12.5t29.5 -4 h436q18 0 31.5 -12.5t9.5 -28.5l-12 -86q-8 -47 -50 -77.5t-89 -30.5h-287q-37 0 -72.5 -14.5t-63.5 -40t-47.5 -58.5t-25.5 -70zM264 176l47 303q4 23 18.5 34t37.5 11h286q59 0 125 33l-59 -381q-4 -16 -20.5 -28.5t-34.5 -12.5h-361q-19 1 -31 13q-9 9 -9 20q0 4 1 8z " />
<glyph unicode="b" horiz-adv-x="1028" d="M131 180q-2 -15 -2 -29q0 -21 5 -41q9 -32 30.5 -56.5t52.5 -39t66 -14.5h360q35 0 70 14.5t63.5 39t49 57t26.5 69.5l109 692q2 14 2 28q1 22 -5 42q-10 33 -31.5 57.5t-52 39t-65.5 14.5h-287q-63 0 -125 -33l60 379q2 14 1 32.5t-6.5 35t-15.5 28.5t-28 12 q-14 0 -27.5 -12t-26 -29.5t-20.5 -36t-10 -30.5zM264 180l98 621q8 49 50.5 80.5t89.5 31.5h286q20 -1 32 -13q9 -9 8 -20q0 -4 -1 -8l-108 -692q-4 -18 -18.5 -29.5t-34.5 -11.5h-361q-21 -1 -33 11q-9 9 -9 22q0 4 1 8z" />
<glyph unicode="c" horiz-adv-x="937" d="M131 176q-3 -15 -3 -29q0 -19 5 -37q8 -32 28.5 -56.5t49.5 -39t63 -14.5h445q14 0 31.5 4t33 13.5t27.5 21.5t14 31q2 16 -5 28.5t-21.5 20.5t-30.5 12t-29 4h-444q-16 0 -25.5 12.5t-5.5 28.5l107 680q4 16 16 28.5t29 12.5h444q12 0 29.5 4t34 12.5t29 20.5t14.5 29 q1 6 1 11q0 27 -26 41q-31 17 -59 17h-445q-35 0 -68.5 -14t-61 -39t-46 -56.5t-24.5 -66.5z" />
<glyph unicode="d" horiz-adv-x="1028" d="M131 180q-2 -15 -2 -29q0 -21 5 -41q9 -32 30.5 -56.5t52.5 -39t66 -14.5h360q35 0 70 14.5t63.5 39t49 57t26.5 69.5l192 1219q1 6 1 13.5t-1 17.5q-2 18 -8 35.5t-15 29.5t-24 12q-18 0 -32.5 -12t-25.5 -28.5t-18.5 -35t-9.5 -32.5l-59 -377q-25 14 -52.5 22.5 t-56.5 8.5h-294q-35 0 -70 -14.5t-63.5 -39t-49 -57.5t-26.5 -70zM264 180l109 692q4 16 19.5 28.5t35.5 12.5h295q45 -1 73 -33q22 -25 23 -59q0 -10 -2 -20l-98 -621q-4 -18 -18.5 -29.5t-34.5 -11.5h-361q-21 -1 -33 11q-9 9 -9 22q0 4 1 8z" />
<glyph unicode="e" horiz-adv-x="1019" d="M131 176q-3 -16 -3 -31q0 -53 33 -93q42 -52 113 -52h437q14 0 32.5 4t36 12.5t30.5 21.5t15 32q2 16 -7 28.5t-24.5 20.5t-33 12t-29.5 4h-436q-18 0 -30.5 12.5t-8.5 28.5l25 162q8 47 50 77.5t89 30.5h295q37 0 70.5 15.5t61 42t45 59.5t23.5 68l35 225q2 14 2 27 q0 54 -34 96q-42 53 -111 53h-369q-37 0 -69.5 -14t-60 -38t-46 -55.5t-24.5 -68.5zM315 551l47 305q4 16 19.5 28.5t34.5 12.5h368q16 -1 26 -13q8 -9 8 -19q0 -4 -1 -9l-35 -225q-4 -20 -17 -33.5t-30 -13.5h-295q-63 0 -125 -33z" />
<glyph unicode="f" horiz-adv-x="843" d="M118 77q1 -20 7 -36t16.5 -28.5t26.5 -12.5q18 0 32.5 11.5t25 28.5t16.5 35.5t8 33.5l129 804h332q12 0 30.5 4.5t36 12.5t29.5 21.5t16 31.5q2 18 -6 30.5t-23.5 21.5t-33 13.5t-29.5 4.5h-332l45 274q2 16 15.5 28.5t29.5 12.5h367q10 0 28.5 6t36 15.5t32 22.5 t16.5 26v6q0 12 -7 22q-8 13 -23 22t-31.5 14t-28.5 5h-367q-35 0 -68.5 -14t-60.5 -38.5t-45.5 -57.5t-24.5 -70l-194 -1218q-1 -8 -1 -20v-12z" />
<glyph unicode="g" horiz-adv-x="1019" d="M25 -487v-7q0 -32 31 -46q34 -17 63 -17h436q39 0 73 15.5t60.5 42t44 60t23.5 70.5l194 1221q2 14 2 28q0 55 -32 98q-41 54 -113 54h-369q-35 0 -68.5 -15.5t-61 -40t-46 -57t-24.5 -67.5l-111 -692q-2 -14 -2 -28q0 -55 33 -98q41 -54 112 -54h295q57 0 119 28 l-61 -377q-4 -23 -16.5 -36t-28.5 -13h-437q-14 0 -32.5 -4t-36 -12t-31.5 -21.5t-16 -31.5zM260 160l111 692q4 16 16 28.5t29 12.5h368q16 0 26 -13q8 -9 8 -19q0 -5 -1 -9l-100 -629q-6 -47 -45 -75.5t-84 -28.5h-295q-16 0 -25 12q-8 10 -8 23v6z" />
<glyph unicode="h" horiz-adv-x="1019" d="M118 77q1 -20 7 -36t16.5 -28.5t26.5 -12.5q14 0 28.5 12.5t27 29.5t19.5 35.5t9 31.5l110 696q8 47 46 77.5t86 30.5h294q16 0 25.5 -12t5.5 -29l-121 -763q-2 -12 1 -31t9.5 -36t17 -29.5t24.5 -12.5q16 0 30.5 12.5t25.5 28.5t17 35.5t8 32.5l121 763q3 16 3 31 q0 20 -5 39q-8 33 -27.5 57.5t-48 39t-65.5 14.5h-295q-29 0 -58.5 -8.5t-58.5 -22.5l60 377q2 12 0 30.5t-8.5 36t-16.5 29.5t-24 12q-16 0 -31 -12t-26 -28.5t-18 -36t-9 -31.5l-205 -1290q-1 -8 -1 -20v-12z" />
<glyph unicode="i" horiz-adv-x="458" d="M113 114q6 -34 22.5 -60.5t43 -44t65.5 -17.5q10 0 27.5 4t35 13t30.5 24.5t17 40.5q6 37 -10 52t-37.5 22.5t-39 12.5t-15.5 21l115 723q2 12 0 31.5t-8.5 40t-16.5 35t-23 14.5q-18 0 -33.5 -13.5t-27.5 -32.5t-20.5 -39.5t-10.5 -35.5l-114 -723q-3 -18 -3 -34.5 t3 -33.5zM278 1206q2 -22 7.5 -42.5t17 -35t29.5 -14.5t33.5 13.5t28 33t20.5 40t12 36.5q1 7 1 15q0 10 -1 20q-2 20 -8 39.5t-17.5 33t-29.5 13.5t-33.5 -12.5t-28 -31t-20.5 -38.5q-9 -21 -11 -35q-2 -9 -1 -20q0 -7 1 -15z" />
<glyph unicode="j" horiz-adv-x="401" d="M-356 -492q0 -11 8 -20q10 -12 25.5 -20.5t32 -12.5t26.5 -4h211q72 0 126 54.5t64 125.5l209 1311q2 14 1 31.5t-6 33t-15.5 25.5t-26.5 10t-30.5 -10t-25 -25.5t-17.5 -33t-9 -31.5l-209 -1311q-2 -18 -15 -33.5t-26 -15.5h-211q-12 0 -30.5 -4t-36 -12t-30.5 -22 q-15 -15 -15 -36zM265 1218q1 -20 6 -36.5t15.5 -28.5t26.5 -12t30.5 11t25 28.5t17.5 36t9 33.5q1 9 1 20v12q-1 18 -6 35.5t-15 30t-27 12.5q-16 0 -30.5 -12.5t-25.5 -30t-17.5 -35.5t-8.5 -33q-1 -8 -1 -19v-12z" />
<glyph unicode="k" horiz-adv-x="1028" d="M119 109q-1 -4 -1 -9q0 -8 2 -20q3 -19 9 -36t16.5 -30.5t22.5 -13.5q16 0 31.5 12.5t26 28.5t17.5 35.5t9 32.5l57 354h342q47 0 74 -40q20 -30 20 -64q0 -11 -2 -23l-36 -227q-2 -12 0 -32t7 -36t16.5 -28.5t27.5 -12.5t30.5 12.5t24.5 29.5t17.5 35.5t9.5 31.5l37 227 q4 23 3 44q0 86 -57 148q45 37 75 88.5t40 104.5l35 229q1 9 1 20v12q-1 18 -6 33t-16.5 26.5t-27.5 11.5t-30.5 -11.5t-26 -27t-18.5 -32.5t-9 -32l-35 -229q-8 -47 -45 -87t-84 -40h-346l129 813q2 12 0 30.5t-8.5 36t-16.5 30t-26 12.5q-12 0 -25.5 -13.5t-26 -31 t-20.5 -36t-10 -28.5z" />
<glyph unicode="l" horiz-adv-x="436" d="M117 122q6 -34 22.5 -60.5t44 -44t64.5 -17.5q12 0 28.5 4t33 13.5t29.5 24.5t17 40q6 37 -10 52.5t-36.5 22.5t-39 12t-14.5 21l188 1194q1 6 1 14t-1 19q-2 21 -8 40.5t-15 34.5t-22 15q-18 0 -33.5 -13t-28.5 -32.5t-21.5 -41t-10.5 -36.5l-188 -1194q-3 -18 -3 -34.5 t3 -33.5z" />
<glyph unicode="m" horiz-adv-x="1495" d="M119 76q2 -18 8 -35.5t16.5 -29t28.5 -11.5q12 0 26.5 12.5t27 29.5t20.5 35.5t10 28.5l119 750q4 18 17.5 32.5t29.5 14.5h303q16 0 30.5 -13t12.5 -28l-115 -719q-2 -12 -2 -37q0 -23 5.5 -47t14.5 -41.5t25 -17.5q14 0 28.5 15.5t27 37t20.5 43t10 33.5l115 727 q4 16 21.5 31.5t35.5 15.5h303q16 0 29.5 -15.5t9.5 -31.5l-118 -750q-2 -10 0 -27.5t7 -34.5t14.5 -30.5t21.5 -13.5q18 0 32.5 11.5t25.5 28.5t18.5 35.5t9.5 30.5l118 750q3 17 3 33q0 54 -32 93q-42 50 -118 50h-303q-66 0 -121 -37q-47 37 -109 37h-303 q-37 0 -70.5 -14t-61 -38t-47 -55.5t-25.5 -68.5l-119 -750q-1 -6 -1 -13.5t1 -16.5z" />
<glyph unicode="n" horiz-adv-x="1028" d="M119 106q-1 -4 -1 -9q0 -7 2 -19q3 -18 9 -35.5t16.5 -30t22.5 -12.5q16 0 31.5 11.5t26 28.5t17.5 35.5t9 30.5l119 750q4 18 19.5 32.5t35.5 14.5h360q20 0 31.5 -14.5t7.5 -32.5l-118 -750q-2 -12 0 -30.5t7 -35.5t16.5 -28.5t27.5 -11.5q12 0 25.5 12.5t25.5 29.5 t20.5 35.5t10.5 28.5l118 750q2 15 2 29q0 21 -5 41q-9 32 -30.5 56t-51 37t-66.5 13h-361q-37 0 -71.5 -13t-63 -37t-48 -56.5t-25.5 -69.5z" />
<glyph unicode="o" horiz-adv-x="1019" d="M131 184q-2 -15 -2 -30q0 -55 30 -99q38 -55 115 -55h369q37 0 71 15.5t61.5 41t45 59.5t23.5 68l106 672q3 16 3 31q-1 52 -33 93q-42 52 -113 52h-369q-76 0 -132 -50t-68 -126zM256 184l106 672q4 16 21.5 31.5t34.5 15.5h368q16 -1 26 -15q7 -10 6 -22q0 -5 -1 -10 l-106 -672q-4 -20 -17.5 -34.5t-29.5 -14.5h-369q-19 1 -31 15q-9 11 -9 25q0 4 1 9z" />
<glyph unicode="p" horiz-adv-x="1019" d="M31 -446q-1 -7 -1 -15t1 -17q2 -18 7 -33t16.5 -26.5t27.5 -11.5t30.5 11.5t26 26.5t17.5 32.5t8 32.5l74 454q45 -28 102 -28h4h295q39 0 72.5 15t60.5 41.5t45.5 60.5t24.5 71l108 684q3 18 3 34q0 54 -31 94q-39 52 -115 52h-369q-37 0 -70.5 -14t-60 -39t-45 -57.5 t-24.5 -69.5zM274 246l97 606q4 20 17 34.5t30 14.5h368q16 0 30 -15q10 -12 10 -26q0 -4 -1 -8l-108 -684q-4 -20 -20.5 -34.5t-34.5 -14.5h-295q-49 0 -75 38q-20 29 -20 66q0 11 2 23z" />
<glyph unicode="q" horiz-adv-x="1028" d="M129 168q-3 -17 -3 -34q0 -56 33 -99q42 -55 120 -55h286q66 0 127 30l-74 -456q-2 -14 0.5 -32t8.5 -33t17.5 -26.5t27.5 -11.5q14 0 27.5 11.5t24.5 27.5t18.5 33.5t9.5 30.5l206 1298q3 17 3 32q0 57 -35 97q-45 51 -119 51h-361q-37 0 -71.5 -13t-63 -38t-48 -57.5 t-25.5 -71.5zM262 168l109 684q4 20 20.5 34.5t34.5 14.5h360q18 0 30 -15q10 -10 10 -25q0 -4 -1 -9l-96 -606q-8 -53 -49 -90t-92 -37h-287q-40 0 -40 38q0 5 1 11z" />
<glyph unicode="r" horiz-adv-x="847" d="M119 76q2 -18 8 -34.5t15.5 -29t25.5 -12.5t30.5 12.5t24.5 28.5t17.5 34.5t9.5 30.5l119 750q4 18 19 32.5t34 14.5h360q14 0 31.5 4t35 12.5t29.5 20.5q17 16 17 36q0 10 -8 20q-10 12 -25.5 20t-32 12t-26.5 4h-361q-35 0 -69.5 -13t-62 -37t-47 -56.5t-25.5 -69.5 l-119 -750q-1 -6 -1 -13.5t1 -16.5z" />
<glyph unicode="s" horiz-adv-x="1019" d="M113 70v-6q0 -14 7 -24q9 -12 23.5 -22t29.5 -14t26 -4h436q76 0 136 54.5t73 129.5l37 226q2 13 2 26q-1 24 -7 44q-10 32 -31.5 54.5t-51 36t-66.5 13.5h-360q-16 0 -29.5 15t-9.5 32l34 225q4 16 21.5 31.5t34.5 15.5h436q14 0 32.5 4t36 12.5t29.5 20.5q17 16 17 35 q-1 11 -9 21q-10 12 -26 20t-32.5 12t-27.5 4h-436q-76 0 -132 -50t-68 -126l-35 -225q-3 -18 -3 -34q0 -54 30 -92q40 -50 116 -50h361q20 0 32.5 -13.5t8.5 -31.5l-37 -226q-4 -23 -18.5 -36t-37.5 -13h-436q-27 0 -63.5 -15.5t-42.5 -49.5z" />
<glyph unicode="t" horiz-adv-x="681" d="M131 180q-2 -16 -2 -30q0 -53 28 -96q36 -54 107 -54q10 0 26.5 3t33 11.5t29 21.5t16.5 34q4 27 -9.5 40t-34 19t-49 13.5t-24.5 37.5l117 744h237q8 0 26.5 5t36 13t31.5 20q17 13 17 28q1 10 -7 22q-10 14 -23 23t-29.5 14.5t-28.5 5.5h-238l53 344q2 8 1 26.5t-6 37 t-13 31.5t-20 13q-16 0 -31 -12t-25 -28.5t-17 -36t-9 -31.5z" />
<glyph unicode="u" horiz-adv-x="1019" d="M131 184q-3 -16 -3 -32q0 -56 35 -98q44 -54 120 -54h360q37 0 72 15.5t61.5 41t44 58t23.5 69.5l119 750q1 5 1 11.5t-1 14.5q-2 16 -7.5 33t-14.5 28t-21 11q-16 0 -31 -10t-25 -25.5t-17 -33t-9 -29.5l-119 -750q-4 -20 -20.5 -34.5t-34.5 -14.5h-361q-40 0 -40 38 q0 5 1 11l119 750q2 14 1 30.5t-7 32t-17.5 25.5t-27.5 10t-30.5 -10t-25 -25.5t-17.5 -32t-9 -30.5z" />
<glyph unicode="v" horiz-adv-x="894" d="M156 915l157 -833q4 -29 24.5 -55.5t57.5 -26.5q39 0 64.5 20.5t42.5 53.5l424 841q2 4 6 23.5t6 26.5q2 10 2 22t-5 22.5t-14.5 17.5t-25.5 7q-29 0 -53.5 -26.5t-34.5 -49.5l-379 -753l-135 753q-4 20 -20.5 48t-49.5 28q-35 0 -47 -23.5t-16 -45.5q-2 -5 -4 -25 q-1 -10 -1 -16.5t1 -8.5z" />
<glyph unicode="w" horiz-adv-x="1503" d="M131 176q-2 -14 -2 -27q0 -21 6 -41q10 -32 31.5 -56.5t53.5 -38t67 -13.5h303q61 0 117 39q45 -39 110 -39h297q35 0 71 13.5t65.5 38t50 56t26.5 68.5l119 750q1 7 1 15q0 7 -1 17q-2 18 -8 35t-16.5 28t-28.5 11t-32.5 -11t-26 -27.5t-17.5 -35t-8 -32.5l-119 -750 q-4 -16 -20.5 -28.5t-34.5 -12.5h-297q-45 0 -41 35l121 756q2 14 -0.5 32.5t-8.5 35t-16 27.5t-29 11q-18 0 -32.5 -11t-25.5 -27.5t-18.5 -35t-9.5 -32.5l-119 -750q-4 -16 -18 -28.5t-31 -12.5h-303q-18 0 -30.5 12.5t-8.5 28.5l119 750q2 14 1 32.5t-7 35t-16.5 27.5 t-28.5 11q-14 0 -28.5 -12t-27 -29.5t-20.5 -35t-10 -29.5z" />
<glyph unicode="x" horiz-adv-x="1019" d="M118 76q1 -18 7 -35.5t16.5 -29t26.5 -11.5q14 0 28.5 12.5t27 29.5t19.5 34.5t9 29.5l37 226q8 47 42 80.5t81 33.5h237q47 0 71 -34q18 -25 17 -57q0 -11 -2 -23l-37 -226q-2 -12 1 -30.5t9.5 -34.5t17 -28.5t24.5 -12.5q16 0 30.5 11.5t25.5 28.5t17 35.5t8 30.5 l37 226q3 20 3 40q0 32 -8 61q-13 48 -46 83q45 35 73 83t36 101l37 226q1 8 1 19v11q-1 18 -7.5 36t-16.5 29t-27 11q-14 0 -28.5 -12t-26.5 -28.5t-19.5 -35t-9.5 -30.5l-36 -226q-8 -47 -42 -81.5t-81 -34.5h-230q-50 0 -76 34q-20 26 -20 60q0 11 2 22l37 226 q2 12 -1 29.5t-9 35t-16.5 29.5t-24.5 12q-16 0 -30.5 -11t-26 -28.5t-17.5 -36t-8 -30.5l-37 -226q-3 -20 -3 -40q0 -32 8 -61q13 -48 46 -83q-45 -35 -72.5 -83t-35.5 -101l-37 -226q-1 -8 -1 -19v-11z" />
<glyph unicode="y" horiz-adv-x="1019" d="M25 -487v-8q0 -29 27 -45q30 -17 59 -17h444q37 0 70.5 16.5t61.5 43t45.5 60.5t23.5 68l205 1293q1 8 1 19v13q-1 19 -6.5 35.5t-15.5 28.5t-27 12q-18 0 -32.5 -12t-25.5 -28.5t-18.5 -35t-9.5 -32.5l-110 -701q-6 -47 -45 -75.5t-84 -28.5h-295q-18 0 -30.5 12 t-10.5 29l121 764q2 10 0 28.5t-6.5 36t-13.5 30.5t-21 13q-16 0 -30.5 -12t-26 -28.5t-18.5 -36t-9 -31.5l-121 -764q-2 -15 -2 -29q0 -56 32 -98q40 -53 113 -53h295q57 0 119 28l-61 -377q-4 -23 -16.5 -36t-28.5 -13h-445q-29 0 -65.5 -17.5t-42.5 -51.5z" />
<glyph unicode="z" horiz-adv-x="839" d="M31 66v-6q0 -12 7 -22q9 -12 22.5 -21t29.5 -13t29 -4h512q12 0 29.5 4t34 13.5t28.5 21.5t14 31q2 16 -5 28.5t-21.5 20.5t-30.5 12t-29 4h-428q18 23 74.5 92.5t129.5 159.5t151.5 190.5t145.5 184.5t111 140t44 61v7q1 14 -5 24q-8 12 -21 21t-29.5 13t-28.5 4h-512 q-12 0 -32 -4t-37 -13t-31.5 -21.5t-16.5 -30.5q-2 -16 7 -28.5t24.5 -21t33 -12.5t29.5 -4h426l-631 -788q-10 -10 -16 -20.5t-8 -22.5z" />
<glyph unicode="{" horiz-adv-x="532" d="M121 770q-6 -33 24.5 -43t67.5 -21.5t65.5 -37t18.5 -86.5l-104 -658q-6 -35 2 -67.5t27.5 -57t47 -40t62.5 -15.5h65q12 0 30.5 4t36 13.5t31 22.5t17.5 30q4 35 -31 52t-61 17h-37q-23 0 -43.5 5.5t-15.5 35.5l104 658q10 55 -3 104t-44 88q43 37 70.5 86t35.5 103 l97 598q4 31 26.5 36t44.5 5h37q10 0 28.5 6t36 15t32 21.5t16.5 26.5q2 16 -6 29.5t-22.5 23t-32 13.5t-29.5 4h-66q-37 0 -69.5 -14.5t-59 -39t-44 -57.5t-23.5 -69l-97 -598q-10 -59 -46 -83t-75.5 -35t-73.5 -24.5t-40 -50.5z" />
<glyph unicode="|" horiz-adv-x="389" d="M81 -149.5q-1 -18.5 1 -37t8 -31.5t16 -13q8 0 18.5 13t19 31.5t14.5 37t8 28.5l276 1747q2 8 1 26.5t-4 37t-8 33t-13 14.5q-10 0 -20.5 -13.5t-17.5 -32t-12.5 -37t-7.5 -28.5l-276 -1747q-2 -10 -3 -28.5z" />
<glyph unicode="}" horiz-adv-x="532" d="M-141 -186q-4 -16 5 -29.5t23.5 -23t32 -13.5t29.5 -4h65q35 0 68 15.5t59.5 40t45 57t24.5 67.5l104 658q6 43 25.5 67.5t46.5 36.5t56.5 19.5t58.5 17.5q16 4 31.5 14.5t19.5 32.5q4 25 -9.5 38t-36 21.5t-48 15.5t-46 20.5t-32.5 36t-6 61.5l96 598q10 72 -29 126 t-110 54h-66q-12 0 -30.5 -4t-36 -13.5t-31.5 -22.5t-16 -30q-2 -14 8 -26.5t25.5 -21.5t31.5 -15t27 -6h37q23 0 43 -5.5t16 -35.5l-96 -598q-8 -53 5 -102.5t44 -86.5q-90 -80 -109 -192l-104 -658q-2 -16 -10.5 -25.5t-18.5 -12.5t-24 -3h-25q-16 0 -38.5 -2t-45 -9 t-40 -21.5t-19.5 -36.5z" />
<glyph unicode="~" horiz-adv-x="849" d="M205 1085q39 -31 80 -43t88 -12q14 0 37.5 1t48 4t49 8.5t41.5 11.5q35 14 71.5 23t73.5 9q53 0 97 -30q12 -4 19.5 -10.5t23.5 -6.5q27 0 45 25q2 37 -11.5 59.5t-37 37t-55.5 19.5t-62 5q-39 0 -77 -9.5t-77 -19.5t-77 -19.5t-76 -9.5q-37 0 -71 10.5t-65 43.5 q-16 -25 -34.5 -48.5t-30.5 -48.5z" />
<glyph unicode="&#xa1;" horiz-adv-x="389" d="M54 -225.5q1 -20.5 6.5 -41t13.5 -34.5t20 -14q10 0 22.5 15t23 35.5t18.5 41t10 30.5l147 924q2 10 0 30.5t-7 41t-13 36t-16 15.5q-10 0 -23.5 -15.5t-24 -36t-18.5 -41t-10 -30.5l-148 -924q-2 -12 -1 -32.5zM255 1045.5q1 -21.5 5 -43t12.5 -37t20.5 -15.5 q10 0 22.5 14.5t23.5 34t19.5 40t10.5 30.5q2 12 0 32.5t-6.5 40t-12.5 35t-18 15.5q-12 0 -25.5 -12.5t-24 -31t-17.5 -37.5t-9 -31.5t-1 -34z" />
<glyph unicode="&#xa2;" horiz-adv-x="966" d="M170 422q-10 -68 26.5 -119t100.5 -59l-47 -88l18 16q-4 -25 4.5 -52.5t44.5 -27.5q18 0 38 17.5t35.5 42t28.5 50t19 40.5h320q29 0 64.5 17t41.5 52q2 18 -5 30.5t-20.5 22t-29.5 13.5t-31 4h-276l372 770q16 0 38 1t42.5 8t35 21.5t18.5 39.5q6 31 -17.5 46t-52.5 19 q18 33 25 72q2 12 2 26t-4.5 26.5t-14.5 21t-31 8.5q-23 0 -40 -17.5t-32.5 -41t-26.5 -49t-17 -42.5h-320q-35 0 -68.5 -15t-61 -40t-46 -57.5t-24.5 -67.5zM303 422l109 688q4 16 16.5 28.5t28.5 12.5h276l-373 -770h-26q-16 0 -25.5 12.5t-5.5 28.5z" />
<glyph unicode="&#xa3;" horiz-adv-x="1177" d="M55 61q-2 -12 7.5 -23t24.5 -19.5t30.5 -13.5t25.5 -5h729q10 0 29 5t37 13.5t33.5 19.5t17.5 23q2 16 -8 28.5t-25.5 22t-33 14.5t-29.5 5h-477l76 473h350q29 0 65.5 17.5t42.5 52.5q2 18 -6 30.5t-21.5 21.5t-29.5 13t-31 4h-350l27 168h350q14 0 31.5 4.5t34 13.5 t28.5 21.5t16 30.5q2 16 -8 29.5t-24.5 22.5t-30.5 13.5t-25 4.5h-350l45 280q4 16 16.5 28.5t28.5 12.5h303q12 0 31 6t38 15.5t33.5 21.5t16.5 27q2 16 -8 28.5t-25.5 21.5t-33 14t-29.5 5h-303q-74 0 -132.5 -53t-70.5 -127l-45 -280h-113q-10 0 -29.5 -6.5t-38 -15.5 t-32.5 -22.5t-16 -25.5q-4 -23 13 -37t41.5 -22.5t51.5 -10.5t43 -2q14 0 27.5 1t29.5 1l-26 -168q-18 0 -55 1t-74 -5t-66.5 -20t-34.5 -45q-4 -23 14.5 -37t45 -22.5t54.5 -10.5t44 -2q12 0 24.5 1t26.5 1l-75 -473h-117q-14 0 -31.5 -4t-34 -13.5t-29 -22.5t-14.5 -30z " />
<glyph unicode="&#xa4;" horiz-adv-x="1191" d="M90 573q-4 -23 13.5 -37t41 -22t49 -10t42.5 -2h20q12 0 23 2l-52 -324q-6 -35 3.5 -67.5t30 -57t50 -40t64.5 -15.5h606q12 0 31.5 5t38 14.5t32 21.5t15.5 28.5t-7.5 29t-24.5 21.5t-32.5 14t-29.5 5h-607q-16 0 -26.5 11.5t-5.5 29.5l51 324h454q14 0 32 4t34 13 t28.5 21.5t14.5 30.5q2 16 -5 29.5t-20.5 23t-30 13.5t-30.5 4h-455l27 176h516q14 0 31.5 4t34 12.5t28.5 21.5t17 32q2 16 -8.5 29.5t-25 21.5t-30.5 12t-24 4h-517l60 371q4 18 16 29.5t29 11.5h606q10 0 29.5 6t38 15.5t33 22.5t16.5 26q2 16 -7.5 28.5t-24.5 21.5 t-32.5 14t-29.5 5h-607q-37 0 -71.5 -14t-62 -38.5t-46 -57.5t-24.5 -70l-60 -371h-31q-10 0 -29.5 -6t-38 -15t-32.5 -21.5t-16 -24.5q-4 -23 9 -37t33.5 -21.5t43.5 -10.5t39 -3l-27 -174q-18 0 -52 1t-68 -5t-60.5 -21.5t-30.5 -44.5z" />
<glyph unicode="&#xa5;" d="M188 289q-2 -18 7.5 -30.5t25 -22t33.5 -13.5t31 -4h227l-18 -110q-2 -14 -1 -33t7 -36t16 -28.5t29 -11.5q20 0 37.5 21.5t29 50t18.5 57.5t9 43q2 10 4 22.5t4 24.5h236q14 0 31.5 4t34 13.5t28.5 21.5t14 31q2 16 -5 29.5t-20.5 21.5t-29.5 12t-31 4h-237l14 93h238 q14 0 31.5 4t33.5 12t27.5 21.5t15.5 29.5q2 18 -7 30.5t-24.5 22t-32 13.5t-24.5 4h-238l17 98h119q51 0 100 20.5t89 56.5t66.5 82t34.5 99l72 457q2 14 1 32.5t-6 35t-15.5 28.5t-28.5 12t-32.5 -12t-26 -28.5t-18.5 -36t-9 -31.5l-72 -457q-8 -49 -47 -84t-86 -35h-377 q-47 0 -75.5 36t-20.5 83l72 457q2 12 1 31.5t-6 36t-15.5 28.5t-28.5 12q-14 0 -28.5 -12t-27 -29.5t-20.5 -36t-10 -30.5l-72 -457q-8 -53 4 -99t40 -82t70 -56.5t95 -20.5h125l-17 -98h-227q-10 0 -29.5 -6.5t-38 -15.5t-33 -21.5t-16.5 -26.5q-2 -16 7.5 -28.5 t24.5 -21.5t33.5 -13t31.5 -4h227l-14 -93h-228q-12 0 -31.5 -4t-38 -13t-33 -21.5t-16.5 -28.5z" />
<glyph unicode="&#xa6;" horiz-adv-x="380" d="M76 -154q0 -18 2 -36.5t7 -32t15 -13.5q6 0 15.5 14.5t16.5 33t13.5 37t6.5 26.5l98 617q2 8 2 24t-2 33.5t-7 31t-12 13.5q-10 0 -19 -12.5t-16.5 -28.5t-12.5 -33.5t-7 -27.5l-98 -617q-2 -10 -2 -29zM260 1016q0 -18 2 -36.5t7.5 -32t15.5 -13.5q6 0 14 14.5 t15.5 32.5t13.5 36.5t8 26.5l94 592v25q0 16 -2 33.5t-6 31t-10 13.5q-10 0 -19.5 -12.5t-17.5 -29t-12.5 -33.5t-6.5 -28l-94 -592q-2 -10 -2 -28z" />
<glyph unicode="&#xa7;" horiz-adv-x="1019" d="M70 -205q-4 -35 26.5 -52t59.5 -17h444q35 0 68.5 15t61.5 39.5t46.5 57.5t24.5 68l35 227q12 66 -23 117q49 51 61 119l35 229q6 35 -3 67.5t-28.5 57.5t-48 40t-63.5 15h-369q-18 0 -30.5 13.5t-8.5 33.5l35 228q4 16 20.5 28.5t35.5 12.5h436q12 0 30.5 5t36 14 t31.5 22.5t16 27.5q2 18 -6 31.5t-23.5 22t-32.5 12.5t-32 4h-436q-76 0 -132 -52.5t-69 -127.5l-35 -228q-4 -31 -0.5 -61.5t17.5 -54.5q-43 -49 -53 -111l-35 -229q-6 -37 1 -71t25.5 -59.5t47 -42t67.5 -16.5h369q16 0 25.5 -13t4.5 -34l-34 -227q-4 -16 -16.5 -28.5 t-28.5 -12.5h-445q-29 0 -65.5 -17.5t-42.5 -52.5zM287 369l35 229q4 16 19 28.5t34 12.5h368q16 0 26.5 -12.5t6.5 -28.5l-35 -229q-4 -20 -15 -35t-26 -15h-374q-18 0 -30.5 14.5t-8.5 35.5z" />
<glyph unicode="&#xa8;" horiz-adv-x="604" d="M305 1280q-4 -25 4 -56.5t41 -31.5q31 0 51.5 29.5t24.5 52t-7 53.5t-42 31q-16 0 -29.5 -9.5t-22 -21.5t-13.5 -25.5t-7 -21.5zM471 1280q-4 -25 4 -56.5t43 -31.5q29 0 49.5 29.5t24.5 52t-7.5 53.5t-39.5 31q-18 0 -30.5 -9.5t-22 -21.5t-14.5 -25.5t-7 -21.5z" />
<glyph unicode="&#xa9;" horiz-adv-x="1509" d="M131 178q-12 -74 31 -127t117 -53h849q35 0 70 15.5t62.5 40t47 57t25.5 67.5l180 1143q6 37 -2 70.5t-27.5 59.5t-49 42t-66.5 16h-850q-39 0 -73.5 -15t-62.5 -41t-46.5 -60.5t-24.5 -71.5zM260 178l180 1143q4 23 20.5 36t35.5 13h850q16 0 25 -13t5 -36l-180 -1143 q-4 -18 -16.5 -29.5t-28.5 -11.5h-850q-18 0 -31.5 12.5t-9.5 28.5zM397 442q-12 -76 30 -132t120 -56h467q12 0 30.5 5t37 14.5t32.5 22.5t16 28q2 18 -7 30.5t-24.5 21.5t-32.5 13t-32 4h-467q-20 0 -31.5 14.5t-7.5 34.5l105 656q4 16 21.5 31.5t33.5 15.5h467 q10 0 28.5 4t37 12t33 19.5t16.5 25.5q2 18 -6.5 30.5t-23.5 21t-32.5 12.5t-31.5 4h-467q-76 0 -135.5 -50t-71.5 -126z" />
<glyph unicode="&#xaa;" horiz-adv-x="768" d="M193 844q-10 -72 34.5 -122t114.5 -50h199q72 0 128 50t66 122l60 368q10 72 -30 122t-112 50h-272q-12 0 -30.5 -4t-36 -12t-31 -20.5t-15.5 -28.5q-4 -18 5.5 -30.5t23.5 -20.5t31.5 -12.5t31.5 -4.5h273q18 0 29.5 -13t7.5 -30q-6 -47 -47 -76.5t-88 -29.5h-125 q-37 0 -72 -14.5t-62.5 -39t-46 -57.5t-24.5 -69zM322 844l12 78q4 31 21.5 39t52.5 8q57 0 114.5 1.5t114.5 30.5l-25 -157q-2 -16 -17 -27.5t-34 -11.5h-199q-45 0 -40 39z" />
<glyph unicode="&#xab;" horiz-adv-x="935" d="M147 508q-4 -35 14.5 -50.5t41.5 -31.5q55 -33 103 -72t108 -69l4 6l8 -2q6 -2 18 -2q23 0 41.5 11t34.5 28q6 35 -6 51t-33 29q-41 27 -78.5 52t-78.5 52q29 14 69.5 36.5t78.5 48.5t66.5 50.5t30.5 40.5q4 27 -15 38t-38 11q-29 0 -56.5 -13t-49.5 -28 q-45 -29 -90.5 -53.5t-90.5 -50.5q-23 -12 -50 -36t-32 -46zM459 508q-4 -35 15.5 -50.5t41.5 -31.5q55 -33 103.5 -72t105.5 -69l6 6l8 -2q4 -2 19 -2q23 0 40 11t33 28q6 35 -6 51t-32 29q-39 27 -77 52t-79 52q27 14 67.5 36.5t79.5 48.5t67 50.5t30 40.5q4 27 -15.5 38 t-36.5 11q-31 0 -57.5 -13t-48.5 -28q-45 -29 -91 -53.5t-91 -50.5q-20 -12 -49 -36t-33 -46z" />
<glyph unicode="&#xad;" horiz-adv-x="724" d="M131 549q0 -8 10.5 -16.5t24.5 -14.5t28.5 -9t24.5 -3h330q8 0 26.5 3t36 9t31.5 14.5t14 16.5q2 12 -8 21.5t-25.5 15.5t-32 9t-28.5 3h-330q-12 0 -28.5 -3t-31.5 -9t-27.5 -15.5t-14.5 -21.5z" />
<glyph unicode="&#xae;" horiz-adv-x="1257" d="M190 551q-6 -35 3.5 -66.5t30 -56.5t50 -39t64.5 -14h598q37 0 70.5 14t61.5 38t47.5 55.5t25.5 68.5l119 754q10 74 -30 129t-118 55h-598q-37 0 -71.5 -15.5t-62.5 -41t-46.5 -59.5t-24.5 -68zM326 551l118 754q4 20 17.5 33.5t32.5 13.5h598q20 0 32.5 -14.5 t8.5 -32.5l-119 -754q-4 -16 -20.5 -27.5t-35.5 -11.5h-598q-16 0 -27 11.5t-7 27.5zM395 526h135l48 299h155q51 0 71.5 -27.5t22.5 -70.5q4 -49 -5 -100.5t-17 -100.5h127q4 37 10 83t9 93.5t-1 91t-18 76.5q35 27 54.5 64t25.5 76l22 147q12 76 -29.5 126t-117.5 50h-185 q-74 0 -135 -49t-73 -127zM598 961l31 196q4 20 19.5 34.5t33.5 14.5h184q16 0 30.5 -16.5t10.5 -32.5l-24 -156q-2 -16 -19.5 -28t-36.5 -12h-229z" />
<glyph unicode="&#xaf;" horiz-adv-x="868" d="M395 1386q0 -6 10.5 -13t25.5 -11t29.5 -7t22.5 -3h234q8 0 24.5 3t34 7t30.5 11t13 13q2 8 -9 15.5t-26.5 12.5t-32 8t-24.5 3h-233q-10 0 -26.5 -2t-32 -7t-27 -12t-13.5 -18z" />
<glyph unicode="&#xb0;" horiz-adv-x="692" d="M264 1202q-10 -70 28 -121t109 -51h111q35 0 66.5 14.5t57.5 39t43 55t23 63.5l23 144q10 68 -30 115.5t-107 47.5h-111q-70 0 -125 -47t-65 -116zM385 1202l23 144q2 14 17 28.5t32 14.5h110q14 0 24.5 -13.5t6.5 -29.5l-23 -144q-4 -18 -15 -30.5t-28 -12.5h-110 q-18 0 -29.5 13.5t-7.5 29.5z" />
<glyph unicode="&#xb1;" horiz-adv-x="1101" d="M131 170q-2 -12 7 -23.5t24.5 -19.5t31 -13t25.5 -5h590q10 0 28.5 5t37 13t34 19.5t17.5 23.5q2 14 -8.5 26.5t-25.5 21.5t-32.5 13.5t-30.5 4.5h-589q-29 0 -66 -16.5t-43 -49.5zM211 690q-2 -12 8 -23.5t25.5 -19.5t31 -13t25.5 -5h229l-36 -234q-2 -14 -2 -33 q0 -18 5 -34.5t15 -27.5t29 -11q18 0 32.5 11t25.5 27.5t18.5 35t9.5 32.5l37 234h229q8 0 26.5 5t37 13t33 19.5t16.5 23.5q2 14 -7.5 26.5t-25 22t-32.5 13.5t-30 4h-229l37 233q2 14 1 32.5t-6 35t-15.5 28t-28.5 11.5t-32.5 -11.5t-25 -28t-17.5 -34.5t-9 -33l-37 -233 h-230q-29 0 -65.5 -16.5t-42.5 -49.5z" />
<glyph unicode="&#xb2;" horiz-adv-x="870" d="M219 883q-10 -72 31 -123t112 -51h349q12 0 29.5 4t32.5 12t27.5 20.5t14.5 28.5q2 20 -6 33.5t-22.5 22t-30 11.5t-25.5 3h-348q-16 0 -28.5 11t-10.5 26v2q8 55 22.5 88t38 50t59.5 21.5t89 4.5q158 0 242 67.5t110 231.5q12 74 -29.5 123t-113.5 49h-348 q-27 0 -63 -16.5t-42 -49.5q-2 -18 7.5 -30.5t23.5 -21.5t28.5 -13.5t24.5 -4.5h348q18 0 29.5 -11t9.5 -28q-10 -55 -23.5 -87.5t-36 -50t-58 -21.5t-89.5 -4q-80 0 -140 -14.5t-103 -49.5t-70 -91t-41 -142z" />
<glyph unicode="&#xb3;" horiz-adv-x="831" d="M164 772q-4 -16 5 -28.5t24.5 -20.5t33 -12t29.5 -4h350q37 0 71 14t61.5 38.5t47 57.5t25.5 70q10 61 -4 124.5t-64 100.5q61 35 94 99.5t44 123.5q12 74 -32 123t-116 49h-350q-12 0 -30.5 -4t-36 -12t-31 -20.5t-15.5 -28.5q-4 -16 6.5 -28.5t24.5 -21t30.5 -13.5 t28.5 -5h351q45 0 39 -41q-8 -51 -31 -80.5t-56.5 -46t-76.5 -21.5t-88 -5q-18 0 -51 2t-66 -3t-58.5 -19.5t-31.5 -45.5q-6 -41 23.5 -53t75.5 -14.5t102 -2.5q55 0 100 -12t71.5 -47t14.5 -106q-4 -16 -18.5 -27.5t-32.5 -11.5h-351q-14 0 -32.5 -4.5t-34.5 -12.5 t-29.5 -20t-15.5 -31z" />
<glyph unicode="&#xb4;" horiz-adv-x="561" d="M289 1176q-4 -20 2 -39t31 -19q23 0 47 23.5t37 44.5l129 207q8 14 13 27.5t7 29.5q4 18 -2 39.5t-35 21.5q-18 0 -40.5 -23.5t-43 -54t-39 -62.5t-28.5 -46q-27 -41 -48.5 -69.5t-29.5 -79.5z" />
<glyph unicode="&#xb5;" horiz-adv-x="1019" d="M61 -285q-2 -12 0 -29.5t8.5 -35t16.5 -29.5t25 -12q12 0 25.5 13t24.5 30.5t18 35t9 27.5l43 275q25 -6 50 -6h360q39 0 73 15t60.5 42t44 60.5t23.5 70.5l121 760q2 10 0 26.5t-7.5 33t-14.5 28.5t-21 12q-18 0 -32 -10t-25 -25.5t-17 -33t-8 -31.5l-121 -760 q-4 -23 -18.5 -36t-34.5 -13h-361q-47 0 -41 49l121 760q2 14 1 31.5t-7 33t-17.5 25.5t-27.5 10t-30.5 -10t-25 -25.5t-17.5 -33t-9 -31.5z" />
<glyph unicode="&#xb6;" horiz-adv-x="1028" d="M174 446q-12 -78 30 -133t120 -55h147l-68 -424q-2 -16 3.5 -34.5t16.5 -35t27.5 -27.5t34.5 -11t36 12t31 28.5t23.5 36t12.5 31.5l213 1340q33 -4 51 -19.5t12 -50.5l-200 -1272q-2 -14 -1 -31.5t7 -33t17.5 -26.5t27.5 -11q14 0 27.5 11t25.5 27.5t19.5 34t9.5 29.5 l204 1298q12 78 -32.5 129.5t-118.5 51.5h-361q-37 0 -71.5 -13.5t-63 -38t-48 -57.5t-25.5 -72z" />
<glyph unicode="&#xb7;" horiz-adv-x="305" d="M143 588q0 -16 3.5 -32.5t10.5 -28t21 -11.5q12 0 23.5 10.5t20.5 25.5t14.5 31.5t7.5 29t2 28.5t-4 31.5t-12.5 26t-20.5 10.5t-23.5 -10.5t-19.5 -25t-13.5 -29.5t-7.5 -26q-2 -12 -2 -30z" />
<glyph unicode="&#xb8;" horiz-adv-x="937" d="M219 -379q-6 -35 23.5 -50t56.5 -15h96q33 0 65 13t56.5 36.5t41.5 53.5t22 62l8 41q10 70 -29 113t-98 53q8 33 12 60.5t0 62.5h-115l-34 -215h8q8 -27 35 -31q16 -4 34.5 -3t34 -2t23.5 -13t4 -39q-4 -23 -11.5 -43t-35.5 -20q-18 0 -49 1t-63 -3.5t-56.5 -17.5 t-28.5 -44z" />
<glyph unicode="&#xb9;" horiz-adv-x="460" d="M244 1442q-4 -16 5 -29.5t22.5 -22t27.5 -12.5t23 -4q16 0 28 -11t8 -28l-82 -522q-2 -12 -2 -31q0 -18 5.5 -34.5t13.5 -28.5t24 -12q12 0 23.5 13t21 30.5t15.5 35t8 27.5l82 522q10 68 -20.5 120t-98.5 52q-12 0 -28.5 -4t-33 -13t-28.5 -21.5t-14 -26.5z" />
<glyph unicode="&#xba;" horiz-adv-x="692" d="M180 653q-2 -12 7.5 -23.5t22.5 -18.5t27.5 -12t24.5 -5h250q8 0 25.5 5t35 12t31.5 18.5t17 23.5q2 14 -7.5 26.5t-24 22t-29.5 13.5t-28 4h-249q-12 0 -29.5 -4t-33 -12.5t-27 -20.5t-13.5 -29zM233 1012q-10 -72 26 -126.5t110 -54.5h110q35 0 68 15.5t58.5 41 t43 57.5t23.5 67l24 147q10 70 -28.5 121t-108.5 51h-110q-72 0 -126.5 -50t-64.5 -122zM354 1012l25 147q2 16 17.5 31.5t31.5 15.5h111q16 0 24 -15.5t6 -31.5l-24 -147q-4 -20 -15.5 -33.5t-27.5 -13.5h-111q-18 0 -29.5 14t-7.5 33z" />
<glyph unicode="&#xbb;" horiz-adv-x="935" d="M119 326q10 -16 24.5 -27.5t36.5 -11.5q14 0 19 2l8 2l6 -6q68 29 128 67.5t126 73.5q26 13 49 29q27 20 33 53q4 20 -17.5 45t-52 48.5t-61.5 43t-45 29.5q-29 20 -54.5 40.5t-66.5 20.5q-14 0 -39 -11t-29 -36q-4 -18 16.5 -42.5t51.5 -49.5t64.5 -47.5t58.5 -36.5 l-174 -96q-25 -14 -50.5 -29.5t-29.5 -46.5zM430 326q10 -16 25.5 -27.5t38.5 -11.5q12 0 18 2l8 2l4 -6q68 29 129.5 67.5t126.5 73.5q12 6 24.5 12.5t22.5 16.5q27 20 33 53q4 20 -17.5 45t-51 48.5t-61.5 43t-46 29.5q-29 20 -54.5 40.5t-64.5 20.5q-16 0 -40.5 -11 t-28.5 -36q-4 -18 16 -42.5t51 -49.5t65 -47.5t58 -36.5l-172 -96q-25 -14 -51.5 -29.5t-30.5 -46.5z" />
<glyph unicode="&#xbc;" horiz-adv-x="1329" d="M53 61q-4 -18 4.5 -40.5t32.5 -22.5q31 0 58.5 26.5t39.5 45.5l861 1304q4 10 10 17.5t10 15.5q10 18 12 39q4 18 -5 40.5t-38 22.5t-54.5 -27.5t-41.5 -49.5q-217 -319 -428 -638t-422 -642q-14 -23 -24.5 -42.5t-14.5 -48.5zM242 1438q-2 -12 8 -25.5t26.5 -23 t34 -15.5t27.5 -6q20 0 34.5 -12.5t12.5 -28.5l-86 -539q-2 -14 -1 -33.5t6 -36t16.5 -28.5t29.5 -12q12 0 25.5 13.5t25 31.5t18.5 36.5t9 28.5l86 539q12 78 -30 129t-119 51q-12 0 -33 -4t-39.5 -13t-33.5 -22.5t-17 -29.5zM612 504q-12 -76 33 -131.5t123 -55.5h121 l-33 -206q-2 -10 -1 -29t6 -36t14.5 -30.5t23.5 -13.5q18 0 33.5 11.5t27 28.5t18.5 35.5t9 33.5l33 206h102q14 0 33 4.5t36 12.5t30.5 21.5t17.5 31.5q2 18 -7 30.5t-24.5 20.5t-33 12.5t-31.5 4.5h-103l21 131q2 10 0 25.5t-8 30.5t-16.5 26.5t-28.5 11.5t-35 -22.5 t-29 -52.5t-19 -59.5t-10 -41.5l-6 -49h-121q-43 0 -36 49l34 217q2 14 1 33.5t-7 36t-17 28.5t-30 12q-14 0 -28.5 -13t-26.5 -30.5t-20.5 -36t-10.5 -30.5z" />
<glyph unicode="&#xbd;" horiz-adv-x="1306" d="M53 61q-4 -18 4.5 -40.5t32.5 -22.5q31 0 58.5 26.5t39.5 45.5l859 1304q6 10 12 17.5t10 15.5q10 18 12 39q4 18 -5 40.5t-38 22.5q-33 0 -56.5 -26.5t-39.5 -50.5q-217 -319 -428 -638t-422 -642q-14 -23 -24.5 -42.5t-14.5 -48.5zM242 1438q-2 -12 8 -25.5t26.5 -23 t34 -15.5t27.5 -6q20 0 34.5 -12.5t12.5 -28.5l-86 -539q-2 -14 -1 -33.5t6 -36t15.5 -28.5t28.5 -12q14 0 27.5 13.5t25 31.5t18.5 36.5t9 28.5l86 539q12 78 -30 129t-119 51q-12 0 -33 -4t-39.5 -13t-33.5 -22.5t-17 -29.5zM541 182q-12 -78 30.5 -130t120.5 -52h363 q14 0 31.5 4t34 13.5t28.5 21.5t14 31q2 16 -5 29.5t-20.5 22.5t-29.5 13t-31 4h-362q-18 0 -32.5 12.5t-10.5 28.5v2q8 57 23.5 91t40 50.5t62.5 21.5t93 5q162 0 250 68.5t116 238.5q12 78 -28.5 129.5t-118.5 51.5h-362q-14 0 -33 -4.5t-36 -13.5t-30.5 -21.5 t-15.5 -30.5q-2 -14 7 -27.5t24.5 -22.5t32 -14.5t28.5 -5.5h362q16 0 29.5 -13t11.5 -30q-10 -57 -23 -91t-38 -50t-61.5 -21.5t-92.5 -5.5q-84 0 -146 -15t-108.5 -50t-75 -93.5t-42.5 -146.5z" />
<glyph unicode="&#xbe;" horiz-adv-x="1681" d="M172 748q-4 -18 6 -32t25.5 -22t33 -12t31.5 -4h369q39 0 75 15.5t64.5 41t49 59t26.5 72.5q10 63 -4 128t-64 102q63 37 97 104.5t45 126.5q12 78 -34 129t-122 51h-369q-14 0 -33.5 -4t-38 -12t-32.5 -21.5t-16 -31.5q-2 -14 8 -27.5t26.5 -23t34 -14.5t29.5 -5h369 q23 0 34 -11t6 -32q-8 -53 -32.5 -84t-60.5 -47t-81 -21.5t-92 -5.5q-20 0 -54 2t-68.5 -3t-61.5 -19t-33 -47q-6 -41 24.5 -53.5t81 -14.5t107.5 -1t105.5 -12t76 -50t15.5 -111q-2 -16 -18.5 -28.5t-37.5 -12.5h-368q-14 0 -32.5 -4t-37 -12t-33 -21.5t-16.5 -31.5z M393 61q-4 -18 4.5 -40.5t32.5 -22.5q31 0 59.5 25.5t40.5 46.5l867 1304q6 10 11 17.5t9 15.5q10 18 13 39q4 18 -5.5 40.5t-38.5 22.5t-55 -27.5t-41 -49.5q-221 -319 -432 -638t-426 -642q-14 -23 -24.5 -42.5t-14.5 -48.5zM958 504q-12 -78 34 -132.5t124 -54.5h121 l-33 -206q-2 -10 -1 -29t7.5 -36t15.5 -30.5t21 -13.5q18 0 33.5 11.5t27 28.5t18.5 35.5t9 33.5l33 206h105q14 0 32.5 4.5t37 12.5t31.5 21.5t17 31.5q2 18 -7 30.5t-24.5 20.5t-34 12.5t-32.5 4.5h-104l20 131q2 10 0 25.5t-8 30.5t-16.5 26.5t-28.5 11.5t-34.5 -23.5 t-28 -54.5t-18.5 -60.5t-9 -41.5q-2 -10 -4 -22.5t-5 -22.5h-120q-47 0 -41 49l34 217q2 14 1 33.5t-7 36t-17 28.5t-30 12q-14 0 -28.5 -12t-26.5 -30.5t-19.5 -37t-9.5 -30.5z" />
<glyph unicode="&#xbf;" d="M80 -139q-12 -78 34 -129t119 -51h588q14 0 32.5 4t37 13t32 21.5t17.5 30.5q2 12 -9 25.5t-26.5 22.5t-33 15.5t-27.5 6.5h-588q-20 0 -32.5 11t-8.5 30l49 307q4 20 20.5 34.5t34.5 14.5h289q37 0 72 13.5t64.5 37t49 55t25.5 70.5l49 307q2 14 1 33t-7 36t-17 29.5 t-28 12.5q-16 0 -30.5 -12.5t-25.5 -29.5t-18.5 -36.5t-9.5 -32.5l-49 -307q-2 -18 -18.5 -32.5t-36.5 -14.5h-289q-37 0 -72 -13.5t-63.5 -37t-49 -56t-26.5 -71.5zM792 1046.5q1 -18.5 7 -36t16.5 -29.5t26.5 -12q18 0 32.5 11t25.5 27.5t18.5 34t9.5 31.5t2 33 q0 20 -6 38.5t-17.5 31t-29.5 12.5q-16 0 -31 -12.5t-26 -29t-18 -35.5t-9 -32q-2 -14 -1 -32.5z" />
<glyph unicode="&#xc0;" d="M120 77q1 -20 6 -36t15.5 -28.5t28.5 -12.5t32.5 12.5t26 29.5t18.5 35.5t9 33.5l92 581h606l-92 -581q-2 -14 -1 -33t6 -36t15.5 -29.5t28.5 -12.5q14 0 28.5 12.5t27 30.5t20.5 36.5t10 31.5l195 1230q12 78 -34 130.5t-120 52.5h-518q-37 0 -71.5 -14.5t-62.5 -40 t-46 -58.5t-25 -70l-194 -1230q-2 -14 -1 -34zM369 831l82 510q2 16 15 29.5t32 13.5h518q20 0 32.5 -12.5t8.5 -30.5l-82 -510h-606zM678 1950q-6 -35 6 -66l80 -233q6 -23 25.5 -49.5t46.5 -26.5q33 0 45 22.5t16 40.5q4 29 2 50.5t-9 40t-16.5 37t-17.5 42.5 q-6 16 -16.5 51t-23.5 70t-30.5 61.5t-40.5 26.5q-29 0 -46 -22.5t-21 -44.5z" />
<glyph unicode="&#xc1;" d="M120 77q1 -20 6 -36t15.5 -28.5t28.5 -12.5t32.5 12.5t26 29.5t18.5 35.5t9 33.5l92 581h606l-92 -581q-2 -14 -1 -33t6 -36t15.5 -29.5t28.5 -12.5q14 0 28.5 12.5t27 30.5t20.5 36.5t10 31.5l195 1230q12 78 -34 130.5t-120 52.5h-518q-37 0 -71.5 -14.5t-62.5 -40 t-46 -58.5t-25 -70l-194 -1230q-2 -14 -1 -34zM369 831l82 510q2 16 15 29.5t32 13.5h518q20 0 32.5 -12.5t8.5 -30.5l-82 -510h-606zM696 1638q-4 -18 3.5 -40.5t37.5 -22.5q27 0 53.5 26.5t43.5 49.5l153 233q20 35 27 66q4 23 -6.5 45t-40.5 22q-23 0 -48.5 -26.5 t-50 -61.5t-45 -69.5t-32.5 -51.5q-33 -47 -59.5 -79.5t-35.5 -90.5z" />
<glyph unicode="&#xc2;" d="M120 77q1 -20 6 -36t15.5 -28.5t28.5 -12.5t32.5 12.5t26 29.5t18.5 35.5t9 33.5l92 581h606l-92 -581q-2 -14 -1 -33t6 -36t15.5 -29.5t28.5 -12.5q14 0 28.5 12.5t27 30.5t20.5 36.5t10 31.5l195 1228q12 78 -34 129.5t-120 51.5h-518q-37 0 -71.5 -14.5t-62.5 -39 t-46 -57.5t-25 -70l-194 -1228q-2 -14 -1 -34zM369 831l82 508q2 18 15 29.5t32 11.5h518q20 0 32.5 -10.5t8.5 -30.5l-82 -508h-606zM543 1624q-4 -18 4 -40.5t37 -22.5q20 0 53 28.5t65.5 67.5t61.5 77t41 56l78 -166q10 -23 21 -47.5t44 -24.5q29 0 46.5 22.5t21.5 43.5 q2 12 1 24.5t1 28.5l-107 232q-10 27 -24.5 49t-48.5 22q-27 0 -54.5 -25.5t-44.5 -45.5q-29 -35 -55.5 -72t-54.5 -72q-27 -31 -53.5 -62.5t-32.5 -72.5z" />
<glyph unicode="&#xc3;" horiz-adv-x="1175" d="M120 77q1 -20 6 -36t15.5 -28.5t28.5 -12.5t32.5 12.5t26 29.5t18.5 35.5t9 33.5l90 577h606l-90 -577q-2 -14 -1 -33t6 -36t15.5 -29.5t28.5 -12.5q14 0 28.5 12.5t27 30.5t20.5 36.5t10 31.5l193 1224q12 78 -34 129.5t-120 51.5h-518q-37 0 -71.5 -14.5t-62.5 -39 t-46.5 -57.5t-24.5 -70l-192 -1224q-2 -14 -1 -34zM369 827l80 508q6 41 47 41h518q20 0 32.5 -10.5t8.5 -30.5l-80 -508h-606zM588 1655q14 -35 37.5 -55.5t64.5 -20.5q37 0 65.5 12.5t52 26.5t43 26.5t38.5 12.5q25 0 37 -39q16 -8 20 -15.5t27 -17.5q16 17 20 23 q12 16 13 22q4 23 5 53.5t-14 53.5q-12 20 -36.5 35.5t-51.5 15.5q-31 0 -53 -12.5t-43.5 -27.5t-42 -27.5t-47.5 -12.5t-41 24.5t-31 84.5q-23 -61 -38 -95t-25 -67z" />
<glyph unicode="&#xc4;" d="M120 77q1 -20 6 -36t15.5 -28.5t28.5 -12.5t32.5 12.5t26 29.5t18.5 35.5t9 33.5l90 577h606l-90 -577q-2 -14 -1 -33t6 -36t15.5 -29.5t28.5 -12.5q14 0 28.5 12.5t27 30.5t20.5 36.5t10 31.5l193 1224q12 78 -34 129.5t-120 51.5h-518q-37 0 -71.5 -14.5t-62.5 -39 t-46.5 -57.5t-24.5 -70l-192 -1224q-2 -14 -1 -34zM369 827l80 508q6 41 47 41h518q20 0 32.5 -10.5t8.5 -30.5l-80 -508h-606zM645 1649q0 -18 6 -37t17.5 -31t29.5 -12q16 0 30.5 11t26 28.5t18.5 36t9 30.5q2 14 1 34t-7 37t-16 29.5t-27 12.5q-16 0 -31.5 -11.5 t-26.5 -27.5t-18.5 -33.5t-9.5 -32t-2 -34.5zM838 1649q0 -18 4 -37t15.5 -31t29.5 -12t32.5 11t26.5 27.5t19.5 35t9.5 33t1 34t-7 36.5t-17.5 29.5t-29.5 12.5q-16 0 -30.5 -11.5t-25 -27.5t-17.5 -33.5t-9 -32t-2 -34.5z" />
<glyph unicode="&#xc5;" d="M120 77q1 -20 6 -36t15.5 -28.5t28.5 -12.5t32.5 12.5t26 29.5t18.5 35.5t9 33.5l92 581h606l-92 -581q-2 -14 -1 -33t6 -36t15.5 -29.5t28.5 -12.5q14 0 28.5 12.5t27 30.5t20.5 36.5t10 31.5l195 1228q12 78 -34 129.5t-120 51.5h-518q-37 0 -71.5 -14.5t-62.5 -39 t-46 -57.5t-25 -70l-194 -1228q-2 -14 -1 -34zM369 831l82 508q2 16 16 28.5t31 12.5h518q45 0 41 -41l-82 -508h-606zM629 1722q-12 -76 27.5 -132t117.5 -56h45q37 0 72 16.5t62.5 43t46 60.5t24.5 68l10 58q10 74 -31.5 127t-115.5 53h-45q-76 0 -134.5 -52.5 t-68.5 -127.5zM756 1722l10 58q2 16 19.5 32.5t33.5 16.5h45q16 0 27.5 -15.5t7.5 -33.5l-10 -58q-4 -20 -17.5 -34.5t-31.5 -14.5h-45q-18 0 -30.5 14.5t-8.5 34.5z" />
<glyph unicode="&#xc6;" horiz-adv-x="1902" d="M118 76q1 -19 7 -36t17.5 -28.5t29.5 -11.5t33.5 11.5t27 28.5t17.5 35.5t8 33.5l92 575h627l-82 -514q-14 -92 30 -131t130 -39h614q14 0 32.5 4t36 13.5t30 21.5t14.5 30.5t-6.5 31t-21.5 21.5t-30.5 13t-31.5 4h-615q-14 0 -29.5 9.5t-13.5 15.5l82 520h506 q14 0 32.5 4t37 13.5t32 21.5t15.5 30.5t-6.5 31t-23.5 21.5t-32.5 13t-31.5 4h-506q20 129 38.5 258t41.5 258q0 6 19 17.5t34 11.5h614q12 0 30.5 5t36 14.5t31 22.5t15.5 28q2 18 -6 30.5t-21.5 21.5t-31 13t-31.5 4h-615q-68 0 -123 -39q-51 39 -112 39h-537 q-37 0 -71.5 -14t-63.5 -38.5t-48.5 -57.5t-25.5 -70l-194 -1218q-2 -14 -1 -33zM373 823l80 504q2 16 16 28.5t31 12.5h536q23 0 35 -11.5t8 -29.5l-80 -504h-626z" />
<glyph unicode="&#xc7;" horiz-adv-x="1083" d="M129 168q-6 -37 3 -69.5t28.5 -57.5t49.5 -39t66 -14h181l-21 -125h8q10 -23 29 -29t37 -10h29q16 0 28.5 -3t19.5 -11.5t5 -26.5q-2 -12 -4 -27.5t-7.5 -29t-15.5 -22.5t-28 -9t-53 1t-70 -4t-61.5 -19.5t-33.5 -47.5q-4 -18 4.5 -30.5t22.5 -21.5t30.5 -13t31.5 -4h108 q35 0 70 15t62.5 39.5t47 57.5t25.5 68l6 47q12 76 -32 122t-107 56l4 27h278q14 0 33 4t37 13t31.5 21.5t15.5 30.5q2 16 -7 28.5t-24.5 22t-33 14.5t-29.5 5h-594q-16 0 -27.5 12.5t-7.5 28.5l185 1159q2 16 16 28.5t31 12.5h594q10 0 29.5 6t38 15.5t32.5 21.5t16 27 q2 16 -6 29.5t-23.5 22.5t-33 13t-31.5 4h-594q-37 0 -71.5 -14t-62.5 -38.5t-46.5 -57.5t-24.5 -70z" />
<glyph unicode="&#xc8;" d="M131 180q-12 -74 31 -127t114 -53h596q14 0 32 4t34 13.5t28.5 21.5t14.5 30.5t-5 31t-20.5 21.5t-30 13t-30.5 4h-596q-16 0 -30.5 12.5t-10.5 28.5l82 512h491q14 0 33 4t36.5 12.5t29.5 21.5t16 32q2 18 -6 30.5t-23.5 21.5t-33 13t-31.5 4h-492l82 510 q2 16 19.5 29.5t34.5 13.5h596q8 0 25.5 4.5t34.5 12.5t31.5 21.5t16.5 32t-5 30.5t-20.5 21.5t-30 13.5t-30.5 4h-596q-78 0 -134 -52.5t-69 -130.5zM678 1950q-6 -35 6 -66l80 -233q6 -23 25.5 -49.5t46.5 -26.5q33 0 45 22.5t16 40.5q4 29 2 50.5t-9 40t-16.5 37 t-17.5 42.5q-6 16 -16.5 51t-23.5 70t-30.5 61.5t-40.5 26.5q-31 0 -47 -22.5t-20 -44.5z" />
<glyph unicode="&#xc9;" d="M131 180q-12 -74 31 -127t114 -53h596q14 0 32 4t34 13.5t28.5 21.5t14.5 30.5t-5 31t-20.5 21.5t-30 13t-30.5 4h-596q-16 0 -30.5 12.5t-10.5 28.5l82 512h491q14 0 33 4t36.5 12.5t29.5 21.5t16 32q2 18 -6 30.5t-23.5 21.5t-33 13t-31.5 4h-492l82 510 q2 16 19.5 29.5t34.5 13.5h596q8 0 25.5 4.5t34.5 12.5t31.5 21.5t16.5 32t-5 30.5t-20.5 21.5t-30 13.5t-30.5 4h-596q-78 0 -134 -52.5t-69 -130.5zM696 1638q-4 -18 2.5 -40.5t38.5 -22.5q27 0 53.5 26.5t43.5 49.5l153 233q20 35 27 66q4 23 -6.5 45t-40.5 22 q-23 0 -48.5 -26.5t-50 -61.5t-45 -69.5t-32.5 -51.5q-33 -47 -59.5 -79.5t-35.5 -90.5z" />
<glyph unicode="&#xca;" d="M131 180q-12 -74 31 -127t114 -53h596q14 0 32 4t34 13.5t28.5 21.5t14.5 30.5t-5 31t-20.5 21.5t-30 13t-30.5 4h-596q-16 0 -30.5 12.5t-10.5 28.5l82 512h491q14 0 33 4t36.5 12.5t29.5 21.5t16 32q2 18 -6 30.5t-23.5 21.5t-33 13t-31.5 4h-492l82 508 q2 16 19.5 28.5t34.5 12.5h596q8 0 25.5 4.5t34.5 13.5t31.5 22.5t16.5 29.5q6 37 -25.5 53.5t-60.5 16.5h-596q-76 0 -133 -51.5t-70 -129.5zM543 1624q-4 -18 4 -40.5t37 -22.5q20 0 53 28.5t65.5 67.5t61.5 77t41 56l78 -166q10 -23 21 -47.5t44 -24.5q27 0 45.5 22.5 t22.5 43.5q2 12 1 24.5t1 28.5l-107 232q-10 27 -24.5 49t-48.5 22q-29 0 -55.5 -24.5t-43.5 -46.5q-27 -37 -54.5 -73t-55.5 -71q-27 -31 -53.5 -62.5t-32.5 -72.5z" />
<glyph unicode="&#xcb;" d="M131 180q-12 -74 31 -127t114 -53h596q14 0 32 4t34 13.5t28.5 21.5t14.5 31q2 16 -5 29.5t-20.5 22.5t-30 13t-30.5 4h-596q-16 0 -30.5 12.5t-10.5 28.5l80 508h491q14 0 33 4t36 13.5t30.5 21.5t17.5 31q2 18 -7 30.5t-23.5 21.5t-32 13t-31.5 4h-492l80 508 q4 16 20.5 28.5t33.5 12.5h596q8 0 25.5 4t35.5 13.5t31.5 23t17.5 29.5q4 35 -27.5 52.5t-60.5 17.5h-596q-76 0 -133 -51.5t-70 -129.5zM674 1649q0 -18 4 -37t15.5 -31t29.5 -12t32.5 11t26 27.5t18.5 35t9 33t1 34t-7 36.5t-16.5 29.5t-28.5 12.5q-16 0 -30.5 -11.5 t-25 -27.5t-17.5 -33.5t-9 -32t-2 -34.5zM862 1649q0 -18 6 -37t17.5 -31t29.5 -12t33 11t25 27.5t17 35t9 33t1 34t-7 36.5t-16 29.5t-27 12.5q-16 0 -31.5 -11.5t-26.5 -27.5t-18.5 -33.5t-9.5 -32t-2 -34.5z" />
<glyph unicode="&#xcc;" horiz-adv-x="413" d="M115 78q0 -18 5 -35.5t13.5 -30t24.5 -12.5q12 0 25.5 13.5t23.5 30.5t18 35.5t11 31.5l202 1292q2 12 1 30.5t-6 36t-14 30.5t-22 13q-16 0 -28.5 -12t-22.5 -29.5t-17 -36t-10 -32.5l-202 -1292q-2 -14 -2 -33zM362 1839q-4 -20 4.5 -71.5t22.5 -103.5t33 -93t37 -41 q27 0 39 23.5t16 39.5q2 18 0 44t-8 54.5t-12.5 54.5t-12.5 44l-10 43q-8 20 -21.5 44t-35.5 24q-23 0 -35 -19.5t-17 -42.5z" />
<glyph unicode="&#xcd;" horiz-adv-x="413" d="M113 78q0 -18 5 -35.5t13.5 -30t24.5 -12.5q12 0 25.5 13.5t24.5 30.5t19 35.5t11 31.5l204 1294q2 12 0 30.5t-8 36t-15 29.5t-22 12q-16 0 -28.5 -12t-22.5 -28.5t-16 -36t-9 -31.5l-204 -1294q-2 -14 -2 -33zM299 1608q-4 -23 3 -42.5t32 -19.5q23 0 46 25.5t36 46.5 l131 219q10 16 14 30.5t8 30.5q4 18 -2 42t-35 24q-18 0 -40.5 -24.5t-44 -57.5t-39 -65.5t-27.5 -49.5q-29 -45 -50.5 -75.5t-31.5 -83.5z" />
<glyph unicode="&#xce;" horiz-adv-x="413" d="M108 78q1 -19 6 -36t15.5 -29.5t26.5 -12.5q14 0 27.5 13.5t24.5 30.5t19.5 35.5t10.5 31.5l204 1294q2 12 0 30.5t-8 36t-15 29.5t-24 12q-16 0 -30.5 -12t-25.5 -28.5t-17.5 -36t-8.5 -31.5l-204 -1294q-2 -14 -1 -33zM182 1626q-4 -18 4.5 -38.5t34.5 -20.5 q20 0 50 26.5t60.5 62.5t58.5 71.5t40 54.5l72 -156q10 -23 22 -45t41 -22q27 0 43.5 22.5t18.5 40.5q4 12 2 24.5t0 24.5l-99 217q-10 25 -23 46.5t-46 21.5q-27 0 -51.5 -23.5t-40.5 -44.5q-25 -35 -51.5 -66.5t-53.5 -66.5q-25 -29 -50.5 -58.5t-31.5 -70.5z" />
<glyph unicode="&#xcf;" horiz-adv-x="413" d="M111 78q0 -18 5 -35.5t14.5 -30t25.5 -12.5q12 0 25.5 13.5t24.5 30.5t19 35.5t11 31.5l202 1292q2 12 1 30.5t-7 36t-15 29.5t-22 12q-16 0 -29.5 -12t-23.5 -28.5t-17.5 -36t-9.5 -31.5l-202 -1292q-2 -14 -2 -33zM281 1657q0 -16 5 -31.5t14.5 -26t25.5 -10.5 q31 0 51 34t24 60q2 12 1 30t-6 33t-15 25.5t-25 10.5q-16 0 -29.5 -10.5t-22.5 -24.5t-14 -30.5t-7 -26.5q-2 -14 -2 -33zM446 1657q0 -16 5.5 -31.5t16 -26t26.5 -10.5q29 0 49 34t24 60q2 12 1 30t-6 33t-14 25.5t-24 10.5q-18 0 -31.5 -10.5t-22.5 -24.5t-14 -30.5 t-7 -26.5q-2 -14 -3 -33z" />
<glyph unicode="&#xd0;" horiz-adv-x="1251" d="M125 786.5q-4 -24.5 13.5 -37t43 -18.5t52 -7t42.5 -1l-86 -543q-6 -35 3.5 -67.5t30 -57t50 -40t64.5 -15.5h299q82 0 162 33t144.5 88t109.5 129t59 158l109 692q12 84 -8.5 157.5t-67.5 129t-117 88t-151 32.5h-299q-37 0 -72 -14t-62.5 -38.5t-46 -57.5t-24.5 -70 l-76 -471h-29q-16 0 -39.5 -2t-45 -8t-38 -20.5t-20.5 -39zM326 180l86 545h379q10 0 28.5 5t36.5 13.5t33.5 19.5t17.5 23q2 16 -8 28.5t-25.5 22t-33 13.5t-29.5 4h-379l76 473q6 41 47 41h299q57 0 103.5 -20.5t78 -56.5t44.5 -85t5 -106l-108 -692q-10 -57 -39 -106.5 t-72 -85.5t-96 -56.5t-111 -20.5h-299q-41 0 -34 41z" />
<glyph unicode="&#xd1;" horiz-adv-x="1175" d="M120 77q1 -20 6 -36t15.5 -28.5t28.5 -12.5q14 0 28.5 13.5t27 30.5t20.5 35.5t10 31.5l193 1224q6 41 45 41h520q16 0 30.5 -12t10.5 -29l-193 -1224q-2 -14 -2 -33q0 -18 5 -35.5t16.5 -30t29.5 -12.5q12 0 25.5 13.5t24 31.5t18.5 36.5t10 29.5l193 1224 q12 78 -29 129.5t-117 51.5h-520q-76 0 -133 -51.5t-70 -129.5l-192 -1224q-2 -14 -1 -34zM588 1655q14 -35 37.5 -55.5t64.5 -20.5q37 0 65.5 12.5t52 26.5t42 26.5t35.5 12.5q29 0 41 -39q16 -8 20 -15.5t27 -17.5q16 17 18 23q14 14 15 22q4 23 5 53.5t-14 53.5 q-14 20 -38.5 35.5t-53.5 15.5t-51.5 -12.5t-42.5 -27.5t-41.5 -27.5t-48.5 -12.5q-25 0 -39 23.5t-31 80.5q-25 -59 -39 -91.5t-24 -65.5z" />
<glyph unicode="&#xd2;" d="M131 180q-12 -74 31 -127t114 -53h521q37 0 70.5 14.5t61 39t46 57t24.5 69.5l185 1161q12 78 -28 130.5t-118 52.5h-520q-78 0 -134 -52.5t-69 -130.5zM258 180l184 1161q2 16 19.5 29.5t34.5 13.5h520q16 0 25.5 -13.5t7.5 -29.5l-185 -1161q-4 -16 -16 -28.5 t-29 -12.5h-520q-16 0 -30.5 12.5t-10.5 28.5zM678 1950q-6 -35 6 -66l80 -233q6 -23 25.5 -49.5t46.5 -26.5q33 0 45 22.5t16 40.5q4 29 2 50.5t-9 40t-16.5 37t-17.5 42.5q-6 16 -16.5 51t-23.5 70t-30.5 61.5t-40.5 26.5q-31 0 -47 -22.5t-20 -44.5z" />
<glyph unicode="&#xd3;" d="M131 180q-12 -74 31 -127t114 -53h521q37 0 70.5 14.5t61 39t46 57t24.5 69.5l185 1161q12 78 -28 130.5t-118 52.5h-520q-78 0 -134 -52.5t-69 -130.5zM266 180l185 1161q2 16 15 29.5t30 13.5h520q16 0 29.5 -13.5t11.5 -29.5l-185 -1161q-4 -16 -20 -28.5t-33 -12.5 h-520q-16 0 -26.5 12.5t-6.5 28.5zM696 1638q-4 -18 2.5 -40.5t38.5 -22.5q27 0 53.5 26.5t43.5 49.5l153 233q20 35 27 66q4 23 -6.5 45t-40.5 22q-23 0 -48.5 -26.5t-50 -61.5t-45 -69.5t-32.5 -51.5q-33 -47 -59.5 -79.5t-35.5 -90.5z" />
<glyph unicode="&#xd4;" d="M131 180q-12 -74 31 -127t114 -53h521q37 0 70.5 14.5t61 39t46 57t24.5 69.5l185 1159q12 78 -29 129.5t-117 51.5h-520q-76 0 -133 -51.5t-70 -129.5zM258 180l184 1159q2 16 19.5 28.5t34.5 12.5h520q37 0 33 -41l-185 -1159q-4 -16 -16 -28.5t-29 -12.5h-520 q-16 0 -30.5 12.5t-10.5 28.5zM543 1624q-4 -18 4 -40.5t37 -22.5q20 0 53 28.5t65.5 67.5t61.5 77t41 56l78 -166q10 -23 21 -47.5t44 -24.5q27 0 45.5 22.5t22.5 43.5q2 12 1 24.5t1 28.5l-107 232q-10 27 -24.5 49t-48.5 22q-29 0 -55.5 -24.5t-43.5 -46.5 q-27 -37 -54.5 -73t-55.5 -71q-27 -31 -53.5 -62.5t-32.5 -72.5z" />
<glyph unicode="&#xd5;" horiz-adv-x="1175" d="M131 180q-12 -74 31 -127t114 -53h521q37 0 70.5 14.5t61 39t46 57t24.5 69.5l183 1155q12 78 -29 129.5t-117 51.5h-520q-76 0 -133 -51.5t-70 -129.5zM258 180l182 1155q4 16 20.5 28.5t33.5 12.5h520q39 0 33 -41l-183 -1155q-4 -16 -16 -28.5t-29 -12.5h-520 q-16 0 -30.5 12.5t-10.5 28.5zM588 1655q14 -35 37.5 -55.5t64.5 -20.5q37 0 65.5 12.5t52 26.5t42 26.5t35.5 12.5q29 0 41 -39q16 -8 20 -15.5t27 -17.5q16 17 18 23q14 14 15 22q4 23 5 53.5t-14 53.5q-14 20 -38.5 35.5t-53.5 15.5t-51.5 -12.5t-42.5 -27.5t-41.5 -27.5 t-48.5 -12.5q-25 0 -39 23.5t-31 80.5q-25 -59 -39 -91.5t-24 -65.5z" />
<glyph unicode="&#xd6;" d="M131 180q-12 -74 31 -127t114 -53h521q37 0 70.5 14.5t61 39t46 57t24.5 69.5l183 1155q12 78 -29 129.5t-117 51.5h-520q-76 0 -133 -51.5t-70 -129.5zM258 180l182 1155q4 16 20.5 28.5t33.5 12.5h520q39 0 33 -41l-183 -1155q-4 -16 -16 -28.5t-29 -12.5h-520 q-16 0 -30.5 12.5t-10.5 28.5zM645 1649q0 -18 6 -37t17.5 -31t29.5 -12q16 0 30.5 11t26 28.5t18.5 36t9 30.5q2 14 1 34t-7 37t-16 29.5t-27 12.5q-18 0 -32.5 -11.5t-25.5 -26.5t-18.5 -33.5t-9.5 -33t-2 -34.5zM838 1649q0 -18 4 -37t15.5 -31t29.5 -12t32.5 11 t26.5 27.5t19.5 35t9.5 33t1 34t-7 36.5t-17.5 29.5t-29.5 12.5q-16 0 -30.5 -11.5t-25 -27.5t-17.5 -33.5t-9 -32t-2 -34.5z" />
<glyph unicode="&#xd7;" horiz-adv-x="876" d="M176 416q-4 -23 9.5 -33t31.5 -10q25 0 48.5 12t39.5 27l182 159l134 -159q10 -14 30 -27.5t45 -13.5q20 0 39 16t23 37q4 27 -7.5 47.5t-23.5 34.5l-133 158l184 157q16 12 29.5 31.5t17.5 42.5q4 16 -5 33.5t-32 17.5q-25 0 -46 -12t-37 -27l-183 -157l-133 157 q-10 14 -29.5 28.5t-46.5 14.5q-20 0 -38.5 -16t-22.5 -37q-4 -25 6 -46.5t23 -35.5l135 -158l-185 -157q-16 -14 -33.5 -37t-21.5 -47z" />
<glyph unicode="&#xd8;" horiz-adv-x="1175" d="M51 -82q-4 -18 2 -40.5t39 -22.5q20 0 42 16t41.5 38.5t34.5 48.5t26 42q10 -4 18 -4h20h525q74 0 131 53t69 127l183 1155q8 55 -13 105q23 31 45.5 64.5t28.5 72.5q4 20 -5 43.5t-40 23.5q-37 1 -88 -69q-12 -14 -22.5 -29.5t-20.5 -32.5q-8 2 -16 2h-13h-524 q-78 0 -135 -51t-70 -129l-182 -1155q-4 -25 -1 -48.5t11 -45.5q-27 -39 -53.5 -79t-32.5 -85zM272 291l166 1040q4 16 20 28.5t34 12.5h487zM322 135l708 1086l-164 -1045q-4 -16 -17 -28.5t-30 -12.5h-497z" />
<glyph unicode="&#xd9;" d="M133 188q-12 -78 31 -133t121 -55h518q39 0 73.5 15.5t62.5 42t46.5 60.5t24.5 70l194 1229q2 14 1 32.5t-7 34t-16.5 26t-28.5 10.5q-14 0 -28.5 -11.5t-26 -28t-19.5 -33.5t-10 -30l-195 -1229q-4 -23 -17 -36t-32 -13h-518q-23 0 -33 13.5t-6 35.5l195 1229 q2 14 1 31.5t-7 33t-16.5 27t-28.5 11.5q-14 0 -28.5 -11.5t-26 -28t-19.5 -33.5t-10 -30zM653 1796q-6 -35 6 -65l80 -234q8 -23 26.5 -48.5t45.5 -25.5q33 0 45 21.5t16 42.5q4 29 2 50.5t-9 39.5t-16 35.5t-18 42.5q-6 16 -16 51t-23.5 69.5t-31 61.5t-39.5 27 q-31 0 -47.5 -22.5t-20.5 -45.5z" />
<glyph unicode="&#xda;" d="M133 188q-12 -74 28 -131t118 -57h518q78 0 139 55.5t74 132.5l194 1229q2 12 -1 29.5t-9 34t-16.5 28t-24.5 11.5q-18 0 -32.5 -11.5t-26 -27t-17.5 -32.5t-8 -32l-195 -1229q-10 -49 -55 -49h-518q-18 0 -27.5 13.5t-5.5 35.5l195 1229q2 12 -1 29.5t-9.5 34t-16.5 28 t-24 11.5q-18 0 -32.5 -10.5t-25 -26t-17.5 -33.5t-9 -33zM680 1487q-4 -20 2 -42t39 -22q27 0 54.5 26t41.5 48l154 234q20 35 26 65q4 23 -6 45.5t-41 22.5q-23 0 -48 -27t-50 -61.5t-45.5 -69.5t-32.5 -51q-33 -47 -59.5 -79t-34.5 -89z" />
<glyph unicode="&#xdb;" d="M133 188q-12 -74 28 -131t118 -57h518q37 0 72.5 15.5t65.5 41t49.5 59.5t25.5 72l194 1233q2 8 0 25.5t-7 33t-16.5 28t-27.5 12.5q-18 0 -32.5 -10.5t-25 -26t-17.5 -31.5t-9 -31l-195 -1233q-10 -49 -55 -49h-518q-18 0 -27.5 14.5t-5.5 34.5l195 1233q2 10 -1 27.5 t-9.5 33t-16.5 27t-24 11.5q-18 0 -32.5 -10.5t-25 -25t-17.5 -31.5t-9 -32zM543 1624q-4 -18 4 -40.5t37 -22.5q20 0 53 28.5t65.5 67.5t61.5 77t41 56l78 -166q10 -23 21 -47.5t44 -24.5q29 0 46.5 22.5t21.5 43.5q2 12 1 24.5t1 28.5l-107 232q-10 27 -24.5 49t-48.5 22 q-27 0 -54.5 -25.5t-44.5 -45.5q-29 -35 -55.5 -72t-54.5 -72q-27 -31 -53.5 -62.5t-32.5 -72.5z" />
<glyph unicode="&#xdc;" d="M133 188q-12 -74 28 -131t118 -57h518q37 0 72.5 15.5t65.5 41t49.5 59.5t25.5 72l192 1225q2 12 0 29.5t-9 34t-17.5 28t-24.5 11.5q-18 0 -32.5 -11.5t-25 -27t-17.5 -33t-9 -31.5l-193 -1225q-10 -49 -55 -49h-518q-18 0 -27.5 13.5t-5.5 35.5l193 1225q2 12 0 29.5 t-9.5 34t-17.5 28t-24 11.5q-18 0 -33 -10.5t-25 -26t-17 -34t-9 -32.5zM635 1579q0 -18 6 -36.5t17.5 -31t29.5 -12.5q16 0 30.5 11.5t25 28.5t17.5 35.5t9 31.5q2 14 1 33.5t-6 37t-15.5 29.5t-26.5 12t-31.5 -11t-27 -27.5t-18.5 -34t-9 -32t-2 -34.5zM827 1579 q0 -18 4.5 -36.5t16 -31t29.5 -12.5t32.5 11.5t25.5 27.5t18.5 34.5t9.5 33t1 34t-6.5 37t-16.5 29.5t-30 12q-16 0 -30.5 -11t-24.5 -27.5t-17.5 -34t-9.5 -32t-2 -34.5z" />
<glyph unicode="&#xdd;" d="M252 950q-8 -53 4 -100t40 -83t70 -57.5t95 -21.5h125l-90 -577q-2 -14 -1 -34t6 -36t15 -28.5t29 -12.5q14 0 28.5 13.5t25.5 30.5t19.5 35.5t10.5 31.5l90 577h119q51 0 100 21.5t89 57.5t66.5 83t34.5 100l74 459q2 14 1 32.5t-6 36t-15.5 30t-28.5 12.5 q-16 0 -31.5 -12.5t-27 -30t-18.5 -37t-9 -31.5l-74 -459q-8 -49 -47 -86t-86 -37h-377q-47 0 -74.5 38t-21.5 85l74 459q2 12 1 31.5t-6 37t-16.5 30t-27.5 12.5q-14 0 -28.5 -12.5t-27 -31t-20.5 -37t-10 -30.5zM680 1487q-4 -20 2 -42t39 -22q27 0 54.5 26t41.5 48 l154 234q20 35 26 65q4 23 -6 45.5t-41 22.5q-23 0 -48 -27t-50 -61.5t-45.5 -69.5t-32.5 -51q-33 -47 -59.5 -79t-34.5 -89z" />
<glyph unicode="&#xde;" horiz-adv-x="1028" d="M119 78q2 -19 8 -36t16.5 -29.5t24.5 -12.5q18 0 32.5 11.5t26 28.5t17.5 35.5t8 33.5l33 204q25 -6 47 -6h360q37 0 72 13.5t63.5 38t48 57.5t25.5 71l84 533q12 78 -33 129t-118 51h-361q-23 0 -49 -6l33 205q2 14 1 32.5t-6.5 35t-15.5 28.5t-28 12q-14 0 -27.5 -12 t-26 -29.5t-20.5 -36t-10 -30.5l-205 -1290q-2 -12 0 -31zM313 487l84 533q4 20 20.5 34.5t35.5 14.5h360q18 0 30.5 -14.5t8.5 -34.5l-84 -533q-4 -20 -20.5 -34.5t-34.5 -14.5h-361q-18 0 -30.5 14.5t-8.5 34.5z" />
<glyph unicode="&#xdf;" horiz-adv-x="1173" d="M134 -82.5q1 -19.5 7 -36t17.5 -29t29.5 -12.5t31.5 12.5t25 29t17.5 36t8 33.5l219 1376q2 16 16.5 28.5t31.5 12.5h331l-51 -317h-104q-76 0 -133.5 -51.5t-69.5 -129.5l-35 -229q-12 -76 29 -128t117 -52h239q23 0 34 -13.5t7 -35.5l-37 -230q-6 -47 -57 -47h-318 q-27 0 -63.5 -17.5t-42.5 -51.5q-4 -18 6 -30.5t24.5 -21t30 -12.5t25.5 -4h317q37 0 73 14.5t65.5 40t49 59t25.5 70.5l37 230q12 78 -34 129t-121 51h-240q-16 0 -29.5 16.5t-9.5 32.5l35 229q4 18 21.5 34t33.5 16h99h67q39 0 68 10l51 330q8 41 13 83.5t11 83.5 q8 45 -18.5 62.5t-58.5 17.5h-365q-37 0 -71.5 -14t-62.5 -38.5t-46.5 -57.5t-24.5 -70l-45 -276q-16 0 -36.5 -3.5t-39 -11.5t-33 -21.5t-16.5 -33.5q-4 -16 6.5 -27.5t28 -18.5t35.5 -10t35 -3l-154 -971q-2 -14 -1 -33.5z" />
<glyph unicode="&#xe0;" horiz-adv-x="1019" d="M131 180q-6 -37 3 -69.5t30.5 -57t52.5 -39t66 -14.5h360q74 0 131 53t70 127l108 692q6 37 -2 70t-27.5 57.5t-48 39t-65.5 14.5h-436q-14 0 -32.5 -4.5t-36 -13.5t-31 -21.5t-15.5 -30.5q-4 -18 5 -31.5t24.5 -21.5t33 -12.5t31.5 -4.5h436q18 0 30.5 -12t8.5 -29 l-12 -86q-8 -49 -50 -81.5t-89 -32.5h-287q-37 0 -72.5 -14.5t-64.5 -40t-47.5 -59.5t-24.5 -71zM264 180l49 307q4 23 17.5 36.5t36.5 13.5h286q31 0 63.5 8t63.5 24l-61 -389q-4 -16 -19.5 -28.5t-33.5 -12.5h-361q-20 0 -32.5 11.5t-8.5 29.5zM568 1415.5 q1 -16.5 5 -33.5q6 -20 16.5 -63t27 -87t36.5 -77t47 -33q29 0 43.5 24.5t18.5 43.5q2 18 -2 46t-12.5 57.5t-17.5 57t-15 46.5l-13 47q-10 20 -27.5 44.5t-45.5 24.5q-31 0 -42.5 -23.5t-15.5 -39.5q-4 -18 -3 -34.5z" />
<glyph unicode="&#xe1;" horiz-adv-x="1019" d="M131 180q-6 -37 3 -69.5t30.5 -57t52.5 -39t66 -14.5h360q74 0 131 53t70 127l108 692q6 37 -2 70t-27.5 57.5t-48 39t-65.5 14.5h-436q-14 0 -32.5 -4.5t-36 -13.5t-31 -21.5t-15.5 -30.5q-4 -18 5 -31.5t24.5 -21.5t33 -12.5t31.5 -4.5h436q18 0 30.5 -12t8.5 -29 l-12 -86q-8 -49 -50 -81.5t-89 -32.5h-287q-37 0 -72.5 -14.5t-64.5 -40t-47.5 -59.5t-24.5 -71zM264 180l49 307q4 23 17.5 36.5t36.5 13.5h286q31 0 63.5 8t63.5 24l-61 -389q-4 -16 -19.5 -28.5t-33.5 -12.5h-361q-20 0 -32.5 11.5t-8.5 29.5zM545 1139q-4 -18 3 -41 t38 -23q27 0 54.5 26.5t41.5 49.5l152 229q18 33 24 66q4 23 -5 45t-40 22q-12 0 -25.5 -9t-26.5 -21.5t-24.5 -25.5t-17.5 -23q-29 -45 -55.5 -91.5t-55.5 -91.5l-6 23q-14 -29 -33.5 -66t-23.5 -69z" />
<glyph unicode="&#xe2;" horiz-adv-x="1019" d="M131 180q-6 -37 3 -69.5t30.5 -57t52.5 -39t66 -14.5h360q74 0 131 53t70 127l108 692q6 37 -2 70t-27.5 57.5t-48 39t-65.5 14.5h-436q-14 0 -32.5 -4.5t-36 -13.5t-31 -21.5t-15.5 -30.5q-4 -18 5 -31.5t24.5 -21.5t33 -12.5t31.5 -4.5h436q18 0 30.5 -12t8.5 -29 l-12 -86q-8 -49 -50 -81.5t-89 -32.5h-287q-37 0 -72.5 -14.5t-64.5 -40t-47.5 -59.5t-24.5 -71zM264 180l49 307q4 23 17.5 36.5t36.5 13.5h286q31 0 63.5 8t63.5 24l-61 -389q-4 -16 -19.5 -28.5t-33.5 -12.5h-361q-20 0 -32.5 11.5t-8.5 29.5zM406 1165q-4 -18 4 -40.5 t36 -22.5q20 0 52 28.5t65 66.5t61.5 76t41.5 56l75 -164q10 -23 21.5 -47t44.5 -24q29 0 46 22.5t21 42.5q2 12 0 24.5t3 28.5l-105 228q-12 27 -25.5 49t-48.5 22q-29 0 -55.5 -24.5t-42.5 -46.5q-25 -35 -52.5 -70t-55.5 -70q-27 -33 -53.5 -63.5t-32.5 -71.5z" />
<glyph unicode="&#xe3;" horiz-adv-x="1028" d="M131 178q-6 -37 3 -69.5t30.5 -56t52.5 -38t66 -14.5h360q37 0 71 14.5t60.5 39t45 56t24.5 68.5l108 690q12 72 -29.5 124t-113.5 52h-436q-14 0 -32.5 -4t-36 -12t-32 -21.5t-16.5 -31.5q-2 -16 7 -28.5t24.5 -20.5t33 -12.5t29.5 -4.5h436q18 0 31.5 -12t9.5 -29 l-12 -86q-10 -49 -51 -80.5t-88 -31.5h-287q-37 0 -72.5 -15.5t-64.5 -41t-48.5 -59.5t-25.5 -71zM264 178l47 305q10 49 56 49h286q61 0 127 33l-61 -387q-4 -16 -19.5 -28.5t-33.5 -12.5h-361q-20 0 -32.5 12.5t-8.5 28.5zM438 1194q16 -31 40 -53.5t63 -22.5 q37 0 65.5 12.5t52 26.5t42 26.5t34.5 12.5q23 0 43 -37q6 -4 8 -8t4.5 -7t8.5 -7.5t20 -8.5q10 10 21.5 22.5t11.5 18.5q4 23 5 53.5t-11 53.5q-12 20 -36 35.5t-52 15.5q-29 0 -51.5 -12t-44 -27.5t-42 -28t-47.5 -12.5q-25 0 -37 24.5t-28 80.5q-25 -57 -40 -90t-30 -68z " />
<glyph unicode="&#xe4;" horiz-adv-x="1019" d="M131 180q-12 -76 34 -128t118 -52h360q74 0 131 53t70 127l108 688q12 72 -29.5 124t-113.5 52h-436q-12 0 -31.5 -4t-37 -12t-31 -20.5t-15.5 -28.5q-4 -18 5 -31.5t23.5 -21.5t32 -12.5t31.5 -4.5h436q18 0 31.5 -12t9.5 -29l-12 -86q-10 -49 -51 -79.5t-88 -30.5h-287 q-37 0 -72.5 -15.5t-64.5 -41t-48.5 -60.5t-25.5 -72zM264 180l47 303q10 49 56 49h286q61 0 127 33l-61 -385q-4 -16 -19.5 -29.5t-33.5 -13.5h-361q-20 0 -32.5 12.5t-8.5 30.5zM473 1217q0 -20 5 -39t16.5 -31t29.5 -12t32.5 12t25 29.5t17.5 36t9 32.5q2 12 1 31.5 t-6 36t-16.5 29t-27.5 12.5t-30.5 -11.5t-25.5 -27t-18.5 -33.5t-9.5 -31q-2 -14 -2 -34zM662 1217q0 -20 5 -39t15.5 -31t28.5 -12t33.5 12t25.5 29.5t17.5 36t9.5 33t1 32.5t-7.5 34.5t-16.5 29t-29 12.5q-16 0 -30.5 -11.5t-25.5 -27t-17 -33.5t-8 -31q-2 -14 -2 -34z " />
<glyph unicode="&#xe5;" horiz-adv-x="1019" d="M131 180q-6 -37 3 -69.5t30.5 -57t52.5 -39t66 -14.5h360q74 0 131 53t70 127l108 692q6 37 -2 70t-27.5 57.5t-48 39t-65.5 14.5h-436q-14 0 -32.5 -4.5t-36 -13.5t-31 -21.5t-15.5 -30.5q-4 -18 5 -31.5t24.5 -21.5t33 -12.5t31.5 -4.5h436q18 0 30.5 -12t8.5 -29 l-12 -86q-8 -49 -50 -81.5t-89 -32.5h-287q-37 0 -72.5 -14.5t-64.5 -40t-47.5 -59.5t-24.5 -71zM264 180l49 307q4 23 17.5 36.5t36.5 13.5h286q31 0 63.5 8t63.5 24l-61 -389q-4 -16 -19.5 -28.5t-33.5 -12.5h-361q-20 0 -32.5 11.5t-8.5 29.5zM479 1276 q-12 -74 26 -131.5t116 -57.5h45q37 0 70.5 16.5t61 43.5t46 60.5t24.5 68.5l9 53q10 74 -30 127t-114 53h-45q-76 0 -132 -52t-69 -128zM606 1276l8 53q4 18 20.5 33.5t33.5 15.5h45q16 0 26 -15.5t6 -33.5l-8 -53q-4 -23 -17 -36t-32 -13h-45q-18 0 -29.5 14t-7.5 35z" />
<glyph unicode="&#xe6;" horiz-adv-x="1658" d="M131 176q-6 -37 4 -69.5t32.5 -56t54.5 -37t67 -13.5h375q63 0 120 41q45 -41 109 -41h455q14 0 32.5 4t37 12.5t31.5 21.5t15 31.5t-7 31t-24.5 19.5t-33 11t-31.5 4h-455q-16 0 -30.5 11.5t-12.5 23.5l27 168q8 49 51 78.5t94 29.5h304q37 0 72.5 15.5t63 41t47 59.5 t25.5 69l35 225q10 72 -35 124t-116 52h-381q-63 0 -121 -41q-45 41 -109 41h-454q-14 0 -32.5 -4t-37 -12t-33 -21.5t-16.5 -32t7 -30.5t24.5 -19.5t33 -11.5t31.5 -4h455q31 0 37 -18.5t2 -53.5l-10 -61q-8 -45 -52.5 -73.5t-91.5 -28.5h-297q-37 0 -73.5 -14.5t-65.5 -39 t-49.5 -58.5t-26.5 -71zM268 176l47 303q6 45 58 45h297q65 0 131 35l-60 -383q-4 -16 -21.5 -28.5t-35.5 -12.5h-375q-20 0 -32.5 11.5t-8.5 29.5zM932 551l47 305q4 16 20.5 28.5t34.5 12.5h381q18 0 29.5 -12.5t7.5 -28.5l-35 -225q-4 -20 -18.5 -33.5t-32.5 -13.5h-303 q-72 0 -131 -33z" />
<glyph unicode="&#xe7;" horiz-adv-x="937" d="M127 160q-6 -35 3 -67t29.5 -56.5t49.5 -38.5t63 -14h101l-19 -117h11q6 -23 24.5 -29t38.5 -8h27q16 0 28.5 -3t19.5 -12.5t5 -27.5q-2 -8 -3 -15.5t-3 -17.5q-4 -20 -12.5 -35.5t-34.5 -15.5h-109q-10 0 -26.5 -3t-33 -11t-29.5 -21.5t-15 -34.5q-4 -20 5 -33.5 t22.5 -21.5t28.5 -11t26 -3h108q35 0 69 15t61.5 40t46 57.5t24.5 67.5l8 43q10 74 -32 121t-107 57l4 19h211q29 0 64.5 16t41.5 53q2 16 -5 29.5t-20.5 22t-29.5 12.5t-31 4h-444q-16 0 -25.5 11t-7.5 28l111 692q4 16 16 28.5t29 12.5h444q14 0 31.5 4t33 13.5t28 21.5 t14.5 31q6 35 -25 52t-59 17h-445q-35 0 -68.5 -15.5t-61 -40t-46 -57t-24.5 -67.5z" />
<glyph unicode="&#xe8;" horiz-adv-x="1019" d="M131 180q-12 -74 29 -127t114 -53h437q14 0 32.5 4t36 12.5t30.5 21.5t15 31.5t-6 31t-22.5 21.5t-31.5 13t-32 4h-436q-18 0 -31.5 12.5t-9.5 28.5l25 162q10 51 50 82t89 31h295q37 0 70.5 16t61 43t46 60.5t25.5 68.5l34 229q6 35 -2 68t-28.5 57.5t-49 40t-63.5 15.5 h-369q-37 0 -69.5 -14.5t-60 -39t-46 -57.5t-24.5 -70zM315 561l50 311q4 16 20 28.5t35 12.5h368q16 0 25.5 -12.5t5.5 -28.5l-35 -229q-4 -20 -17 -34.5t-30 -14.5h-295q-61 0 -127 -33zM568 1415.5q1 -16.5 5 -33.5q6 -20 16.5 -63t27 -87t36.5 -77t47 -33 q29 0 43.5 24.5t18.5 43.5q2 18 -2 46t-12.5 57.5t-17.5 57t-15 46.5l-13 47q-10 20 -27.5 44.5t-45.5 24.5q-31 0 -42.5 -23.5t-15.5 -39.5q-4 -18 -3 -34.5z" />
<glyph unicode="&#xe9;" horiz-adv-x="1019" d="M131 180q-12 -74 29 -127t114 -53h437q14 0 32.5 4t36 12.5t30.5 21.5t15 31.5t-6 31t-22.5 21.5t-31.5 13t-32 4h-436q-18 0 -31.5 12.5t-9.5 28.5l25 162q10 51 50 82t89 31h295q37 0 70.5 16t61 43t46 60.5t25.5 68.5l34 229q6 35 -2 68t-28.5 57.5t-49 40t-63.5 15.5 h-369q-37 0 -69.5 -14.5t-60 -39t-46 -57.5t-24.5 -70zM315 561l50 311q4 16 20 28.5t35 12.5h368q16 0 25.5 -12.5t5.5 -28.5l-35 -229q-4 -20 -17 -34.5t-30 -14.5h-295q-61 0 -127 -33zM545 1139q-4 -18 3 -41t38 -23q27 0 54.5 26.5t41.5 49.5l152 229q18 33 24 66 q4 23 -5 45t-40 22q-12 0 -25.5 -9t-26.5 -21.5t-24.5 -25.5t-17.5 -23q-29 -45 -55.5 -91.5t-55.5 -91.5l-6 23q-14 -29 -33.5 -66t-23.5 -69z" />
<glyph unicode="&#xea;" horiz-adv-x="1019" d="M131 180q-12 -74 29 -127t114 -53h437q14 0 32.5 4t36 12.5t30.5 21.5t15 31.5t-6 31t-22.5 21.5t-31.5 13t-32 4h-436q-18 0 -31.5 12.5t-9.5 28.5l25 162q10 51 50 82t89 31h295q37 0 70.5 16t61 43t46 60.5t25.5 68.5l34 229q6 35 -2 68t-28.5 57.5t-49 40t-63.5 15.5 h-369q-37 0 -69.5 -14.5t-60 -39t-46 -57.5t-24.5 -70zM315 561l50 311q4 16 20 28.5t35 12.5h368q16 0 25.5 -12.5t5.5 -28.5l-35 -229q-4 -20 -17 -34.5t-30 -14.5h-295q-61 0 -127 -33zM406 1165q-4 -18 4 -40.5t36 -22.5q20 0 52 28.5t65 66.5t61.5 76t41.5 56l75 -164 q10 -23 21.5 -47t44.5 -24q29 0 46 22.5t21 42.5q2 12 0 24.5t3 28.5l-105 228q-12 27 -25.5 49t-48.5 22q-29 0 -55.5 -24.5t-42.5 -46.5q-25 -35 -52.5 -70t-55.5 -70q-27 -33 -53.5 -63.5t-32.5 -71.5z" />
<glyph unicode="&#xeb;" horiz-adv-x="1019" d="M131 180q-12 -74 29 -127t114 -53h437q14 0 32.5 4t36 12.5t30.5 21.5t15 31.5t-6 31t-22.5 20.5t-31.5 12t-32 4h-436q-18 0 -31.5 13.5t-9.5 29.5l25 162q10 49 51 81t88 32h295q37 0 70.5 15t61 42t45 59.5t23.5 67.5l37 229q10 70 -31.5 123t-111.5 53h-369 q-37 0 -69.5 -14t-60 -37.5t-46 -55.5t-24.5 -69zM315 559l50 309q4 16 19 28.5t34 12.5h368q16 0 26.5 -12.5t6.5 -28.5l-37 -229q-2 -18 -15 -32.5t-30 -14.5h-295q-61 0 -127 -33zM473 1217q0 -20 5 -39t16.5 -31t29.5 -12t32.5 12t25 29.5t17.5 36t9 32.5q2 12 1 31.5 t-6 36t-16.5 29t-27.5 12.5t-30.5 -11.5t-25.5 -27t-18.5 -33.5t-9.5 -31q-2 -14 -2 -34zM662 1217q0 -20 5 -39t15.5 -31t28.5 -12t33.5 12t25.5 29.5t17.5 36t9.5 33t1 32.5t-7.5 34.5t-16.5 29t-29 12.5q-16 0 -30.5 -11.5t-25.5 -27t-17 -33.5t-8 -31q-2 -14 -2 -34z " />
<glyph unicode="&#xec;" horiz-adv-x="462" d="M113 110.5q6 -32.5 22.5 -59t44 -43t64.5 -16.5q10 0 27.5 4t35 13t30.5 24.5t17 40.5q6 35 -10 50t-37.5 21.5t-40 11.5t-14.5 21l117 735q2 10 0 31t-8.5 40.5t-16.5 33.5t-22 14q-18 0 -34 -13t-28 -31.5t-20.5 -39t-10.5 -35.5l-116 -735q-6 -35 0 -67.5zM257 1415.5 q1 -16.5 5 -33.5q4 -20 12.5 -63t22.5 -87t31.5 -77t40.5 -33q29 0 42 24.5t17 43.5l-47 254q-10 20 -24.5 44.5t-41.5 24.5q-29 0 -40 -23.5t-15 -39.5q-4 -18 -3 -34.5z" />
<glyph unicode="&#xed;" horiz-adv-x="460" d="M113 110.5q6 -32.5 22.5 -59t44 -43t64.5 -16.5q10 0 27.5 4t35 13t30.5 24.5t17 40.5q6 35 -10 50t-37.5 21.5t-40 11.5t-14.5 21l117 735q2 10 0 31t-8.5 40.5t-16.5 33.5t-22 14q-18 0 -34 -13t-28 -31.5t-20.5 -39t-10.5 -35.5l-116 -735q-6 -35 0 -67.5zM229 1137 q-4 -16 1.5 -40t33.5 -24q27 0 59.5 38t64.5 89t58.5 102t42.5 78q10 16 14.5 31.5t8.5 32.5q4 20 -3 43.5t-36 23.5q-18 0 -41.5 -24.5t-50.5 -61t-53.5 -82t-47 -87.5t-35 -74.5t-16.5 -44.5z" />
<glyph unicode="&#xee;" horiz-adv-x="462" d="M92 1153q-4 -16 3 -39.5t36 -23.5q20 0 51 28.5t61.5 66.5t58.5 75.5t40 56.5l70 -164q10 -23 21 -47.5t42 -24.5q29 0 44.5 23.5t19.5 42.5q2 12 0 24.5t2 28.5l-97 227q-10 25 -23 48.5t-46 23.5q-27 0 -52.5 -25.5t-41.5 -46.5q-25 -35 -51.5 -69.5t-53.5 -69.5 q-27 -33 -52.5 -63.5t-31.5 -71.5zM113 110.5q6 -32.5 22.5 -59t44 -43t64.5 -16.5q10 0 27.5 4t35 13t30.5 24.5t17 40.5q6 35 -10 50t-37.5 21.5t-40 11.5t-14.5 21l117 735q2 10 0 31t-8.5 40.5t-16.5 33.5t-22 14q-18 0 -34 -13t-28 -31.5t-20.5 -39t-10.5 -35.5 l-116 -735q-6 -35 0 -67.5z" />
<glyph unicode="&#xef;" horiz-adv-x="458" d="M113 110.5q6 -32.5 22.5 -59t44 -43t64.5 -16.5q10 0 27.5 4t35 13t30.5 24.5t17 40.5q6 35 -10 50t-37.5 21.5t-40 11.5t-14.5 21l117 735q2 10 0 31t-8.5 40.5t-16.5 33.5t-22 14q-18 0 -34 -13t-28 -31.5t-20.5 -39t-10.5 -35.5l-116 -735q-6 -35 0 -67.5zM195 1221 q0 -18 4 -37t13.5 -32t27.5 -13q16 0 29.5 12t23.5 29.5t16 37t8 32t1 30.5t-6 35.5t-14 30t-24 12.5q-16 0 -29.5 -11.5t-23.5 -27.5t-16 -33.5t-8 -30.5q-2 -14 -2 -34zM365 1221q0 -18 4 -37t14.5 -32t28.5 -13q16 0 29.5 12t23.5 29.5t17 37t9.5 32t1.5 30.5t-6.5 35.5 t-14.5 30t-26 12.5q-16 0 -29.5 -11.5t-23.5 -26.5t-17 -33.5t-9 -31.5q-2 -14 -2 -34z" />
<glyph unicode="&#xf0;" d="M131 180q-6 -35 3 -67.5t29.5 -57t50.5 -40t65 -15.5h518q35 0 69.5 14.5t64.5 39t50 57t27 69.5l145 922q16 92 -12.5 176t-89.5 141q16 27 32.5 53.5t20.5 57.5q4 23 -4 45t-41 22q-14 0 -30.5 -12t-32 -28.5t-30 -37t-22.5 -34.5q-59 27 -131 26h-94q-14 0 -32.5 -4 t-37 -13t-32 -21.5t-15.5 -30.5q-6 -29 15.5 -44.5t53 -21.5t64.5 -6h51q45 0 76 -8q-29 -35 -47 -64.5t-24 -74.5q-4 -16 3 -40t35 -24q20 0 41 15.5t39.5 37t33.5 44t26 38.5q68 -78 49 -192l-25 -156q-4 -20 -18 -30.5t-35 -10.5h-297q-84 0 -162 -34.5t-140 -92 t-105 -133.5t-56 -158zM266 180l49 307q8 57 36 107.5t69 88.5t92 60.5t109 22.5h297q24 0 49 6l-95 -592q-4 -18 -18 -29.5t-35 -11.5h-518q-16 0 -27.5 12.5t-7.5 28.5z" />
<glyph unicode="&#xf1;" horiz-adv-x="1028" d="M119 106q-2 -10 1 -27.5t9 -34.5t16.5 -30.5t22.5 -13.5q16 0 31.5 11.5t26 28.5t17.5 35.5t9 30.5l121 762q4 18 19.5 32.5t35.5 14.5h360q20 0 31.5 -14t7.5 -33l-120 -762q-2 -12 0 -30.5t7 -35.5t16.5 -28.5t27.5 -11.5q12 0 25.5 13.5t25.5 30.5t20.5 34.5 t10.5 27.5l121 762q6 37 -3.5 70t-31 56.5t-51 36.5t-66.5 13h-360q-37 0 -72 -13t-63.5 -36.5t-48 -56.5t-25.5 -70zM438 1194q16 -31 40 -53.5t63 -22.5q37 0 65.5 12.5t52 26.5t42 26.5t34.5 12.5q27 0 43 -37l6 -6l2 -2l5 -4q1 -7 28 -19q10 10 21.5 22.5t11.5 18.5 q4 23 5 53.5t-11 53.5q-12 20 -36 35.5t-52 15.5q-29 0 -51.5 -12t-44 -27.5t-42 -28t-47.5 -12.5q-25 0 -37 24.5t-28 80.5q-25 -57 -40 -90t-30 -68z" />
<glyph unicode="&#xf2;" horiz-adv-x="1019" d="M133 188q-12 -74 26 -131t115 -57h369q37 0 71 16.5t61.5 43t46 60.5t24.5 68l106 684q6 37 -2 70t-27.5 57.5t-48 39t-65.5 14.5h-369q-76 0 -132 -52.5t-68 -128.5zM258 188l107 684q4 16 21 33t34 17h368q16 0 25.5 -16t5.5 -34l-106 -684q-4 -23 -17.5 -36t-29.5 -13 h-369q-18 0 -30.5 14.5t-8.5 34.5zM568 1415.5q1 -16.5 5 -33.5q6 -20 16.5 -63t27 -87t36.5 -77t47 -33q29 0 43.5 24.5t18.5 43.5q2 18 -2 46t-12.5 57.5t-17.5 57t-15 46.5l-13 47q-10 20 -27.5 44.5t-45.5 24.5q-31 0 -42.5 -23.5t-15.5 -39.5q-4 -18 -3 -34.5z" />
<glyph unicode="&#xf3;" horiz-adv-x="1019" d="M133 188q-12 -74 26 -131t115 -57h369q37 0 71 16.5t61.5 43t46 60.5t24.5 68l106 684q6 37 -2 70t-27.5 57.5t-48 39t-65.5 14.5h-369q-76 0 -132 -52.5t-68 -128.5zM258 188l107 684q4 16 21 33t34 17h368q16 0 25.5 -16t5.5 -34l-106 -684q-4 -23 -17.5 -36t-29.5 -13 h-369q-18 0 -30.5 14.5t-8.5 34.5zM545 1139q-4 -18 3 -41t38 -23q27 0 54.5 26.5t41.5 49.5l152 229q18 33 24 66q4 23 -5 45t-40 22q-12 0 -25.5 -9t-26.5 -21.5t-24.5 -25.5t-17.5 -23q-29 -45 -55.5 -91.5t-55.5 -91.5l-6 23q-14 -29 -33.5 -66t-23.5 -69z" />
<glyph unicode="&#xf4;" horiz-adv-x="1019" d="M133 188q-12 -74 26 -131t115 -57h369q37 0 71 16.5t61.5 43t46 60.5t24.5 68l106 684q6 37 -2 70t-27.5 57.5t-48 39t-65.5 14.5h-369q-76 0 -132 -52.5t-68 -128.5zM258 188l107 684q4 16 21 33t34 17h368q16 0 25.5 -16t5.5 -34l-106 -684q-4 -23 -17.5 -36t-29.5 -13 h-369q-18 0 -30.5 14.5t-8.5 34.5zM406 1165q-4 -18 4 -40.5t36 -22.5q20 0 52 28.5t65 66.5t61.5 76t41.5 56l75 -164q10 -23 21.5 -47t44.5 -24q29 0 46 22.5t21 42.5q2 12 0 24.5t3 28.5l-105 228q-12 27 -25.5 49t-48.5 22q-29 0 -55.5 -24.5t-42.5 -46.5 q-25 -35 -52.5 -70t-55.5 -70q-27 -33 -53.5 -63.5t-32.5 -71.5z" />
<glyph unicode="&#xf5;" horiz-adv-x="1028" d="M131 186q-6 -37 2 -69.5t26.5 -59t47.5 -42t67 -15.5h369q37 0 71 16.5t61.5 42t45 59.5t23.5 68l108 682q12 72 -29.5 124t-113.5 52h-369q-76 0 -132 -50t-68 -126zM256 186l109 682q4 16 21 31.5t34 15.5h368q16 0 25.5 -15.5t5.5 -31.5l-108 -682q-4 -20 -16.5 -34.5 t-28.5 -14.5h-369q-20 0 -32.5 14.5t-8.5 34.5zM438 1194q16 -31 40 -53.5t63 -22.5q37 0 65.5 12.5t52 26.5t42 26.5t34.5 12.5q23 0 43 -37q6 -4 8 -8t4.5 -7t8.5 -7.5t20 -8.5q10 10 21.5 22.5t11.5 18.5q4 23 5 53.5t-11 53.5q-12 20 -36 35.5t-52 15.5q-29 0 -51.5 -12 t-44 -27.5t-42 -28t-47.5 -12.5q-25 0 -37 24.5t-28 80.5q-25 -57 -40 -90t-30 -68z" />
<glyph unicode="&#xf6;" horiz-adv-x="1019" d="M131 186q-6 -37 2 -69.5t26.5 -59t47.5 -42t67 -15.5h369q37 0 71 16.5t61.5 42t45 59.5t23.5 68l108 682q12 72 -29.5 124t-113.5 52h-369q-76 0 -132 -50t-68 -126zM256 186l109 682q4 16 21 33t34 17h368q16 0 25.5 -16t5.5 -34l-108 -682q-4 -20 -16.5 -34.5 t-28.5 -14.5h-369q-20 0 -32.5 14.5t-8.5 34.5zM496 1217q0 -20 4 -39t15.5 -31t29.5 -12t31.5 12t24.5 29.5t17.5 36t8.5 32.5q2 12 2 31q0 20 -5.5 36.5t-15.5 29t-28 12.5q-16 0 -30.5 -11.5t-26 -27t-17.5 -33.5t-8 -31q-2 -14 -2 -34zM684 1217q0 -20 4 -39t15.5 -31 t29.5 -12t31.5 12t25 29.5t17.5 36t8 32.5q2 12 2 31q0 20 -5 36.5t-15.5 29t-28.5 12.5q-16 0 -30.5 -11.5t-26 -27t-17.5 -33.5t-8 -31q-2 -14 -2 -34z" />
<glyph unicode="&#xf7;" horiz-adv-x="989" d="M150 655q-2 -12 7 -23t24.5 -18.5t30.5 -12.5t26 -5h589q10 0 28.5 5t37 12.5t34 18.5t17.5 23q2 14 -8 26.5t-25.5 22t-33 13.5t-29.5 4h-590q-14 0 -31.5 -4t-34 -12.5t-28.5 -20.5t-14 -29zM438 408q0 -18 5.5 -35t16.5 -29t29 -12t33 11t25 26.5t17 33t9 32t1 32.5 t-7 34.5t-16 28t-29 11.5q-16 0 -30.5 -10.5t-24.5 -26t-17.5 -32.5t-9.5 -30q-2 -14 -2 -34zM504 840q0 -18 5 -36t15.5 -30t28.5 -12t32.5 11t25 27.5t17.5 34t9 32t1 31.5t-7 33.5t-16.5 28t-28.5 11.5q-35 0 -55.5 -35t-24.5 -62q-2 -14 -2 -34z" />
<glyph unicode="&#xf8;" horiz-adv-x="1019" d="M76 -51q-4 -20 2 -42t39 -22q14 0 32.5 12.5t35 29t31.5 36t26 35.5q8 -2 24 -2h377q37 0 71 15.5t61.5 41t45 59t23.5 68.5l108 680q6 47 -8 86q10 10 19.5 22.5t17.5 24.5q8 16 15.5 32.5t11.5 35.5q4 20 -5.5 43.5t-37.5 23.5q-31 0 -57.5 -28.5t-43.5 -52.5l-10 -17 q-12 4 -24.5 5t-22.5 1h-369q-76 0 -132 -50t-66 -126l-109 -680q-4 -29 -2 -55.5t14 -50.5q-23 -29 -42 -59.5t-25 -65.5zM264 238l101 622q2 16 19.5 31.5t33.5 15.5h344zM340 131l463 623l-90 -574q-4 -20 -17.5 -34.5t-31.5 -14.5h-324z" />
<glyph unicode="&#xf9;" horiz-adv-x="1019" d="M133 188q-12 -78 30 -133t120 -55h360q39 0 73 15.5t60.5 42t45 60.5t24.5 70l119 762q2 10 1 27.5t-7.5 34t-15.5 29t-21 12.5q-16 0 -30.5 -11.5t-25 -27t-17.5 -32.5t-9 -32l-119 -762q-4 -20 -20.5 -34.5t-34.5 -14.5h-361q-23 0 -33 13.5t-6 35.5l119 762 q2 14 1 31.5t-7 33t-17.5 27t-27.5 11.5t-30.5 -11.5t-25 -27t-17.5 -32.5t-9 -32zM568 1415.5q1 -16.5 5 -33.5q6 -20 16.5 -63t27 -87t36.5 -77t47 -33q29 0 43.5 24.5t18.5 43.5q2 18 -2 46t-12.5 57.5t-17.5 57t-15 46.5h28l-41 47q-10 20 -27.5 44.5t-45.5 24.5 q-31 0 -42.5 -23.5t-15.5 -39.5q-4 -18 -3 -34.5z" />
<glyph unicode="&#xfa;" horiz-adv-x="1019" d="M133 188q-12 -78 30 -133t120 -55h360q39 0 73 15.5t60.5 42t45 60.5t24.5 70l119 762q2 10 1 27.5t-7.5 34t-15.5 29t-21 12.5q-16 0 -30.5 -11.5t-25 -27t-17.5 -32.5t-9 -32l-119 -762q-4 -20 -20.5 -34.5t-34.5 -14.5h-361q-23 0 -33 13.5t-6 35.5l119 762 q2 14 1 31.5t-7 33t-17.5 27t-27.5 11.5t-30.5 -11.5t-25 -27t-17.5 -32.5t-9 -32zM545 1139q-4 -18 3 -41t38 -23q27 0 54.5 26.5t41.5 49.5l152 229q18 33 24 66q4 23 -5 45t-40 22q-12 0 -25.5 -9t-26.5 -21.5t-24.5 -25.5t-17.5 -23q-29 -45 -55.5 -91.5t-55.5 -91.5 l-6 23q-14 -29 -33.5 -66t-23.5 -69z" />
<glyph unicode="&#xfb;" horiz-adv-x="1019" d="M133 188q-12 -78 30 -133t120 -55h360q39 0 73 15.5t60.5 42t45 60.5t24.5 70l119 762q2 10 1 27.5t-7.5 34t-15.5 29t-21 12.5q-16 0 -30.5 -11.5t-25 -27t-17.5 -32.5t-9 -32l-119 -762q-4 -20 -20.5 -34.5t-34.5 -14.5h-361q-23 0 -33 13.5t-6 35.5l119 762 q2 14 1 31.5t-7 33t-17.5 27t-27.5 11.5t-30.5 -11.5t-25 -27t-17.5 -32.5t-9 -32zM406 1165q-4 -18 4 -40.5t36 -22.5q20 0 52 28.5t65 66.5t61.5 76t41.5 56l75 -164q10 -23 21.5 -47t44.5 -24q29 0 46 22.5t21 42.5q2 12 0 24.5t3 28.5l-105 228q-12 27 -25.5 49 t-48.5 22q-29 0 -55.5 -24.5t-42.5 -46.5q-25 -35 -52.5 -70t-55.5 -70q-27 -33 -53.5 -63.5t-32.5 -71.5z" />
<glyph unicode="&#xfc;" horiz-adv-x="1019" d="M131 186q-10 -76 32 -131t120 -55h360q39 0 73 15.5t60.5 42t44 59.5t23.5 69l121 760q2 10 0 26.5t-7.5 33t-14.5 27.5t-21 11q-16 0 -30.5 -10t-25 -25.5t-17.5 -31.5t-9 -31l-121 -760q-4 -20 -18.5 -34.5t-34.5 -14.5h-361q-23 0 -34 13.5t-7 35.5l121 760 q2 14 1 30.5t-7 32t-17.5 25.5t-27.5 10t-30.5 -10t-25 -25.5t-17.5 -31.5t-9 -31zM498 1217q0 -20 4 -39t15.5 -31t29.5 -12t31.5 12t24.5 29.5t17.5 36t8.5 32.5q2 12 2 31q0 20 -5 36.5t-15.5 29t-28.5 12.5q-16 0 -30.5 -11.5t-26 -27t-17.5 -33.5t-8 -31q-2 -14 -2 -34 zM686 1217q0 -20 4 -39t15.5 -31t29.5 -12t31.5 12t25 29.5t17.5 36t8 32.5q2 12 2 31q0 20 -5 36.5t-15.5 29t-28.5 12.5q-16 0 -30.5 -11.5t-26 -27t-17.5 -33.5t-8 -31q-2 -14 -2 -34z" />
<glyph unicode="&#xfd;" horiz-adv-x="1019" d="M25 -487q-4 -35 26.5 -52.5t59.5 -17.5h444q37 0 70.5 16.5t61.5 43t45.5 60.5t23.5 68l209 1307q2 12 1 30.5t-7.5 36t-16.5 28.5t-27 11q-18 0 -32.5 -11t-25.5 -27.5t-17 -35t-9 -32.5l-112 -707q-8 -47 -45 -77.5t-84 -30.5h-295q-18 0 -31.5 12t-9.5 29l123 774 q2 10 0 27.5t-7 35t-14.5 30.5t-21.5 13q-16 0 -30.5 -11t-26 -28.5t-17.5 -36t-8 -30.5l-123 -774q-6 -37 2 -70t27.5 -57.5t48.5 -38.5t65 -14h295q29 0 58.5 8t58.5 22l-61 -383q-4 -20 -16.5 -34.5t-28.5 -14.5h-445q-29 0 -65.5 -17.5t-42.5 -51.5zM588 1137 q-4 -18 2 -41t37 -23q27 0 54.5 26.5t41.5 49.5l154 233q10 16 14 33t8 33q4 20 -5 44t-38 24q-12 0 -26.5 -9.5t-26.5 -21.5t-23.5 -25.5t-17.5 -23.5q-29 -47 -56.5 -93.5t-56.5 -93.5l-6 23q-16 -31 -33.5 -66t-21.5 -69z" />
<glyph unicode="&#xfe;" horiz-adv-x="1028" d="M31 -449q-2 -12 0 -30.5t8 -35.5t16.5 -30.5t24.5 -13.5q18 0 32.5 12t24.5 29.5t17.5 36t9.5 32.5l69 439q25 -6 48 -6h360q37 0 72 13t63.5 37.5t48 57.5t25.5 72l111 702q12 78 -33 129.5t-119 51.5h-360q-23 0 -50 -7l58 361q2 14 1 32.5t-6.5 36t-15.5 29.5t-28 12 q-14 0 -27.5 -13t-26 -30.5t-20.5 -36t-10 -30.5zM262 164l111 702q4 20 20.5 34.5t34.5 14.5h360q18 0 30.5 -14.5t8.5 -34.5l-110 -702q-4 -20 -20.5 -34.5t-34.5 -14.5h-361q-18 0 -30.5 14t-8.5 35z" />
<glyph unicode="&#xff;" horiz-adv-x="1019" d="M25 -487q-4 -35 26.5 -52.5t59.5 -17.5h444q37 0 70.5 16.5t61.5 43t45.5 60.5t23.5 68l207 1303q2 12 1 30.5t-6.5 36t-16.5 28.5t-28 11q-18 0 -32.5 -11t-24.5 -27.5t-17.5 -35t-9.5 -32.5l-110 -707q-8 -47 -45 -75.5t-84 -28.5h-295q-18 0 -31.5 12t-9.5 29l121 770 q2 10 0 27.5t-7.5 35t-14.5 30.5t-21 13q-16 0 -30.5 -11t-25 -28.5t-17.5 -36t-9 -30.5l-121 -770q-12 -74 29 -127t114 -53h295q59 0 117 28l-61 -381q-4 -20 -16.5 -34.5t-28.5 -14.5h-445q-29 0 -65.5 -17.5t-42.5 -51.5zM481 1210q0 -18 5.5 -36.5t15.5 -31t28 -12.5 t33 11.5t26 28t18 35t9 32.5t1 33.5t-7 37t-16 30t-29 12.5q-16 0 -30.5 -11.5t-24.5 -28t-17.5 -33.5t-9.5 -31.5t-2 -35.5zM670 1210q0 -18 4 -36.5t15.5 -31t29.5 -12.5t32.5 11.5t25.5 28t18.5 35t9.5 32.5t1 33.5t-7 37t-16.5 30t-28.5 12.5q-16 0 -30.5 -11.5t-25 -28 t-17.5 -33.5t-9 -31.5t-2 -35.5z" />
<glyph unicode="&#x152;" horiz-adv-x="1875" d="M131 182q-12 -74 33 -127t119 -53h536q29 0 60.5 9t58.5 28q47 -37 106 -37h615q14 0 32.5 4t36 13.5t29.5 21.5t17 31q2 18 -6.5 30.5t-22.5 21.5t-31.5 13t-32.5 4h-614q-33 0 -43 27l84 518h504q14 0 32.5 4t37 13.5t31.5 21.5t15.5 30.5t-6 31t-24 21.5t-32.5 13 t-32 4h-504q12 78 25.5 158t26.5 158q8 51 16 101t12 101q8 12 22.5 19.5t29.5 7.5h614q12 0 30.5 5t36 14.5t31 22.5t15.5 28q2 18 -6.5 30.5t-21.5 21.5t-30.5 13t-32.5 4h-614q-66 0 -121 -36q-43 39 -104 38h-537q-78 0 -137 -51t-72 -129zM262 182l182 1149 q4 16 20.5 28.5t35.5 12.5h536q41 0 35 -41l-182 -1151q-4 -16 -17.5 -27.5t-29.5 -11.5h-537q-18 0 -32.5 12.5t-10.5 28.5z" />
<glyph unicode="&#x153;" horiz-adv-x="1656" d="M131 184q-12 -76 31 -130t121 -54h381q63 0 116 41q43 -43 111 -43h455q14 0 32.5 4t36 12.5t30.5 21.5t17 32q2 18 -7 30.5t-24.5 19.5t-33 11t-31.5 4h-455q-14 0 -29.5 11.5t-13.5 17.5l19 119q4 37 12 69q10 43 53 69.5t88 26.5h303q37 0 73 15.5t63.5 41t47 58.5 t25.5 68l35 225q10 72 -35 124t-116 52h-381q-63 0 -119 -39q-23 18 -50.5 29.5t-58.5 11.5h-381q-78 0 -137 -49t-71 -127zM262 184l107 672q4 16 21.5 31.5t35.5 15.5h381q16 0 26.5 -14.5t6.5 -32.5l-107 -672q-4 -23 -17.5 -36t-31.5 -13h-381q-20 0 -32.5 14.5 t-8.5 34.5zM930 549l51 319q2 4 19.5 15.5t31.5 11.5h381q18 0 29.5 -12.5t7.5 -28.5l-35 -225q-4 -20 -18.5 -32.5t-32.5 -12.5h-303q-68 0 -131 -35z" />
<glyph unicode="&#x178;" d="M252 946q-8 -53 4 -99t40 -82t70 -56.5t95 -20.5h125l-90 -577q-2 -14 -1 -34t6 -36t15 -28.5t29 -12.5q14 0 28.5 13.5t25.5 30.5t19.5 35.5t10.5 31.5l90 577h119q51 0 100 20.5t89 56.5t66.5 82t34.5 99l74 459q2 14 1 32.5t-7 36t-16.5 30t-28.5 12.5 q-16 0 -31.5 -12.5t-26 -30t-17.5 -37t-9 -31.5l-74 -459q-8 -49 -47 -84t-86 -35h-377q-47 0 -75.5 36t-20.5 83l74 459q2 12 0 31.5t-7 37t-16.5 30t-27.5 12.5q-14 0 -28.5 -12.5t-27 -31t-19.5 -37t-9 -30.5zM635 1579q0 -18 6 -36.5t17.5 -31t29.5 -12.5 q16 0 30.5 11.5t25 28.5t17.5 35.5t9 31.5q2 14 1 33.5t-6 37t-15.5 29.5t-26.5 12t-31.5 -11t-27 -27.5t-18.5 -34t-9 -32t-2 -34.5zM827 1579q0 -18 4.5 -36.5t16 -31t29.5 -12.5t32.5 11.5t25.5 27.5t18.5 34.5t9.5 33t1 34t-6.5 37t-16.5 29.5t-30 12q-16 0 -30.5 -11 t-24.5 -27.5t-17.5 -34t-9.5 -32t-2 -34.5z" />
<glyph unicode="&#x2c6;" horiz-adv-x="741" d="M281 1190q-4 -16 5 -35.5t36 -19.5q20 0 49.5 24.5t60.5 58t56.5 67.5l37.5 50l74 -145q10 -23 22.5 -43.5t41.5 -20.5q27 0 43 21.5t20 38.5q2 12 0 23.5t0 23.5l-100 203q-10 23 -23.5 43t-46.5 20q-27 0 -51.5 -22.5t-40.5 -40.5q-25 -33 -50.5 -64t-54.5 -61 q-23 -29 -48 -56.5t-31 -64.5z" />
<glyph unicode="&#x2dc;" horiz-adv-x="849" d="M393 1268q14 -27 38 -42.5t58 -15.5q33 0 59.5 9.5t48 19.5t39 19.5t34.5 9.5q20 0 37 -27q14 -8 16 -13t27 -9l9 6t7 6q10 8 14 18q2 16 1 39t-13 39t-35.5 27.5t-46.5 11.5q-27 0 -48.5 -9t-40.5 -19.5t-38.5 -19.5t-44.5 -9q-23 0 -35 16t-28 59q-23 -43 -35.5 -67.5 t-22.5 -48.5z" />
<glyph unicode="&#x2000;" horiz-adv-x="1008" />
<glyph unicode="&#x2001;" horiz-adv-x="2017" />
<glyph unicode="&#x2002;" horiz-adv-x="1008" />
<glyph unicode="&#x2003;" horiz-adv-x="2017" />
<glyph unicode="&#x2004;" horiz-adv-x="672" />
<glyph unicode="&#x2005;" horiz-adv-x="504" />
<glyph unicode="&#x2006;" horiz-adv-x="336" />
<glyph unicode="&#x2007;" horiz-adv-x="336" />
<glyph unicode="&#x2008;" horiz-adv-x="252" />
<glyph unicode="&#x2009;" horiz-adv-x="403" />
<glyph unicode="&#x200a;" horiz-adv-x="112" />
<glyph unicode="&#x2010;" horiz-adv-x="724" d="M131 549q0 -8 10.5 -16.5t24.5 -14.5t28.5 -9t24.5 -3h330q8 0 26.5 3t36 9t31.5 14.5t14 16.5q2 12 -8 21.5t-25.5 15.5t-32 9t-28.5 3h-330q-12 0 -28.5 -3t-31.5 -9t-27.5 -15.5t-14.5 -21.5z" />
<glyph unicode="&#x2011;" horiz-adv-x="724" d="M131 549q0 -8 10.5 -16.5t24.5 -14.5t28.5 -9t24.5 -3h330q8 0 26.5 3t36 9t31.5 14.5t14 16.5q2 12 -8 21.5t-25.5 15.5t-32 9t-28.5 3h-330q-12 0 -28.5 -3t-31.5 -9t-27.5 -15.5t-14.5 -21.5z" />
<glyph unicode="&#x2012;" horiz-adv-x="724" d="M131 549q0 -8 10.5 -16.5t24.5 -14.5t28.5 -9t24.5 -3h330q8 0 26.5 3t36 9t31.5 14.5t14 16.5q2 12 -8 21.5t-25.5 15.5t-32 9t-28.5 3h-330q-12 0 -28.5 -3t-31.5 -9t-27.5 -15.5t-14.5 -21.5z" />
<glyph unicode="&#x2013;" horiz-adv-x="1177" d="M133 557q-2 -10 8.5 -18.5t25.5 -14.5t30.5 -10t25.5 -4h776q10 0 29 4t37 10t32.5 14.5t16.5 18.5q2 12 -9 21.5t-26.5 15.5t-33 10t-29.5 4h-776q-12 0 -29.5 -3t-34 -9t-29 -16.5t-14.5 -22.5z" />
<glyph unicode="&#x2014;" horiz-adv-x="1656" d="M133 559q-2 -10 9.5 -18.5t26.5 -14.5t31.5 -9t26.5 -3h1248q8 0 27.5 3t38 9t32.5 14.5t16 18.5q2 12 -9 21.5t-27.5 15.5t-34 10t-29.5 4h-1247q-12 0 -29.5 -3t-35 -9t-30 -16.5t-14.5 -22.5z" />
<glyph unicode="&#x2018;" horiz-adv-x="307" d="M244 1198q0 -16 4 -31.5t12.5 -26t20.5 -10.5q10 0 21 11.5t21.5 27t16.5 33t8 27.5l29 180q2 10 1 27.5t-6 33t-12.5 26.5t-17.5 11q-12 0 -23.5 -10t-20.5 -25.5t-15.5 -33t-8.5 -29.5l-28 -180q-2 -12 -2 -31z" />
<glyph unicode="&#x2019;" horiz-adv-x="307" d="M244 1198q0 -16 4 -31.5t12.5 -26t20.5 -10.5q10 0 21 11.5t21.5 27t16.5 33t8 27.5l29 180q2 10 1 27.5t-6 33t-12.5 26.5t-17.5 11q-12 0 -23.5 -10t-20.5 -25.5t-15.5 -33t-8.5 -29.5l-28 -180q-2 -12 -2 -31z" />
<glyph unicode="&#x201a;" horiz-adv-x="311" d="M35 -123q0 -18 4 -33.5t11.5 -27t19.5 -11.5q8 0 19 12.5t21.5 28t17.5 32t9 26.5l27 180q2 8 0 25.5t-7 33t-12.5 27.5t-15.5 12q-12 0 -22.5 -11t-19.5 -26.5t-15 -33t-9 -27.5l-26 -180q-2 -10 -2 -27z" />
<glyph unicode="&#x201c;" horiz-adv-x="491" d="M245 1199.5q1 -17.5 5 -33t13.5 -26t25.5 -10.5q12 0 25.5 11.5t24.5 27t18.5 33t9.5 27.5l28 180q2 10 0 27.5t-8 33t-15.5 26.5t-21.5 11q-16 0 -28.5 -10t-22.5 -25.5t-16.5 -33t-8.5 -29.5l-28 -180q-2 -12 -1 -29.5zM411 1199.5q1 -17.5 6 -33t14.5 -26t25.5 -10.5 q12 0 24.5 11.5t23.5 27t18 33t9 27.5l29 180q2 10 0 27.5t-7 33t-14.5 26.5t-21.5 11q-16 0 -28.5 -11t-22.5 -26.5t-17.5 -32t-9.5 -28.5l-28 -180q-2 -12 -1 -29.5z" />
<glyph unicode="&#x201d;" horiz-adv-x="491" d="M245 1199.5q1 -17.5 5 -33t13.5 -26t25.5 -10.5q12 0 25.5 11.5t24.5 27t18.5 33t9.5 27.5l28 180q2 10 0 27.5t-8 33t-15.5 26.5t-21.5 11q-16 0 -28.5 -10t-22.5 -25.5t-16.5 -33t-8.5 -29.5l-28 -180q-2 -12 -1 -29.5zM411 1199.5q1 -17.5 6 -33t14.5 -26t25.5 -10.5 q12 0 24.5 11.5t23.5 27t18 33t9 27.5l29 180q2 10 0 27.5t-7 33t-14.5 26.5t-21.5 11q-16 0 -28.5 -11t-22.5 -26.5t-17.5 -32t-9.5 -28.5l-28 -180q-2 -12 -1 -29.5z" />
<glyph unicode="&#x201e;" horiz-adv-x="491" d="M36 -115.5q1 -17.5 6 -33t14.5 -25.5t25.5 -10q12 0 25.5 11t23.5 26.5t17.5 33t9.5 27.5l28 180q2 10 0 27.5t-7 33t-15 27t-23 11.5q-16 0 -28.5 -10.5t-22.5 -26t-16 -33t-8 -29.5l-29 -180q-2 -12 -1 -29.5zM203 -86q-2 -12 0 -29.5t7 -33t14.5 -25.5t25.5 -10 q12 0 24.5 11t22.5 26.5t17.5 33t9.5 27.5l28 180q2 10 0 27.5t-7 33t-14 27t-22 11.5q-16 0 -28.5 -11.5t-22.5 -27t-17.5 -32t-9.5 -28.5z" />
<glyph unicode="&#x2022;" horiz-adv-x="540" d="M158 630.5q-4 -61.5 5 -119.5t34.5 -100t78.5 -42q51 0 90.5 38.5t67 92t44 112t22.5 97.5t8 96t-9.5 111.5t-38 92.5t-77.5 38q-47 0 -85 -35t-64.5 -85t-43 -104.5t-22.5 -91.5q-6 -39 -10 -100.5z" />
<glyph unicode="&#x2026;" horiz-adv-x="690" d="M66 86q-4 -27 5 -58.5t46 -31.5q31 0 51 29.5t24.5 52t-7 53.5t-42.5 31q-37 0 -55 -29t-22 -47zM244 88q-4 -27 5 -58.5t46 -31.5q35 0 53.5 28.5t22.5 53.5q4 23 -6.5 53.5t-42.5 30.5q-37 0 -55.5 -29t-22.5 -47zM422 88q-4 -25 5 -55.5t44 -30.5t54.5 28.5t23.5 53.5 t-6.5 54.5t-44.5 29.5q-37 0 -54.5 -29.5t-21.5 -50.5z" />
<glyph unicode="&#x202f;" horiz-adv-x="403" />
<glyph unicode="&#x2039;" horiz-adv-x="614" d="M147 508q-4 -35 12.5 -50.5t39 -31.5t45 -33.5t47.5 -34.5q23 -18 46 -36.5t58 -38.5l4 8l4 -2q6 -2 19 -2q37 0 70 39q6 33 -4.5 49t-30.5 31q-35 27 -71 52t-73 52q27 14 65 36.5t72.5 48.5t61.5 50.5t29 40.5q4 27 -13.5 38t-33.5 11q-29 0 -54.5 -13t-48.5 -28 q-41 -29 -83 -54.5t-83 -49.5q-23 -12 -48 -36t-30 -46z" />
<glyph unicode="&#x203a;" horiz-adv-x="614" d="M119 326q18 -39 57 -39q12 0 19 2l4 2l4 -8q41 20 70.5 38.5t58.5 36.5q29 16 56.5 34t55.5 34q12 8 23.5 14.5t21.5 14.5q29 25 31 53q4 23 -14.5 46.5t-34.5 35.5q-29 20 -56.5 40.5t-56.5 43.5q-25 20 -49 40.5t-61 20.5q-14 0 -37 -11t-27 -36q-4 -23 16.5 -48.5 t50.5 -50t60.5 -46t46.5 -31.5l-161 -98q-23 -14 -47.5 -28.5t-28.5 -45.5z" />
<glyph unicode="&#x205f;" horiz-adv-x="504" />
<glyph unicode="&#x2122;" horiz-adv-x="1640" d="M227 1444q-4 -16 6.5 -28.5t26.5 -21t33.5 -13.5t30.5 -5h127l-89 -563q-2 -10 0.5 -27.5t8.5 -35t15 -29.5t22 -12q18 0 32.5 11t24.5 27.5t17 35t10 30.5l88 563h127q12 0 31.5 5t39 14.5t34.5 22t17 26.5t-8 26.5t-26.5 21.5t-35 13t-30.5 4h-383q-12 0 -31.5 -4 t-38 -12t-33 -20.5t-16.5 -28.5zM732 780.5q1 -18.5 7 -35t16.5 -27.5t28.5 -11t32.5 11t25 27.5t17.5 35t9 32.5l84 528q2 16 16.5 26.5t30.5 10.5h142q16 0 30.5 -11t12.5 -21l-84 -535q-2 -14 -2 -33q0 -18 5 -34.5t16 -27.5t30 -11q16 0 30.5 11t24.5 28.5t17.5 36 t9.5 30.5l84 530q2 14 18.5 25.5t34.5 11.5h105q47 0 43 -37l-84 -528q-2 -14 -1 -32.5t7 -35t17.5 -27.5t29.5 -11t33.5 11t25.5 27.5t17.5 35t9.5 32.5l84 528q12 78 -38 125t-124 47h-104q-66 0 -121 -36q-43 37 -107 36h-141q-35 0 -70 -13t-62.5 -36.5t-46 -55.5 t-24.5 -67l-84 -528q-2 -14 -1 -32.5z" />
<glyph unicode="&#x25fc;" horiz-adv-x="1034" d="M0 0v1034h1034v-1034h-1034z" />
</font>
</defs>
</svg>
