<?xml version="1.0" standalone="no"?>
<!DOCTYPE svg PUBLIC "-//W3C//DTD SVG 1.1//EN" "http://www.w3.org/Graphics/SVG/1.1/DTD/svg11.dtd" >
<svg xmlns="http://www.w3.org/2000/svg">
<metadata></metadata>
<defs>
<font id="moondog_zeroitalic" horiz-adv-x="1183" >
<font-face units-per-em="2048" ascent="1638" descent="-410" />
<missing-glyph horiz-adv-x="512" />
<glyph horiz-adv-x="0" />
<glyph horiz-adv-x="682" />
<glyph horiz-adv-x="1019" d="M483 1296q-10 -68 27 -115.5t104 -47.5h50q31 0 60.5 13t54 34.5t42 51t23.5 64.5l10 58q10 68 -30 111.5t-101 43.5h-49q-68 0 -119 -44t-61 -111zM557 1296l10 58q4 31 34 56.5t61 25.5h49q31 0 48 -26t13 -56l-10 -58q-6 -37 -30.5 -59.5t-55.5 -22.5h-49 q-31 0 -53.5 23t-16.5 59z" />
<glyph horiz-adv-x="741" d="M313 1456q-4 -18 7.5 -45t31 -60.5t44 -74.5t46.5 -90q12 -27 25.5 -43.5t30.5 -16.5q16 0 37.5 15.5t37.5 44.5q76 94 112 136t51.5 62.5t19.5 30.5t16 41v2q2 8 -3 24.5t-19 16.5t-34 -16.5t-36 -42.5l-166 -207v-2q0 -14 -102 201q-14 27 -29.5 43t-30.5 16 q-4 0 -6 -2q-29 -8 -33 -33z" />
<glyph unicode="&#xd;" horiz-adv-x="1024" />
<glyph horiz-adv-x="1009" d="M29 41q-4 -18 16.5 -29.5t50.5 -11.5h721q31 0 53.5 11.5t26.5 29.5t-16.5 29.5t-51.5 11.5h-686q244 344 412 580.5t276.5 390t168 237.5t86 123t31.5 46l5 7q4 18 -15.5 29.5t-49.5 11.5h-721q-31 0 -54.5 -11t-27.5 -30q-2 -12 17.5 -26.5t50.5 -14.5h692zM559 1919 q-4 -37 39 -104.5t90 -165.5q14 -27 27.5 -43.5t29.5 -16.5t38 15.5t36 44.5q76 94 113 136t52 62.5t18.5 30.5t15.5 41l2 2q0 8 -4 24.5t-19 16.5q-14 0 -33.5 -16.5t-35.5 -42.5l-166 -207v-2q0 -14 -103 200q-14 27 -29.5 43.5t-29.5 16.5q-4 0 -6 -2q-16 -4 -23.5 -13.5 t-11.5 -19.5z" />
<glyph horiz-adv-x="839" d="M27 37q-4 -16 15 -26.5t54 -10.5h557q31 0 53.5 11.5t26.5 29.5t-16.5 29.5t-50.5 11.5h-523q184 225 311.5 380.5t209 256t127 155t66 81t24.5 31.5l4 5q4 18 -16.5 29.5t-51.5 11.5h-557q-31 0 -57.5 -11t-30.5 -29.5t19.5 -30t54.5 -11.5h522l-723 -882 q-18 -18 -18 -31zM387 1470q-4 -18 7.5 -44.5t30.5 -60.5t44 -75t47 -90q12 -27 25.5 -43t29.5 -16t38 15t38 44q51 61 83 100t51.5 62.5t29.5 36t15 22t8.5 19.5t11.5 30v3q2 8 -3 24t-20 16q-14 0 -33.5 -16t-35.5 -43l-166 -207v-2q0 -14 -103 201q-12 27 -28.5 43 t-30.5 16q-4 0 -6 -2q-29 -8 -33 -33z" />
<glyph unicode=" "  horiz-adv-x="512" />
<glyph unicode="&#x09;" horiz-adv-x="512" />
<glyph unicode="&#xa0;" horiz-adv-x="512" />
<glyph unicode="!" horiz-adv-x="389" d="M115 76q-6 -37 5 -59.5t23 -22.5q16 0 32 19.5t20 52.5q8 47 -1.5 69.5t-25.5 22.5q-12 0 -28.5 -20.5t-24.5 -61.5zM172 436q-4 -31 5 -56.5t22 -25.5q18 0 34.5 25.5t20.5 56.5l156 983q6 37 -2.5 59.5t-26.5 22.5q-12 0 -29.5 -22.5t-23.5 -59.5z" />
<glyph unicode="&#x22;" horiz-adv-x="491" d="M244 1212q-6 -37 1 -59.5t25 -22.5q12 0 31 22.5t25 59.5l32 213q6 37 -4 59.5t-22 22.5q-18 0 -33.5 -22.5t-22.5 -59.5zM449 1212q-6 -37 1 -59.5t25 -22.5q12 0 30.5 22.5t24.5 59.5l33 213q6 37 -4 59.5t-22 22.5q-18 0 -34 -22.5t-22 -59.5z" />
<glyph unicode="#" horiz-adv-x="1101" d="M133 649.5q-4 -18.5 16.5 -30t51.5 -11.5h205l-31 -196q-6 -37 1 -59.5t25 -22.5q12 0 26.5 22.5t21.5 59.5l30 196h238l-31 -196q-6 -37 4 -59.5t23 -22.5q18 0 33.5 22.5t21.5 59.5l31 196h196q37 0 60.5 11.5t27.5 29.5t-17.5 29.5t-57.5 11.5h-197l39 238h197 q37 0 60 11t28 30q2 12 -19.5 22t-58.5 10h-197l33 205q4 31 -3 52.5t-26 21.5q-12 0 -30.5 -21.5t-22.5 -52.5l-33 -205h-237l32 205q4 31 -2 52.5t-18 21.5q-18 0 -33.5 -21.5t-19.5 -52.5l-33 -205h-205q-31 0 -53.5 -10t-24.5 -22q-4 -18 16.5 -29.5t51.5 -11.5h205 l-39 -238h-205q-31 0 -53.5 -11t-26.5 -29.5zM492 690l38 238h238l-39 -238h-237z" />
<glyph unicode="$" d="M109 41q-4 -18 20.5 -29.5t54.5 -11.5h320l-12 -82q-6 -31 1 -56.5t25 -25.5q12 0 30.5 25.5t24.5 56.5l13 82h237q31 0 60.5 11.5t54.5 33t42.5 49t23.5 62.5l63 401q8 61 -31 108.5t-100 47.5h-238l88 557h312q37 0 60.5 11t27.5 30q4 12 -17.5 22t-58.5 10h-311l12 82 q6 37 -4 59.5t-23 22.5q-18 0 -33.5 -22.5t-21.5 -59.5l-12 -82h-238q-68 0 -123 -44t-65 -111l-64 -393q-10 -68 31 -116t109 -48h237l-88 -557h-319q-31 0 -58.5 -10.5t-29.5 -22.5zM309 795l64 393q4 31 30.5 56.5t63.5 25.5h238l-89 -557h-237q-37 0 -55.5 22.5 t-14.5 59.5zM598 74l88 557h238q31 0 48 -21.5t13 -52.5l-63 -401q-4 -31 -30 -56.5t-56 -25.5h-238z" />
<glyph unicode="%" horiz-adv-x="1576" d="M242 877q-10 -68 28.5 -116t100.5 -48h164q68 0 120 48t62 116l76 475q10 68 -27 111.5t-104 43.5h-164q-31 0 -60.5 -11t-54.5 -32.5t-42 -50.5t-24 -61zM324 877l75 475q4 31 29 52t55 21h164q31 0 53.5 -21.5t18.5 -51.5l-76 -475q-6 -37 -35.5 -59.5t-60.5 -22.5 h-164q-31 0 -48.5 22.5t-10.5 59.5zM350 33q-6 -27 6 -33q2 -2 6 -2q14 0 37 15.5t39 43.5l901 1358q2 0 4 2q25 35 27 58q4 27 -12 32q-2 2 -6 2q-14 0 -34 -16t-36 -43q-8 -8 -12 -15.5t-8 -15.5l-875 -1306q-8 -6 -16 -23q-16 -29 -21 -57zM922 156q-4 -31 4 -59.5 t26.5 -50t44 -34t56.5 -12.5h164q68 0 119 47.5t61 108.5l76 483q10 61 -27 108.5t-105 47.5h-163q-31 0 -61 -13.5t-54.5 -35t-41.5 -49t-24 -58.5zM1004 156l75 483q6 31 31 52.5t55 21.5h164q31 0 49.5 -21.5t12.5 -52.5l-76 -483q-4 -31 -29.5 -52.5t-56.5 -21.5h-164 q-31 0 -48.5 21.5t-12.5 52.5z" />
<glyph unicode="&#x26;" horiz-adv-x="1034" d="M127 156q-10 -61 26.5 -108.5t104.5 -47.5h569q31 0 53.5 11.5t26.5 29.5t-16.5 29.5t-50.5 11.5h-142l78 481h129q37 0 60.5 11.5t27.5 30t-17.5 29.5t-57.5 11h-130l31 195q4 31 -3 52t-25 21t-34 -21.5t-20 -51.5l-30 -195h-428l71 449q4 31 33 52t59 21h367 q31 0 54.5 14.5t25.5 26.5q4 18 -15.5 29.5t-50.5 11.5h-366q-68 0 -119 -44t-62 -111zM201 156l65 407h428l-78 -481h-346q-31 0 -52 21.5t-17 52.5z" />
<glyph unicode="'" horiz-adv-x="286" d="M244 1212q-6 -37 1 -59.5t25 -22.5q12 0 31 22.5t25 59.5l32 213q6 37 -4 59.5t-22 22.5q-18 0 -33.5 -22.5t-22.5 -59.5z" />
<glyph unicode="(" horiz-adv-x="405" d="M86 -100q-4 -31 4 -59.5t26.5 -50t44 -34t56.5 -12.5h74q31 0 57.5 11.5t30.5 29.5t-19.5 29.5t-54.5 11.5h-74q-31 0 -49 21.5t-14 52.5l268 1685q4 31 28.5 52.5t55.5 21.5h74q31 0 58.5 14.5t29.5 26.5q4 18 -19.5 29.5t-54.5 11.5h-73q-31 0 -61 -11.5t-54.5 -33 t-42 -50t-23.5 -61.5z" />
<glyph unicode=")" horiz-adv-x="405" d="M-147.5 -215q-4.5 -18 20.5 -29.5t55 -11.5h74q31 0 61.5 12.5t55 34t42 50t21.5 59.5l269 1685q10 68 -30 112t-102 44h-73q-31 0 -58.5 -11.5t-31.5 -29.5q-2 -12 21.5 -26.5t53.5 -14.5h74q31 0 49.5 -21.5t14.5 -52.5l-269 -1685q-4 -31 -28.5 -52.5t-55.5 -21.5h-73 q-31 0 -58.5 -11.5t-32 -29.5z" />
<glyph unicode="*" horiz-adv-x="868" d="M264 1024q0 -6 2 -8q8 -12 33 -12q29 0 57 20q4 2 10.5 4t23 10.5t46 24.5t82.5 45l-29 -174q-4 -31 4.5 -52.5t26.5 -21.5t32.5 21.5t18.5 52.5l29 174q41 -29 65.5 -44t39 -23.5t19.5 -11.5t9 -5q35 -20 58 -20q16 0 32 12q2 2 2 8q4 14 -8 31.5t-33 34.5l-3 2t-16 10 t-41 25.5t-77 48.5q59 31 92 48t48.5 25t19.5 10.5t6 2.5q23 10 40 28.5t19 34.5q2 4 0 10q-10 12 -28 13q-20 0 -62 -21l-10 -5t-22.5 -11t-46 -24.5t-82.5 -43.5l26 166q6 37 -2 59.5t-27 22.5q-18 0 -32.5 -22.5t-20.5 -59.5l-26 -166q-45 27 -71 43.5t-39 24.5t-17 11 t-6 5q-23 20 -54 21q-23 0 -37 -13q-2 -4 -2 -6l-2 -4q-2 -16 10.5 -34.5t32.5 -28.5q0 -4 4 -5l134 -81l-166 -86q-23 -16 -40.5 -34t-21.5 -32z" />
<glyph unicode="+" horiz-adv-x="1101" d="M213 694q-4 -12 16.5 -22t51.5 -10h278l-43 -279q-6 -37 1 -59.5t26 -22.5q18 0 33.5 22.5t21.5 59.5l43 279h279q31 0 57.5 10t30.5 22q4 18 -20.5 29.5t-55.5 11.5h-279l43 279q6 37 -1 59.5t-25 22.5t-33.5 -22.5t-22.5 -59.5l-43 -279h-278q-31 0 -53.5 -11 t-26.5 -30z" />
<glyph unicode="," horiz-adv-x="286" d="M33 -113q-6 -37 2 -59.5t26 -22.5q12 0 30 22.5t24 59.5l35 213q6 37 -5.5 59.5t-23.5 22.5q-18 0 -32.5 -22.5t-20.5 -59.5z" />
<glyph unicode="-" horiz-adv-x="724" d="M131 539q-4 -12 16.5 -22.5t51.5 -10.5h370q31 0 57.5 10.5t30.5 22.5q4 18 -20.5 29.5t-54.5 11.5h-371q-31 0 -53.5 -11.5t-26.5 -29.5z" />
<glyph unicode="." horiz-adv-x="286" d="M66 86q-14 -90 26 -90q16 0 31.5 21.5t21.5 60.5l2 8q4 35 -4 55.5t-24 20.5q-18 0 -33.5 -20.5t-19.5 -55.5z" />
<glyph unicode="/" horiz-adv-x="903" d="M6 33q-6 -27 6 -33q4 -2 11 -2q16 0 35.5 17.5t35.5 41.5l914 1360q8 14 12 27.5t8 25.5q4 31 -14 37q-2 2 -6 2q-14 0 -34 -16t-36 -43l-2 -2l-909 -1358q-16 -29 -21 -57z" />
<glyph unicode="0" d="M164 393q-12 -80 8.5 -151.5t65.5 -125t111.5 -85t146.5 -31.5h82q82 0 160.5 31.5t141 85t105.5 125t55 151.5l115 721q12 80 -7.5 151.5t-65.5 125t-114.5 85t-150.5 31.5h-82q-80 0 -156.5 -31.5t-139 -85t-105.5 -125t-55 -151.5zM246 393l114 721q10 63 43 120.5 t82.5 99.5t109.5 66.5t126 24.5h82q68 0 122 -24.5t91 -66.5t52 -99t5 -121l-115 -721q-10 -66 -43.5 -122t-83 -98t-112 -66.5t-129.5 -24.5h-82q-66 0 -118 24.5t-88 66.5t-51 98.5t-5 121.5z" />
<glyph unicode="1" horiz-adv-x="503" d="M236 1466q-2 -12 21.5 -26.5t53.5 -14.5h58q31 0 53 -21.5t18 -51.5l-202 -1270q-4 -37 3 -59.5t25 -22.5q12 0 26.5 22.5t18.5 59.5l203 1270q10 68 -26.5 111.5t-104.5 43.5h-57q-31 0 -58.5 -11t-31.5 -30z" />
<glyph unicode="2" horiz-adv-x="1175" d="M127 156q-10 -61 26.5 -108.5t104.5 -47.5h639q31 0 53.5 11.5t26.5 29.5t-16.5 29.5t-51.5 11.5h-639q-31 0 -52 21.5t-17 52.5l37 237q10 68 44.5 126.5t86 101.5t113 67.5t126.5 24.5h82q80 0 157 31.5t139.5 86t105.5 127t55 156.5l39 238q10 68 -27 111.5t-104 43.5 h-639q-31 0 -54.5 -11t-27.5 -30q-2 -12 17.5 -26.5t49.5 -14.5h639q31 0 53.5 -21.5t18.5 -51.5l-39 -238q-10 -68 -46 -126t-86 -101t-112.5 -67.5t-126.5 -24.5h-81q-84 0 -160 -32t-137.5 -86t-103.5 -128t-56 -156z" />
<glyph unicode="3" horiz-adv-x="1107" d="M33 41q-4 -18 17.5 -29.5t58.5 -11.5h630q33 0 66 12.5t58.5 34t43 50t21.5 59.5l37 237q20 119 -28 215.5t-140 145.5q109 49 186.5 145t95.5 215l39 238q10 68 -30.5 111.5t-108.5 43.5h-631q-37 0 -61.5 -11t-28.5 -30q-2 -12 18.5 -26.5t57.5 -14.5h631 q37 0 56 -21.5t15 -51.5l-39 -238q-10 -66 -42.5 -124t-81 -101t-108.5 -68.5t-126 -25.5h-332q-31 0 -53.5 -11.5t-26.5 -30t16.5 -29.5t51.5 -11h332q66 0 118 -25.5t85.5 -69t48 -101.5t4.5 -124l-37 -237q-4 -31 -31 -52.5t-63 -21.5h-631q-37 0 -60.5 -11.5 t-27.5 -29.5z" />
<glyph unicode="4" horiz-adv-x="1093" d="M242 877q-10 -68 29.5 -116t107.5 -48h319l-100 -631q-4 -37 2 -59.5t18 -22.5q18 0 34 22.5t20 59.5l100 631h238q37 0 60.5 11.5t27.5 29.5t-17.5 29.5t-58.5 11.5h-238l78 487q2 29 -5 49.5t-23 20.5q-12 0 -27.5 -26t-20.5 -56l-75 -475h-320q-37 0 -55.5 22.5 t-11.5 59.5l86 548q6 37 -1.5 59.5t-25.5 22.5q-12 0 -30.5 -22.5t-24.5 -59.5z" />
<glyph unicode="5" d="M108.5 41q-4.5 -18 17 -29.5t58.5 -11.5h631q33 0 65.5 12.5t58.5 34t43.5 50t21.5 59.5l36 237q14 82 -6 156t-66 128t-115 86t-151 32h-319q-31 0 -48.5 22.5t-10.5 59.5l75 475q4 31 29 52t55 21h639q31 0 58.5 14.5t29.5 26.5q4 18 -19.5 29.5t-53.5 11.5h-639 q-31 0 -60.5 -11t-54.5 -32.5t-42 -50.5t-24 -61l-75 -475q-10 -68 28.5 -116t100.5 -48h319q68 0 122 -24.5t90 -67.5t51.5 -101.5t4.5 -126.5l-36 -237q-4 -31 -31 -52.5t-64 -21.5h-630q-37 0 -60.5 -11.5t-28 -29.5z" />
<glyph unicode="6" d="M127 156q-4 -31 4 -59.5t26.5 -50t46 -34t62.5 -12.5h557q31 0 61.5 12.5t55.5 34t42.5 50t21.5 59.5l51 319q12 82 -7.5 156t-64.5 128t-111.5 86t-146.5 32h-319q-37 0 -56.5 21.5t-15.5 51.5l26 164q10 63 44 120.5t83.5 99.5t112 66.5t129.5 24.5h393q37 0 61.5 14.5 t26.5 26.5q4 18 -16 29.5t-57 11.5h-394q-84 0 -161.5 -31.5t-140 -85t-106.5 -125t-56 -151.5zM209 156l104 661q35 -23 78 -22h320q63 0 116.5 -25t89 -68t51 -101t5.5 -126l-51 -319q-4 -31 -30 -52.5t-56 -21.5h-557q-37 0 -55.5 21.5t-14.5 52.5z" />
<glyph unicode="7" horiz-adv-x="995" d="M229 51q-2 -23 7 -35q2 -2 6 -2q14 0 35.5 16.5t41.5 43.5q4 6 13 22l715 1215q2 2 14 17t27.5 42.5t19.5 54.5q6 33 -15.5 57.5t-95.5 24.5h-671q-37 0 -61.5 -11t-28.5 -30q-2 -12 18 -26.5t57 -14.5h672l13 -3q12 -3 8 -23q-4 -16 -23 -47l-731 -1246q-18 -35 -21 -55 z" />
<glyph unicode="8" horiz-adv-x="1175" d="M127 156q-10 -61 26.5 -108.5t104.5 -47.5h557q68 0 119 47.5t61 108.5l37 237q20 119 -27 215.5t-139 145.5q106 49 184 145t97 215l39 238q10 68 -27 111.5t-104 43.5h-557q-68 0 -119 -44t-62 -111l-38 -238q-18 -119 24.5 -215t134.5 -145q-106 -49 -180 -145.5 t-94 -215.5zM201 156l37 237q10 66 43.5 124t83 101.5t108.5 69t121 25.5h96q63 0 116.5 -24.5t88.5 -67.5t50.5 -101.5t4.5 -126.5l-37 -237q-4 -31 -29.5 -52.5t-56.5 -21.5h-557q-31 0 -52 21.5t-17 52.5zM352 1114l39 238q4 31 33 52t59 21h557q31 0 49.5 -21.5 t14.5 -51.5l-39 -238q-10 -66 -43 -124t-80 -101t-106.5 -68.5t-120.5 -25.5h-109q-61 0 -112.5 25.5t-86 68.5t-50 101.5t-5.5 123.5z" />
<glyph unicode="9" d="M108.5 41q-4.5 -18 20.5 -29.5t55 -11.5h394q82 0 160.5 31.5t141 85t105.5 125t55 151.5l154 959q10 68 -30 111.5t-101 43.5h-557q-68 0 -123 -44t-66 -111l-51 -320q-12 -84 7.5 -155.5t65.5 -124t113.5 -83t151.5 -30.5h320q31 0 48 -25.5t13 -56.5l-27 -164 q-10 -66 -43.5 -122t-83 -98t-112 -66.5t-129.5 -24.5h-393q-31 0 -57.5 -11.5t-31 -29.5zM348 1032l51 320q4 31 30 52t63 21h557q31 0 49 -21.5t14 -51.5l-104 -658q-31 18 -72 19h-320q-68 0 -122 25.5t-89.5 69.5t-51 101.5t-5.5 122.5z" />
<glyph unicode=":" horiz-adv-x="286" d="M66 86q-14 -90 26 -90q16 0 31.5 21.5t21.5 60.5l2 8q4 35 -4 55.5t-24 20.5q-18 0 -33.5 -20.5t-19.5 -55.5zM154 633q-14 -90 26 -90q16 0 31.5 21.5t21.5 60.5l3 8q4 35 -4.5 55.5t-24.5 20.5q-18 0 -33.5 -20.5t-19.5 -55.5z" />
<glyph unicode=";" horiz-adv-x="286" d="M33 -113q-6 -37 2 -59.5t26 -22.5q12 0 30 22.5t24 59.5l35 213q6 37 -5.5 59.5t-23.5 22.5q-18 0 -32.5 -22.5t-20.5 -59.5zM154 633q-14 -90 26 -90q16 0 31.5 21.5t21.5 60.5l3 8q4 35 -4.5 55.5t-24.5 20.5q-18 0 -33.5 -20.5t-19.5 -55.5z" />
<glyph unicode="&#x3c;" horiz-adv-x="817" d="M143 637q-8 -59 25 -74l489 -311q6 -2 13.5 -4t11.5 -2q25 0 31 22v6q2 12 -4.5 30t-22.5 22l-489 311l587 301q16 10 28.5 28.5t14.5 30.5l2 7q2 23 -24 22q-8 0 -25 -4l-585 -311q-16 -6 -30.5 -26.5t-19.5 -43.5z" />
<glyph unicode="=" horiz-adv-x="960" d="M115 499.5q-4 -18.5 19.5 -29.5t53.5 -11h639q31 0 54.5 11.5t27.5 29.5t-16.5 29.5t-50.5 11.5h-639q-31 0 -57.5 -11.5t-30.5 -30zM164 819q-4 -18 20.5 -29.5t55.5 -11.5h639q31 0 53 11.5t26 29.5q4 12 -15 26.5t-50 14.5h-639q-31 0 -58.5 -14.5t-31.5 -26.5z" />
<glyph unicode="&#x3e;" horiz-adv-x="817" d="M82 268q-7 -22 22 -22q4 0 11.5 2t13.5 4l592 311q16 6 28.5 24.5t16.5 49.5l2 4q4 23 -5 43.5t-24 26.5l-487 311q-16 4 -25 4q-27 0 -28 -22l-2 -7q-2 -12 4 -30.5t22 -28.5l490 -301l-588 -311q-16 -4 -28.5 -21.5t-14.5 -30.5v-6z" />
<glyph unicode="?" d="M334 1462q-2 -12 21.5 -26.5t54.5 -14.5h630q37 0 55.5 -21.5t14.5 -51.5l-49 -320q-6 -31 -33 -56.5t-63 -25.5h-312q-68 0 -123 -44t-65 -111l-51 -320q-4 -31 3 -56.5t25 -25.5t34 25.5t20 56.5l51 320q4 31 30.5 56t63.5 25h311q68 0 124.5 44t66.5 112l49 320 q10 68 -31 111.5t-108 43.5h-631q-31 0 -57.5 -11t-30.5 -30zM354 86q-14 -90 27 -90q16 0 31.5 21.5t21.5 60.5l2 8q4 35 -4 55.5t-24 20.5q-18 0 -34 -20.5t-20 -55.5z" />
<glyph unicode="@" horiz-adv-x="1339" d="M129 164q-10 -68 29 -116t100 -48h721q31 0 61.5 13.5t55 35t42 51t23.5 64.5h-82q-6 -37 -31.5 -59.5t-56.5 -22.5h-721q-31 0 -48 22.5t-11 59.5l141 893q6 37 31 59.5t55 22.5h721q31 0 49.5 -22.5t12.5 -59.5l-105 -656q-6 -37 -30.5 -59.5t-55.5 -22.5 q-37 0 -56.5 23t-12.5 59l65 418q10 68 -29 116t-100 48h-360q-31 0 -57.5 -11t-31 -29.5t20.5 -30t55 -11.5h361q29 0 47 -23.5t12 -66.5l-2 -4q-12 -59 -62.5 -101t-115.5 -42h-197q-35 0 -65.5 -13.5t-56 -35t-43 -49t-23.5 -58.5l-17 -107q-10 -68 30 -115.5t108 -47.5 h278q70 0 125 55q35 -55 113 -55q31 0 61.5 13t55 34.5t42 51.5t23.5 64l105 656q10 68 -30 116t-102 48h-720q-31 0 -61 -13.5t-54.5 -35t-42 -52t-23.5 -63.5zM444 401l17 107q4 31 30.5 52.5t63.5 21.5h197q45 0 87 15t76 42l-36 -238q-6 -37 -31 -59.5t-55 -22.5h-279 q-37 0 -56.5 23t-13.5 59z" />
<glyph unicode="A" d="M115 82q-1 -13 -1 -25q0 -21 4 -35q7 -22 25 -22t34 22.5t20 59.5l100 631h713l-101 -631q-4 -37 3.5 -59.5t25.5 -22.5q12 0 30.5 22.5t22.5 59.5l203 1270q2 13 2 26q0 52 -33 86q-41 44 -108 43h-557q-31 0 -60.5 -11t-54.5 -32.5t-42 -50.5t-24 -61zM309 795l90 557 q4 31 29 52t55 21h557q36 1 56 -21q16 -18 17 -42q0 -5 -1 -10l-90 -557h-713z" />
<glyph unicode="B" d="M127 156q-1 -10 -1 -20q0 -20 5 -40q8 -28 26.5 -49.5t46 -34t62.5 -12.5h320q80 0 156.5 31.5t138 85t104.5 125t55 151.5q6 36 6 70q0 77 -32 145q-46 96 -140 146q106 49 184.5 145t96.5 215q5 30 5 60q0 48 -12 92q-20 72 -65 125t-111.5 84.5t-146.5 31.5h-319 q-68 0 -123 -44t-66 -111zM209 156l88 557h414q61 0 112 -25.5t85 -69t47 -101.5q7 -33 7 -68q0 -27 -4 -56q-10 -66 -42.5 -122t-82 -98t-110.5 -66.5t-125 -24.5h-319q-37 0 -55 22q-15 18 -15 41q-1 5 0 11zM309 795l90 557q4 31 30 52t63 21h319q63 0 116.5 -24.5 t89.5 -66.5t51 -100q9 -34 9 -70q0 -24 -4 -50q-10 -66 -43 -124t-80 -101t-106.5 -68.5t-120.5 -25.5h-414z" />
<glyph unicode="C" horiz-adv-x="1083" d="M127 156q-1 -10 -1 -20q0 -20 5 -40q8 -28 26.5 -49.5t44 -34t56.5 -12.5h639q31 0 57.5 11.5t30.5 29.5t-20.5 29.5t-55.5 11.5h-639q-31 0 -48 21.5t-13 52.5l190 1196q4 31 29 52t55 21h639q31 0 58.5 14.5t29.5 26.5q1 3 1 5q-1 15 -21 25q-24 12 -53 11h-639 q-31 0 -60.5 -11t-54.5 -32.5t-42 -50.5t-24 -61z" />
<glyph unicode="D" d="M127 156q-1 -10 -1 -20q0 -20 5 -40q8 -28 26.5 -49.5t44 -34t56.5 -12.5h320q82 0 160.5 31.5t141 85t105.5 125t55 151.5l115 721q5 30 5 60q0 48 -12 92q-20 72 -66 125t-114.5 84.5t-150.5 31.5h-319q-31 0 -60.5 -11t-54.5 -32.5t-42 -50.5t-24 -61zM209 156 l190 1196q4 31 29 52t55 21h320q68 0 122 -24.5t91 -66.5t52 -99q9 -34 9 -71q0 -24 -4 -50l-115 -721q-10 -66 -43.5 -122t-83 -98t-112 -66.5t-129.5 -24.5h-320q-31 0 -48 22q-14 17 -13 41q-1 5 0 11z" />
<glyph unicode="E" horiz-adv-x="1081" d="M127 156q-2 -13 -2 -26q1 -46 29 -82q36 -48 104 -48h639q31 0 53.5 11.5t26.5 29.5t-16.5 29.5t-51.5 11.5h-639q-31 0 -52 21.5t-17 52.5l88 557h557q37 0 60.5 11t27.5 29.5t-17.5 30t-58.5 11.5h-557l90 557q4 31 33 52t59 21h639q31 0 54.5 14.5t25.5 26.5q1 3 1 6 q-1 14 -17 24q-20 12 -49 11h-639q-68 0 -119 -44t-62 -111z" />
<glyph unicode="F" horiz-adv-x="1073" d="M115 82q-1 -13 -1 -25q0 -21 4 -35q7 -22 25 -22q12 0 26.5 22.5t18.5 59.5l101 631h557q37 0 60.5 11t27.5 29.5t-17.5 30t-58.5 11.5h-557l90 557q4 31 33 52t59 21h639q31 0 54.5 14.5t25.5 26.5q1 3 1 6q-1 14 -17 24q-20 12 -49 11h-639q-68 0 -119 -44t-62 -111z " />
<glyph unicode="G" d="M125 125q0 -16 4 -23q0 -8 2 -12q12 -31 43 -59q4 -4 7 -5t7 -6q10 -8 23 -10q6 -4 22 -8q10 -2 33 -2h576q4 2 12 2q4 2 8 3t10 3q12 4 17 6q12 6 23.5 12.5t21.5 16.5q6 4 12 10t12 13q25 27 37 59q2 8 4.5 15.5t4.5 15.5l75 483q2 6 2 18v13q-4 33 -18 59q0 2 -2 2v2 q-25 35 -53 49q-4 2 -7 2q-2 0 -6 2q-4 0 -6 2q-18 6 -41 7h-319q-14 0 -23 -2h-6q-2 0 -2 -2h-2q-4 0 -6 -1.5t-6 -1.5q-2 -2 -4 -2q-37 -12 -39 -32v-4q-2 -10 14 -23q8 -4 14 -6q4 -2 8.5 -4t10.5 -2q10 -2 28 -2h326q6 0 8 -2q8 -2 13.5 -4t11.5 -6.5t14 -16.5 q2 -2 2 -4t2 -4t2 -6q2 -2 0 -4q2 -4 2 -11q0 -6 2 -10l-77 -489q-4 -18 -11 -27q0 -4 -2 -6l-4 -4q-2 -4 -8 -10q-2 -4 -14 -13q-2 -2 -4 -3t-5 -3q-16 -8 -38 -8h-576q-2 0 -3 1t-3 1q-2 2 -4 2t-6 2q-8 4 -11 6q-2 0 -3 1t-3 1q-20 20 -20 45q0 7 2 15l192 1210 q2 8 7.5 15.5t11.5 13.5q4 6 16 14l2 2q2 0 4 2h2q0 2 2 2q6 4 11 4q6 0 10 2q2 2 6 2q4 2 10 2h639q20 0 31 2q2 0 4 1.5t4 1.5q4 2 6 2t7 2q10 4 17 9t11 11q2 0 6 4v2q2 2 2 6l2 4q0 2 -2 5q0 6 -4 10l-8 8l-8 4l-8 4q-4 0 -5 1t-6 1q-2 0 -3 1t-3 1q-4 0 -7 1t-7 1h-659 q-2 0 -4.5 -1t-4.5 -1q-12 -2 -22 -4t-21 -6q-6 0 -14 -4q-39 -18 -70 -51q-25 -31 -32 -62q-6 -12 -7 -26l-192 -1215v-6v-6z" />
<glyph unicode="H" horiz-adv-x="1175" d="M115 82q-1 -13 -1 -25q0 -21 4 -35q7 -22 25 -22q12 0 31 22.5t23 59.5l100 631h713l-101 -631q-4 -37 3.5 -59.5t25.5 -22.5q12 0 26.5 22.5t18.5 59.5l213 1343q3 18 3 33q0 14 -3 26q-6 22 -18 23q-18 0 -34 -22.5t-22 -59.5l-100 -630h-713l101 630q6 37 -4.5 59.5 t-22.5 22.5q-18 0 -33.5 -22.5t-21.5 -59.5z" />
<glyph unicode="I" horiz-adv-x="389" d="M115 82q-1 -13 -1 -25q0 -21 4 -35q7 -22 25 -22q12 0 31 22.5t23 59.5l213 1343q2 13 3 25q1 20 -7 34q-10 22 -23 23q-18 0 -33.5 -22.5t-21.5 -59.5z" />
<glyph unicode="J" horiz-adv-x="1081" d="M6 41q-1 -3 -1 -5q0 -15 19 -24q21 -12 58 -12h631q33 0 65.5 12.5t58 34t43 50t21.5 59.5l201 1269q2 13 2 25q0 20 -6 34q-11 23 -23 23q-18 0 -33.5 -22.5t-21.5 -59.5l-201 -1269q-4 -31 -30.5 -52.5t-63.5 -21.5h-631q-37 0 -60.5 -11.5t-27.5 -29.5z" />
<glyph unicode="K" d="M115 82q-1 -11 -1 -20q0 -24 7 -40q10 -22 22 -22q18 0 34 22.5t20 59.5l100 631l422 118q21 5 41 5q32 0 62 -13q50 -22 85 -69q35 -48 53 -112q11 -41 11 -82q0 -24 -4 -48l-58 -430q-4 -37 3.5 -59.5t25.5 -22.5t33.5 22.5t19.5 59.5l58 430q6 36 6 69q0 79 -33 146 q-47 96 -139 145q106 49 184 145.5t96 215.5l41 192q3 17 3 31q0 16 -4 28q-7 22 -25 23q-18 0 -34 -22.5t-22 -59.5l-41 -192q-10 -68 -39.5 -118t-75.5 -87t-108.5 -64.5t-138.5 -50.5l-410 -118l101 630q6 37 -1.5 59.5t-25.5 22.5q-12 0 -30.5 -22.5t-24.5 -59.5z" />
<glyph unicode="L" horiz-adv-x="1075" d="M127 156q-2 -13 -2 -26q1 -46 29 -82q36 -48 104 -48h639q31 0 53.5 11.5t26.5 29.5q1 3 1 6q0 13 -18 23q-20 12 -51 12h-639q-31 0 -52 21.5t-17 52.5l200 1269q6 37 0 59.5t-18 22.5q-18 0 -33.5 -22.5t-21.5 -59.5z" />
<glyph unicode="M" horiz-adv-x="1658" d="M115 82q-1 -13 -1 -25q0 -21 4 -35q7 -22 25 -22t34 22.5t20 59.5l202 1270q4 31 29 52t55 21h402q29 0 51 -19.5t20 -47.5l-202 -1278q-6 -37 1 -59.5t25 -22.5t29.5 22.5t17.5 59.5l203 1272q4 31 33 52t59 21h394q37 0 56 -21.5t15 -51.5l-203 -1270q-4 -37 3.5 -59.5 t25.5 -22.5t33.5 22.5t19.5 59.5l203 1270q2 13 2 26q0 52 -33 86q-41 44 -108 43h-393q-37 0 -71 -14t-56 -37q-18 23 -46 37t-65 14h-401q-31 0 -60.5 -11t-54.5 -32.5t-42 -50.5t-24 -61z" />
<glyph unicode="N" horiz-adv-x="1175" d="M115 82q-1 -13 -1 -25q0 -21 4 -35q7 -22 25 -22q12 0 31 22.5t23 59.5l202 1270q4 31 29 52t55 21h557q31 0 53.5 -21.5t18.5 -51.5l-203 -1270q-4 -37 3.5 -59.5t25.5 -22.5q12 0 26.5 22.5t18.5 59.5l203 1270q2 14 2 28q0 50 -29 84q-37 44 -104 43h-557 q-68 0 -119 -44t-62 -111z" />
<glyph unicode="O" horiz-adv-x="1175" d="M127 156q-2 -13 -2 -26q1 -46 29 -82q36 -48 104 -48h557q68 0 119 47.5t61 108.5l191 1196q2 14 2 28q0 50 -29 84q-37 44 -104 43h-557q-68 0 -119 -44t-62 -111zM201 156l190 1196q4 31 33 52t59 21h557q32 1 50 -21q15 -18 15 -42q0 -5 -1 -10l-191 -1196 q-4 -31 -29.5 -52.5t-56.5 -21.5h-557q-31 0 -52 22q-18 18 -17 42q-1 5 0 10z" />
<glyph unicode="P" d="M115 82q-1 -13 -1 -25q0 -21 4 -35q7 -22 25 -22t34 22.5t20 59.5l100 631h631q53 0 99 29.5t71 76.5q6 10 11 25t9 33l76 475q2 13 2 26q0 52 -33 86q-41 44 -108 43h-549q-68 0 -123 -44t-66 -111zM309 795l90 557q4 31 30 52t63 21h548q36 1 56 -21q16 -18 17 -42 q0 -5 -1 -10l-76 -475q-6 -37 -32.5 -59.5t-63.5 -22.5h-631z" />
<glyph unicode="Q" d="M72 -197q-1 -3 -1 -5q0 -15 19 -24q21 -12 57 -12h672q70 0 97.5 24t33.5 54q4 27 -3 55.5t-14 45t-9 18.5l-25 61q41 23 70 59t35 77l190 1196q2 13 2 26q0 51 -33 86q-41 43 -108 43h-557q-31 0 -60.5 -11t-54.5 -32.5t-42 -50.5t-24 -61l-190 -1196q-4 -31 4 -59.5 t26.5 -50t44 -34t56.5 -12.5h561l33 -82q12 -31 8 -47q-4 -20 -16 -23l-13 -4h-671q-37 0 -61.5 -14t-26.5 -27zM209 156l190 1196q4 31 29 52t55 21h557q37 0 56 -21q17 -18 17 -42q0 -5 -1 -10l-190 -1196q-4 -23 -17.5 -38.5t-32.5 -25.5l-319 842q-10 25 -24.5 40 t-28.5 15q-6 0 -13 -6q-10 -6 -18 -33q-4 -25 6 -49l311 -819h-516q-31 0 -48 22q-14 17 -14 41q0 5 1 11z" />
<glyph unicode="R" d="M115 82q-1 -13 -1 -25q0 -21 4 -35q7 -22 25 -22t34 22.5t20 59.5l100 631h393q68 0 122 -24.5t90 -67.5t52 -101q9 -34 9 -72q0 -27 -5 -55l-49 -311q-4 -37 3.5 -59.5t25.5 -22.5t33.5 22.5t19.5 59.5l49 311q6 34 6 66q0 61 -20 115q-30 83 -94 139h4q47 0 92 29.5 t70 76.5q12 18 18 49l78 484q2 14 2 26q0 50 -32 86q-40 44 -101 43h-557q-68 0 -123 -44t-66 -111zM309 795l90 557q4 31 30 52t63 21h557q31 1 49 -21q15 -18 15 -41q0 -5 -1 -11l-76 -475q-6 -37 -31.5 -59.5t-56.5 -22.5h-639z" />
<glyph unicode="S" d="M108 41q-1 -3 0 -6q0 -13 18 -23q22 -12 58 -12h631q33 0 65.5 12.5t58.5 34t43.5 50t21.5 59.5l75 483q2 12 2 24q-1 47 -33 85q-40 48 -108 47h-557q-31 0 -48.5 22.5t-10.5 59.5l75 475q4 31 29 52t55 21h639q31 0 58.5 14.5t29.5 26.5q1 3 1 5q-1 15 -21 25 q-24 12 -53 11h-639q-31 0 -60.5 -11t-54.5 -32.5t-42 -50.5t-24 -61l-75 -475q-2 -14 -2 -27q0 -51 30 -89q38 -48 101 -48h557q37 0 56.5 -21.5t12.5 -52.5l-75 -483q-4 -31 -31 -52.5t-64 -21.5h-630q-37 0 -61 -11.5t-28 -29.5z" />
<glyph unicode="T" horiz-adv-x="987" d="M236 1464q0 -10 18 -24q20 -14 57 -15h320l-213 -1343q-4 -37 2 -59.5t18 -22.5q18 0 33.5 22.5t20.5 59.5l213 1343h319q31 0 58.5 14.5t29.5 26.5q1 3 1 5q-1 15 -21 25q-24 12 -54 11h-712q-38 0 -62 -11q-28 -13 -28 -32z" />
<glyph unicode="U" d="M129 164q-2 -15 -2 -29q-1 -50 27 -87q36 -48 104 -48h557q33 0 65.5 13.5t58.5 35t43.5 51t23.5 64.5l200 1270q1 9 1 17q0 20 -7 35q-10 21 -22 21q-18 0 -34 -21.5t-20 -51.5l-200 -1270q-6 -37 -33 -59.5t-64 -22.5h-557q-31 0 -48 22.5t-11 59.5l201 1270 q4 31 -6.5 52t-22.5 21q-18 0 -33.5 -21.5t-19.5 -51.5z" />
<glyph unicode="V" horiz-adv-x="995" d="M241 1444q1 -12 3 -27l121 -1351q4 -31 21 -48.5t42 -17.5q31 0 52.5 16.5t37.5 40.5q147 344 249.5 582t169.5 392.5t103.5 240.5t53 127t20.5 51t4 12q1 8 1 14q0 23 -17 31q-2 2 -6 2q-12 0 -32 -17t-30 -50l-594 -1360l-118 1368q-6 27 -17.5 43t-28.5 16 q-6 0 -10 -2q-18 -6 -24 -41q-1 -7 -1 -14v-8z" />
<glyph unicode="W" horiz-adv-x="1658" d="M127 152q-2 -13 -2 -26q0 -51 33 -86q41 -44 108 -44h393q37 0 70 14.5t57 36.5q16 -23 45 -37t66 -14h401q31 0 61 11t54.5 32.5t42 49.5t23.5 63l200 1269q3 16 3 29q0 18 -5 30q-8 22 -26 23q-18 0 -32.5 -22.5t-21.5 -59.5l-200 -1269q-4 -31 -30 -52.5t-56 -21.5 h-402q-29 0 -51 19.5t-20 47.5l202 1278q6 37 -1 59.5t-25 22.5t-29.5 -22.5t-17.5 -59.5l-201 -1271q-4 -31 -34 -52.5t-60 -21.5h-393q-37 0 -55.5 21.5t-14.5 52.5l201 1269q6 37 -2.5 59.5t-26.5 22.5t-32.5 -22.5t-20.5 -59.5z" />
<glyph unicode="X" d="M115 82q-1 -13 -1 -25q0 -21 4 -35q7 -22 25 -22t34 22.5t20 59.5l75 475q6 33 23.5 61.5t42 50t54.5 33t61 11.5h401q68 0 104 -44q29 -35 29 -84q0 -14 -2 -28l-76 -475q-4 -37 3.5 -59.5t25.5 -22.5t33.5 22.5t19.5 59.5l76 475q3 20 3 39q0 40 -14 74q-20 52 -63 84 q53 33 89 84t46 112l76 475q3 17 3 31q0 16 -4 28q-7 22 -25 23q-18 0 -34 -22.5t-22 -59.5l-75 -475q-4 -31 -19.5 -58.5t-39 -49t-53.5 -34.5t-63 -13h-413q-31 0 -55.5 13t-42 34.5t-24.5 49.5t-3 58l76 475q6 37 -1.5 59.5t-25.5 22.5t-33.5 -22.5t-21.5 -59.5l-76 -475 q-3 -19 -3 -38q1 -40 15 -74q22 -52 62 -84q-53 -33 -89 -84.5t-47 -112.5z" />
<glyph unicode="Y" d="M252 950q-3 -20 -3 -38q0 -28 7 -54q12 -43 40 -75.5t67.5 -51t89.5 -18.5h163l-100 -631q-4 -37 3 -59.5t26 -22.5q12 0 30.5 22.5t22.5 59.5l100 631h156q49 0 95 18.5t83 51t62.5 75.5t33.5 92l76 475q3 17 3 31q0 16 -4 28q-7 23 -25 23t-34 -22.5t-22 -59.5 l-75 -475q-10 -61 -61.5 -108t-119.5 -47h-401q-31 0 -56.5 12t-44 33.5t-26.5 50.5t-4 59l76 475q6 37 -1.5 59.5t-25.5 22.5q-12 0 -30.5 -22.5t-24.5 -59.5z" />
<glyph unicode="Z" horiz-adv-x="1009" d="M29 41q-1 -3 -1 -6q0 -13 18 -23q20 -12 50 -12h721q31 0 53.5 11.5t26.5 29.5t-16.5 29.5t-51.5 11.5h-686q244 344 412 580.5t276.5 390t168 237.5t86 123t31.5 46l5 7q1 3 1 6q-1 14 -17 24q-20 12 -49 11h-721q-31 0 -54.5 -11t-27.5 -30q-2 -12 17.5 -26.5 t50.5 -14.5h692z" />
<glyph unicode="[" horiz-adv-x="405" d="M86 -100q-4 -31 4 -59.5t26.5 -50t44 -34t56.5 -12.5h74q31 0 57.5 11.5t30.5 29.5t-19.5 29.5t-54.5 11.5h-74q-31 0 -49 21.5t-14 52.5l268 1685q4 31 28.5 52.5t55.5 21.5h74q31 0 58.5 14.5t29.5 26.5q4 18 -19.5 29.5t-54.5 11.5h-73q-31 0 -61 -11.5t-54.5 -33 t-42 -50t-23.5 -61.5z" />
<glyph unicode="\" horiz-adv-x="911" d="M241 1448.5q1 -14.5 5 -31.5l479 -1360q10 -25 24.5 -42t30.5 -17q6 0 11 2q12 6 18 33q2 23 -4 57l-481 1358v2q-6 27 -21.5 43t-32.5 16q-6 0 -10 -2q-14 -6 -18 -32q-2 -12 -1 -26.5z" />
<glyph unicode="]" horiz-adv-x="405" d="M-147.5 -215q-4.5 -18 20.5 -29.5t55 -11.5h74q31 0 61.5 12.5t55 34t42 50t21.5 59.5l269 1685q10 68 -30 112t-102 44h-73q-31 0 -58.5 -11.5t-31.5 -29.5q-2 -12 21.5 -26.5t53.5 -14.5h74q31 0 49.5 -21.5t14.5 -52.5l-269 -1685q-4 -31 -28.5 -52.5t-55.5 -21.5h-73 q-31 0 -58.5 -11.5t-32 -29.5z" />
<glyph unicode="^" horiz-adv-x="741" d="M188 1053q-4 -27 15 -33q2 -2 6 -2q14 0 34.5 16.5t41.5 42.5q92 115 143 178.5t75.5 92t30 35t7.5 8.5l161 -314q8 -27 22.5 -43t29.5 -16q4 0 6 2q20 6 26 37q2 23 -4 53q-2 2 -6 10t-20.5 39t-49 96.5t-94.5 182.5q-6 29 -22.5 44t-32.5 15t-34.5 -16.5t-41.5 -42.5 q-90 -111 -142 -173.5t-77.5 -95t-34 -43t-10.5 -16.5q-12 -16 -18 -30.5t-11 -26.5z" />
<glyph unicode="_" horiz-adv-x="909" d="M6 0q-2 -12 17.5 -22.5t50.5 -10.5h645q31 0 58.5 10.5t29.5 22.5q4 18 -20.5 29.5t-55.5 11.5h-645q-31 0 -53.5 -11.5t-26.5 -29.5z" />
<glyph unicode="`" horiz-adv-x="561" d="M374 1452.5q1 -14.5 5 -31.5l61 -194q8 -27 21.5 -43.5t27.5 -16.5q4 0 7 2q22 6 26 37q6 23 -4 54q-29 90 -42 134t-21 60h2l-2 4v2q-12 23 -24.5 38t-27.5 15q-6 0 -10 -2q-12 -6 -18 -32q-2 -12 -1 -26.5z" />
<glyph unicode="a" horiz-adv-x="1019" d="M127 156q-1 -10 -1 -20q0 -20 5 -40q8 -28 26.5 -49.5t46 -34t62.5 -12.5h393q68 0 119.5 47.5t61.5 108.5l114 721q2 13 2 26q0 46 -28 82q-36 47 -105 47h-475q-37 0 -60.5 -11t-27.5 -29.5t16.5 -30t57.5 -11.5h475q31 0 53.5 -21.5t18.5 -51.5q-10 -66 -61.5 -106 t-127.5 -62l-321 -99q-31 -10 -61.5 -24.5t-57.5 -34t-45.5 -46t-24.5 -59.5zM209 156l55 290q6 37 27.5 51.5t66.5 30.5l322 99q70 20 103.5 36.5t70.5 47.5l-88 -555q-4 -31 -34 -52.5t-60 -21.5h-393q-37 0 -55 22q-15 18 -15 41q-1 5 0 11z" />
<glyph unicode="b" horiz-adv-x="1028" d="M127 156q-1 -10 -1 -20q0 -20 5 -40q8 -28 26.5 -49.5t46 -34t62.5 -12.5h393q33 0 66 12.5t58.5 34t43 50t21.5 59.5l115 721l2 20q0 49 -34 88q-40 47 -108 47h-311q-47 0 -92 -15.5t-82 -43.5l72 452q6 37 -1.5 59.5t-25.5 22.5q-12 0 -30.5 -22.5t-24.5 -59.5z M209 156l102 645q10 66 65.5 107.5t121.5 41.5h311q37 0 57 -22q16 -18 16 -41q0 -5 -1 -10l-115 -721q-4 -31 -30.5 -52.5t-63.5 -21.5h-393q-37 0 -55 22q-15 18 -15 41q-1 5 0 11z" />
<glyph unicode="c" horiz-adv-x="937" d="M127 156q-1 -10 -1 -20q0 -20 5 -40q8 -28 26.5 -49.5t44 -34t56.5 -12.5h483q31 0 53.5 11.5t26.5 29.5t-16.5 29.5t-50.5 11.5h-484q-31 0 -48 21.5t-13 52.5l115 721q4 31 28.5 52t55.5 21h483q31 0 55 12q23 12 27 30q1 3 1 5q0 14 -18 24q-20 11 -51 11h-483 q-31 0 -61.5 -13t-55 -34.5t-42 -49.5t-21.5 -58z" />
<glyph unicode="d" horiz-adv-x="1028" d="M127 156q-1 -10 -1 -20q0 -20 5 -40q8 -28 26.5 -49.5t46 -34t62.5 -12.5h393q33 0 66 12.5t58.5 34t43 50t21.5 59.5l201 1269q2 13 2 25q-1 20 -7 34q-10 22 -22 23q-18 0 -33.5 -22.5t-21.5 -59.5l-72 -452q-29 29 -64.5 44t-80.5 15h-320q-35 0 -66.5 -13t-57 -34.5 t-43 -49.5t-21.5 -58zM209 156l115 721q4 31 29.5 52t62.5 21h319q59 0 101 -42q34 -33 34 -81q0 -12 -2 -26l-102 -645q-4 -31 -30.5 -52.5t-63.5 -21.5h-393q-37 0 -55 22q-15 18 -15 41q-1 5 0 11z" />
<glyph unicode="e" horiz-adv-x="1019" d="M127 156q-2 -13 -2 -26q1 -46 29 -82q36 -48 104 -48h475q37 0 60.5 11.5t27.5 29.5t-16.5 29.5t-56.5 11.5h-476q-31 0 -53 21.5t-18 52.5q8 68 28.5 114.5t49 77.5t63.5 49.5t72 30.5l321 98q31 10 61.5 24.5t57.5 34t45.5 45t24.5 60.5l30 187q1 10 1 20q-1 49 -33 88 q-40 47 -107 47h-393q-68 0 -119 -47t-61 -108zM252 426l63 451q4 31 34 52t61 21h393q37 0 55 -22q15 -17 15 -39q0 -6 -1 -12l-30 -187q-6 -37 -27.5 -51t-66.5 -31l-322 -98q-35 -10 -59.5 -19.5t-44 -18.5t-36 -20.5t-34.5 -25.5z" />
<glyph unicode="f" horiz-adv-x="843" d="M47 -481q-1 -13 -1 -25q0 -20 4 -34q7 -23 26 -23q18 0 33.5 22.5t19.5 59.5l205 1431h393q37 0 61.5 11.5t28.5 30t-17.5 29.5t-58.5 11h-393l51 320q4 31 29 52t55 21h402q31 0 58.5 14.5t29.5 26.5q1 3 1 5q0 15 -20 25q-24 11 -55 11h-401q-31 0 -60.5 -11 t-54.5 -32.5t-42 -50.5t-24 -61z" />
<glyph unicode="g" horiz-adv-x="1019" d="M20 -516v-7q0 -14 18 -23q21 -11 58 -11h475q68 0 120.5 48t62.5 116l200 1270q2 13 2 26q0 45 -28 82q-37 47 -105 47h-401q-31 0 -61.5 -13t-55 -34.5t-42 -49.5t-21.5 -58l-115 -721q-4 -31 4 -59.5t26.5 -50t44 -34t56.5 -12.5h320q45 0 87 15.5t76 41.5l-69 -450 q-6 -37 -32 -59.5t-56 -22.5h-475q-37 0 -60.5 -11.5t-28.5 -29.5zM209 156l115 721q4 31 28.5 52t55.5 21h401q31 0 49 -22q15 -16 15 -39q0 -6 -1 -12l-104 -654q-10 -61 -61.5 -101t-116.5 -40h-320q-31 0 -48 22q-14 17 -14 41q0 5 1 11z" />
<glyph unicode="h" horiz-adv-x="1019" d="M115 82q-1 -13 -1 -25q0 -21 4 -35q7 -22 25 -22q12 0 31 22.5t23 59.5l114 725q10 63 61.5 103t116.5 40h320q31 0 49.5 -21.5t13.5 -51.5l-127 -795q-4 -37 6.5 -59.5t22.5 -22.5q18 0 33.5 22.5t19.5 59.5l127 795q2 13 2 26q0 46 -28 82q-36 47 -105 47h-319 q-45 0 -88 -15.5t-78 -43.5l72 452q6 37 -4.5 59.5t-22.5 22.5q-18 0 -33.5 -22.5t-21.5 -59.5z" />
<glyph unicode="i" horiz-adv-x="458" d="M123 147q-2 -13 -2 -26q-1 -45 27 -82q36 -47 104 -47q31 0 54.5 11.5t27.5 29.5q2 18 -17.5 29.5t-48.5 11.5q-31 2 -53 22.5t-18 50.5l129 807q6 37 -1.5 59.5t-19.5 22.5q-18 0 -32.5 -22.5t-20.5 -59.5zM301 1282q-4 -23 -4 -40q0 -50 31 -50q16 0 32.5 21.5 t22.5 60.5v8q2 14 2 26q0 18 -5 30q-9 20 -26 20q-18 0 -32.5 -20.5t-20.5 -55.5z" />
<glyph unicode="j" horiz-adv-x="401" d="M-360 -518q0 -11 20 -20q21 -11 57 -11h238q31 0 60.5 11.5t54 33t42 49t23.5 62.5l213 1351q4 31 -3 52.5t-26 21.5q-18 0 -33.5 -21.5t-19.5 -52.5l-213 -1351q-6 -31 -31.5 -56.5t-56.5 -25.5h-237q-37 0 -60 -11q-28 -14 -28 -32zM318 1278q-4 -17 -4 -31 q0 -16 4 -29q8 -22 26 -22t33.5 22.5t21.5 59.5q3 16 3 29q0 18 -5 31q-8 22 -26 22t-32.5 -22.5t-20.5 -59.5z" />
<glyph unicode="k" horiz-adv-x="1028" d="M115 82q-1 -9 -1 -17q0 -21 7 -39q10 -26 22 -26q18 0 34 25.5t20 56.5l63 401l422 127q31 8 57.5 -3t45 -35.5t26.5 -58.5q5 -19 5 -39q0 -14 -3 -28l-59 -364q-4 -31 3 -56.5t25 -25.5t34 25.5t20 56.5l59 364q3 19 4 38q-1 42 -17 78q-22 52 -67 85q53 31 93 84 t50 117l17 110q1 11 1 21q0 17 -4 31q-7 22 -26 22q-18 0 -33.5 -21.5t-19.5 -52.5l-16 -110q-10 -66 -49.5 -101.5t-127.5 -62.5l-428 -127l140 877q4 31 -3.5 56.5t-25.5 25.5q-12 0 -30.5 -26t-22.5 -56z" />
<glyph unicode="l" horiz-adv-x="436" d="M127 156q-2 -13 -2 -26q-1 -44 27 -82q36 -48 104 -48q31 0 53.5 11.5t26.5 29.5t-16.5 29.5t-49.5 11.5q-31 2 -52 22.5t-17 51.5l200 1269q3 18 3 33q0 14 -3 26q-6 22 -18 23q-18 0 -33.5 -22.5t-21.5 -59.5z" />
<glyph unicode="m" horiz-adv-x="1495" d="M115 82q-1 -11 -1 -22q0 -18 4 -34q7 -26 25 -26q12 0 31 25.5t23 56.5l127 795q4 31 29.5 56t56.5 25h319q29 0 50.5 -23.5t19.5 -51.5l-121 -762q-2 -14 -4 -34.5t-2 -41.5q0 -18 6 -31.5t18 -13.5q16 0 31.5 33t22.5 71l122 773q4 31 34 56t61 25h319q31 0 52.5 -25.5 t17.5 -55.5l-127 -795q-4 -31 2 -56.5t18 -25.5q18 0 34 25.5t20 56.5l127 795q2 14 2 28q0 49 -29 83q-37 44 -105 44h-319q-37 0 -71 -14t-56 -37q-18 23 -46 37t-65 14h-319q-31 0 -60.5 -11t-54 -32.5t-42 -50.5t-23.5 -61z" />
<glyph unicode="n" horiz-adv-x="1028" d="M115 82q-1 -9 -1 -17q0 -21 7 -39q10 -26 22 -26q18 0 34 25.5t20 56.5l127 795q4 31 30.5 56t63.5 25h393q37 0 55.5 -25.5t14.5 -55.5l-127 -795q-4 -31 3 -56.5t25 -25.5q12 0 31 25.5t23 56.5l127 795q2 13 2 26q0 51 -33 85q-41 44 -109 44h-393q-68 0 -123 -44 t-65 -111z" />
<glyph unicode="o" horiz-adv-x="1019" d="M129 164q-2 -15 -2 -29q-1 -50 27 -87q36 -48 104 -48h401q31 0 62 13.5t55.5 35t42 51t23.5 64.5l112 713q2 14 2 26q0 49 -32 85q-40 44 -101 44h-401q-68 0 -119 -44t-61 -111zM203 164l112 713q4 31 34 56t61 25h401q31 0 49 -26q14 -20 13 -42q0 -6 -1 -13 l-112 -713q-6 -37 -32 -59.5t-56 -22.5h-402q-31 0 -52 22q-16 18 -16 44q0 8 1 16z" />
<glyph unicode="p" horiz-adv-x="1019" d="M27 -475q-1 -10 -1 -20q0 -18 5 -33q8 -21 26 -21t32.5 21.5t19.5 52.5l86 534q55 -59 145 -59h319q68 0 120.5 48t62.5 116l112 713q2 15 2 28q0 49 -28 83q-37 44 -105 44h-401q-31 0 -60.5 -11t-54 -32.5t-42 -50.5t-23.5 -61zM223 246l101 631q4 31 29.5 56t56.5 25 h401q31 0 53 -26q18 -21 18 -46q0 -4 -1 -9l-113 -713q-6 -37 -36 -59.5t-60 -22.5h-320q-68 0 -104 48q-27 37 -27 87q0 14 2 29z" />
<glyph unicode="q" horiz-adv-x="1028" d="M129 164q-2 -14 -2 -26q0 -52 32 -90q40 -48 107 -48h312q47 0 92 15.5t82 43.5l-86 -534q-4 -31 4 -52.5t26 -21.5q12 0 30 21.5t22 52.5l215 1352q2 13 2 26q0 51 -33 85q-41 44 -109 44h-393q-68 0 -123 -44t-65 -111zM211 164l113 713q4 31 30.5 56t63.5 25h393 q37 0 55 -26q16 -20 16 -44q0 -6 -1 -11l-101 -631q-6 -35 -23.5 -64.5t-43 -51t-58 -35t-65.5 -13.5h-311q-37 0 -55 22q-14 17 -14 43q0 8 1 17z" />
<glyph unicode="r" horiz-adv-x="847" d="M115 82q-1 -11 -1 -22q0 -18 4 -34q7 -26 25 -26t34 25.5t20 56.5l127 795q4 31 30.5 56t63.5 25h393q37 0 60.5 11.5t27.5 29.5q1 2 1 4q0 11 -18 19q-22 10 -59 10h-393q-68 0 -123 -44t-65 -111z" />
<glyph unicode="s" horiz-adv-x="1019" d="M109 39q0 -11 17 -25q19 -14 50 -14h475q33 0 66 13.5t58.5 35t43 51t23.5 64.5l37 237q2 13 2 26q0 51 -33 86q-41 44 -109 44h-393q-31 0 -52.5 25.5t-17.5 56.5l39 238q4 31 34 56t61 25h475q37 0 60.5 11.5t27.5 29.5q1 2 1 4q0 11 -18 19q-22 10 -59 10h-475 q-68 0 -119 -44t-61 -111l-39 -238q-2 -15 -2 -28q1 -49 29 -84q36 -44 104 -44h393q37 0 55.5 -25.5t14.5 -56.5l-37 -237q-6 -37 -33 -59.5t-63 -22.5h-476q-31 0 -53 -12q-26 -14 -26 -31z" />
<glyph unicode="t" horiz-adv-x="681" d="M127 156q-2 -13 -2 -26q-1 -44 27 -82q36 -48 104 -48q31 0 53.5 11.5t26.5 29.5t-16.5 29.5t-49.5 11.5q-31 2 -52 22.5t-17 51.5l127 805h303q31 0 58.5 10t29.5 22q1 3 1 5q0 14 -22 24q-24 12 -55 12h-303l61 391q6 37 0 59.5t-18 22.5q-18 0 -33.5 -22.5 t-21.5 -59.5z" />
<glyph unicode="u" horiz-adv-x="1019" d="M129 164q-2 -14 -2 -26q0 -51 32 -90q40 -48 107 -48h393q68 0 120.5 48t62.5 116l125 794q2 12 2 22q-1 16 -5 30q-6 22 -18 22q-18 0 -33.5 -21.5t-19.5 -52.5l-125 -794q-6 -37 -36 -59.5t-60 -22.5h-393q-37 0 -55.5 22.5t-12.5 59.5l125 794q4 31 -3 52.5t-26 21.5 q-18 0 -33.5 -21.5t-19.5 -52.5z" />
<glyph unicode="v" horiz-adv-x="894" d="M160 950l172 -884q4 -25 21.5 -45.5t41.5 -20.5q31 0 51.5 16.5t30.5 40.5l453 893q8 20 12 43q1 9 1 16q0 23 -15 23q-2 2 -6 2q-12 0 -32 -16.5t-30 -42.5l-450 -885l-164 885q-4 27 -19.5 43t-29.5 16q-4 0 -7 -2q-20 0 -26 -39q-2 -10 -2 -22q0 -10 -2 -21z" />
<glyph unicode="w" horiz-adv-x="1503" d="M127 156q-1 -10 -1 -20q0 -20 5 -40q8 -28 26.5 -49.5t46 -34t62.5 -12.5h320q33 0 65.5 14.5t57.5 38.5q39 -53 114 -53h312q33 0 65.5 12.5t58 34t43 50t21.5 59.5l125 794q3 17 3 31q0 17 -4 29q-7 22 -26 22q-18 0 -33.5 -22.5t-21.5 -59.5l-125 -794 q-4 -31 -30.5 -52.5t-63.5 -21.5h-311q-35 0 -54.5 19.5t-15.5 48.5l125 800q6 37 -1 59.5t-26 22.5q-18 0 -33.5 -22.5t-21.5 -59.5l-125 -794q-4 -31 -29.5 -52.5t-56.5 -21.5h-319q-37 0 -55.5 21.5t-14.5 52.5l125 794q6 37 -1 59.5t-26 22.5q-12 0 -30.5 -22.5 t-24.5 -59.5z" />
<glyph unicode="x" horiz-adv-x="1019" d="M115 82q-1 -13 -1 -25q0 -21 4 -35q7 -22 25 -22q12 0 31 22.5t23 59.5l39 237q10 66 57 111t113 45h258q63 0 97 -45q26 -34 26 -80q0 -15 -3 -31l-39 -237q-4 -37 6.5 -59.5t22.5 -22.5q18 0 33.5 22.5t19.5 59.5l39 237q3 20 3 40q0 39 -13 73q-20 52 -63 84 q53 33 89 84t46 113l37 237q3 16 3 30q0 18 -4 30q-8 22 -26 22q-12 0 -30.5 -22.5t-24.5 -59.5l-37 -237q-10 -66 -58.5 -111t-111.5 -45h-248q-68 0 -104 44q-29 35 -29 84q0 14 2 28l37 237q6 37 -4.5 59.5t-22.5 22.5q-18 0 -33.5 -22.5t-21.5 -59.5l-37 -237 q-3 -20 -3 -39q0 -40 14 -74q20 -52 63 -84q-53 -33 -89 -84t-46 -113z" />
<glyph unicode="y" horiz-adv-x="1019" d="M20 -516v-7q0 -14 16 -23q21 -11 52 -11h483q31 0 62 13.5t55.5 35t42 51t23.5 64.5l211 1343q3 16 3 30q0 17 -4 30q-8 22 -26 22t-33.5 -22.5t-21.5 -59.5l-115 -727q-10 -61 -61.5 -101t-116.5 -40h-320q-31 0 -52 21.5t-17 52.5l125 794q6 37 -0.5 59.5t-18.5 22.5 q-18 0 -33.5 -22.5t-21.5 -59.5l-125 -794q-2 -13 -2 -26q0 -45 29 -82q36 -48 104 -48h320q45 0 87 15.5t76 41.5l-69 -450q-6 -37 -32 -59.5t-56 -22.5h-484q-31 0 -53 -11.5t-27 -29.5z" />
<glyph unicode="z" horiz-adv-x="839" d="M27 37q-1 -3 -1 -5q0 -12 16 -22q19 -10 54 -10h557q31 0 53.5 11.5t26.5 29.5t-16.5 29.5t-50.5 11.5h-523q184 225 311.5 380.5t209 256t127 155t66 81t24.5 31.5l4 5q1 3 1 6q0 13 -18 23q-20 12 -51 12h-557q-31 0 -57.5 -11t-30.5 -29.5t19.5 -30t54.5 -11.5h522 l-723 -882q-18 -18 -18 -31z" />
<glyph unicode="{" horiz-adv-x="532" d="M121 770q-4 -12 18.5 -22.5t50.5 -10.5q61 -4 101.5 -48t30.5 -111l-109 -678q-4 -31 4 -59.5t26.5 -50t44 -34t56.5 -12.5h74q31 0 57.5 11.5t30.5 29.5t-19.5 29.5t-54.5 11.5h-74q-31 0 -49 21.5t-14 52.5l108 678q10 61 -10 112t-63 84q53 33 89 84t46 113l98 614 q4 31 28.5 52.5t55.5 21.5h74q31 0 58.5 14.5t29.5 26.5q4 18 -19.5 29.5t-54.5 11.5h-73q-31 0 -61 -11.5t-54.5 -33t-42 -50t-23.5 -61.5l-98 -614q-4 -31 -20.5 -58.5t-41 -49t-53 -35t-59.5 -13.5q-31 -4 -58.5 -15.5t-29.5 -29.5z" />
<glyph unicode="|" horiz-adv-x="389" d="M78 -150q-4 -37 3 -59t25 -22q12 0 31 22t23 59l286 1805q6 37 -5 59.5t-23 22.5q-18 0 -32.5 -22.5t-20.5 -59.5z" />
<glyph unicode="}" horiz-adv-x="532" d="M-147.5 -215q-4.5 -18 20.5 -29.5t55 -11.5h74q31 0 61.5 12.5t55 34t42 50t21.5 59.5l109 678q6 33 23.5 61.5t42 50t54 33.5t60.5 14q29 0 53.5 10.5t28.5 22.5q2 18 -21.5 29.5t-54.5 15.5q-31 0 -55.5 13.5t-42 35t-24.5 49t-3 58.5l99 614q10 68 -30 112t-102 44 h-73q-31 0 -58.5 -11.5t-31.5 -29.5q-2 -12 21.5 -26.5t53.5 -14.5h74q31 0 49.5 -21.5t14.5 -52.5l-99 -614q-10 -61 10.5 -112.5t63.5 -84.5q-53 -33 -89 -84t-46 -112l-109 -678q-4 -31 -28.5 -52.5t-55.5 -21.5h-73q-31 0 -58.5 -11.5t-32 -29.5z" />
<glyph unicode="~" horiz-adv-x="849" d="M209 1085q29 -31 67.5 -43t79.5 -12t85 9.5t87 19.5q102 53 183 53q74 0 118 -47q10 -4 17.5 -12.5t17.5 -8.5q7 1 13 9q4 31 -2.5 52t-20.5 38q-55 43 -127 43q-59 0 -133 -29q-51 -29 -104.5 -42t-100.5 -13q-102 0 -139 49q-10 -18 -21.5 -32.5t-19.5 -33.5z" />
<glyph unicode="&#xa1;" horiz-adv-x="389" d="M66 -233q-6 -37 2 -59.5t26 -22.5q12 0 29.5 22.5t23.5 59.5l156 983q4 31 -6 56t-23 25q-18 0 -33.5 -25t-19.5 -56zM281 1120q-8 -47 1 -69.5t25 -22.5q12 0 28.5 20.5t24.5 61.5q6 37 -5 59.5t-23 22.5q-16 0 -31.5 -19.5t-19.5 -52.5z" />
<glyph unicode="&#xa2;" horiz-adv-x="966" d="M166 406q-4 -31 4 -60t26.5 -50.5t44 -33.5t56.5 -12h25l-33 -68q-2 -2 -2 -6q-8 -20 -11 -31q-4 -23 1.5 -37t19.5 -14q2 0 4 -1t4 -1q16 0 30.5 19.5t29.5 48.5l2 2l43 88h370q31 0 54.5 11.5t25.5 29.5q4 18 -15.5 29.5t-49.5 11.5h-344l428 868h53q31 0 53.5 11.5 t26.5 30t-16.5 29.5t-51.5 11h-24l36 74q4 8 5 14q0 8 2 16q4 23 -0.5 37.5t-18.5 14.5q-2 0 -4 1t-4 1q-16 0 -32.5 -19.5t-26.5 -48.5q0 -2 -3 -2v-2l-43 -86h-370q-31 0 -61.5 -13.5t-55.5 -35t-42 -49t-21 -58.5zM248 406l114 720q4 31 30 52.5t57 21.5h344l-431 -868 h-51q-31 0 -49 21.5t-14 52.5z" />
<glyph unicode="&#xa3;" horiz-adv-x="1177" d="M51 33q-4 -12 16.5 -22.5t51.5 -10.5h778q31 0 57.5 10t30.5 23q2 18 -21.5 29.5t-54.5 11.5h-540l88 555h405q31 0 53.5 11.5t26.5 29.5t-16.5 29.5t-51.5 11.5h-405l37 237h405q31 0 54.5 11.5t25.5 29.5q4 12 -15.5 26.5t-49.5 14.5h-406l51 326q4 31 30 52.5t56 21.5 h324q31 0 57.5 14t30.5 26q4 18 -20.5 29.5t-55.5 11.5h-323q-31 0 -60.5 -11t-54.5 -32.5t-42 -50t-24 -61.5l-51 -326h-151q-31 0 -58.5 -14.5t-31.5 -26.5q-2 -18 21.5 -29.5t53.5 -11.5h152l-37 -237h-151q-31 0 -57.5 -11.5t-31 -30t20.5 -29.5t55 -11h152l-88 -555 h-156q-31 0 -54.5 -11.5t-25.5 -29.5z" />
<glyph unicode="&#xa4;" horiz-adv-x="1191" d="M90 565.5q-4 -18.5 20.5 -30t55.5 -11.5h129l-59 -368q-4 -31 4 -59.5t26.5 -50t44 -34t56.5 -12.5h639q31 0 57.5 11.5t30.5 29.5t-20.5 29.5t-55.5 11.5h-639q-31 0 -48.5 21.5t-13.5 52.5l60 368h510q31 0 53.5 11.5t26.5 30t-16.5 29.5t-51.5 11h-510l39 246h576 q31 0 53 11t26 30q2 12 -17 26.5t-50 14.5h-576l68 418q4 31 28.5 52t55.5 21h639q31 0 58.5 14.5t29.5 26.5q4 18 -19.5 29.5t-54.5 11.5h-639q-31 0 -60.5 -11t-54 -32.5t-42 -50.5t-23.5 -61l-68 -418h-63q-31 0 -58.5 -14.5t-29.5 -26.5q-4 -18 20.5 -29.5t55.5 -11.5 h63l-39 -246h-129q-31 0 -57.5 -11t-30.5 -29.5z" />
<glyph unicode="&#xa5;" d="M190.5 268.5q-4.5 -18.5 20.5 -30t55 -11.5h275l-25 -145q-4 -37 3 -59.5t26 -22.5q12 0 30.5 22.5t22.5 59.5l25 145h282q31 0 53.5 11.5t26.5 29.5t-16.5 29.5t-50.5 11.5h-283l24 158h283q31 0 53.5 11t26.5 30q4 12 -16.5 26.5t-51.5 14.5h-282l26 164h156 q49 0 95 18.5t83 51t62.5 75.5t33.5 92l76 475q6 37 -1 59.5t-25 22.5t-34 -22.5t-22 -59.5l-75 -475q-10 -61 -61.5 -108t-119.5 -47h-401q-31 0 -56.5 12t-44 33.5t-26.5 50.5t-4 59l76 475q6 37 -1.5 59.5t-25.5 22.5q-12 0 -30.5 -22.5t-24.5 -59.5l-76 -475 q-8 -49 4 -92t40 -75.5t67.5 -51t89.5 -18.5h163l-26 -164h-275q-31 0 -57.5 -14.5t-30.5 -26.5q-4 -18 20.5 -29.5t55.5 -11.5h275l-25 -158h-274q-31 0 -57.5 -11t-31 -29.5z" />
<glyph unicode="&#xa6;" horiz-adv-x="380" d="M74 -154q-4 -31 3 -56.5t25 -25.5q12 0 26.5 25.5t18.5 56.5l101 637q6 31 -1 52.5t-20 21.5q-18 0 -32.5 -21.5t-20.5 -52.5zM262 1053q-4 -31 3 -56.5t26 -25.5q12 0 26.5 25.5t18.5 56.5l98 612q4 31 -3 52.5t-19 21.5q-18 0 -32.5 -21.5t-19.5 -52.5z" />
<glyph unicode="&#xa7;" horiz-adv-x="1019" d="M65.5 -233.5q-4.5 -18.5 16 -29.5t51.5 -11h483q31 0 61 12t54.5 33.5t42 50t23.5 59.5l37 238q6 37 -4.5 68.5t-30.5 54.5q29 23 48 54.5t25 68.5l39 237q8 61 -30.5 108.5t-100.5 47.5h-401q-31 0 -53.5 22.5t-16.5 59.5l37 237q4 31 34 52.5t60 21.5h475 q37 0 61.5 14.5t27.5 26.5q4 18 -17.5 29.5t-58.5 11.5h-475q-68 0 -119 -44t-62 -112l-36 -237q-12 -76 28 -123q-55 -45 -65 -115l-39 -237q-10 -68 26.5 -116t104.5 -48h401q31 0 48.5 -22.5t11.5 -59.5l-37 -238q-4 -31 -30 -52.5t-56 -21.5h-484q-31 0 -53 -11 t-26.5 -29.5zM233 365l39 237q4 31 33 52.5t60 21.5h401q31 0 49.5 -21.5t13.5 -52.5l-38 -237q-4 -35 -28 -58.5t-52 -23.5h-408q-31 0 -53.5 22.5t-16.5 59.5z" />
<glyph unicode="&#xa8;" horiz-adv-x="604" d="M305 1282q-14 -90 27 -90q16 0 32.5 21.5t22.5 60.5v8q6 35 -3 55.5t-26 20.5q-18 0 -32.5 -20.5t-20.5 -55.5zM510 1282q-14 -90 27 -90q16 0 32.5 21.5t22.5 60.5v8q6 35 -3 55.5t-26 20.5q-18 0 -32.5 -20.5t-20.5 -55.5z" />
<glyph unicode="&#xa9;" horiz-adv-x="1509" d="M127 154q-10 -61 26.5 -108.5t104.5 -47.5h891q31 0 61.5 12.5t55 34t42 50t21.5 59.5l189 1192q10 68 -29 115.5t-100 47.5h-891q-68 0 -120 -48t-63 -115zM201 154l188 1192q6 37 35 59t59 22h891q31 0 49.5 -22.5t12.5 -58.5l-189 -1192q-4 -31 -29.5 -52.5 t-56.5 -21.5h-891q-31 0 -52 21.5t-17 52.5zM408 430q-10 -68 26.5 -116t104.5 -48h489q37 0 60.5 14.5t27.5 26.5q4 18 -17.5 29.5t-58.5 11.5h-489q-31 0 -53.5 22.5t-16.5 59.5l109 680q4 31 33.5 56.5t60.5 25.5h490q37 0 60 10t28 23q4 18 -17.5 29.5t-58.5 11.5h-490 q-68 0 -119 -44t-61 -112z" />
<glyph unicode="&#xaa;" horiz-adv-x="768" d="M190 827q-4 -31 4.5 -59.5t27 -50t46 -33.5t62.5 -12h223q68 0 119 47t61 108l64 402q10 61 -27 108t-104 47h-306q-37 0 -60.5 -11t-27.5 -29.5t17.5 -29.5t58.5 -11h305q31 0 52.5 -21.5t17.5 -56.5q-10 -66 -66.5 -107t-121.5 -41h-142q-35 0 -65.5 -13t-56 -34.5 t-43 -52.5t-23.5 -64zM272 827l15 86q4 37 30.5 59.5t63.5 22.5h141q47 0 92 17.5t82 48.5l-37 -234q-4 -31 -33.5 -52t-60.5 -21h-223q-37 0 -55.5 21.5t-14.5 51.5z" />
<glyph unicode="&#xab;" horiz-adv-x="935" d="M147 508q-4 -18 9.5 -36.5t40.5 -29.5q66 -49 106.5 -79.5t62 -46t29.5 -19.5l8 -4q0 2 3 2q4 0 13 -4t23 -4q10 0 21.5 4t25.5 18v6q4 14 -10 32t-39 28l-186 133h-2q-12 0 223 133q29 18 48.5 36.5t21.5 33.5v2q0 2 -2 4q-4 18 -29 18q-29 0 -61 -18q-2 0 -11.5 -7.5 t-35 -23.5t-70.5 -43t-119 -70q-27 -16 -46 -32.5t-24 -32.5zM487 508q-4 -18 9.5 -36.5t40.5 -29.5q66 -49 106.5 -79.5t62 -46t29.5 -19.5l8 -4q0 2 2 2q4 0 13.5 -4t23.5 -4q10 0 21.5 4t25.5 18v6q4 14 -10 32t-39 28l-186 133h-2q-12 0 223 133q29 18 48.5 36.5 t21.5 33.5v2q0 2 -2 4q-4 18 -29 18q-29 0 -61 -18q-2 0 -11.5 -7.5t-35 -23.5t-70.5 -43t-119 -70q-27 -16 -46 -32.5t-24 -32.5z" />
<glyph unicode="&#xac;" horiz-adv-x="2097" d="M37 1348h26l74 90l-88 67zM84 -6h162l-64 96l-98 -74v-22zM84 80l100 74v188l-100 76v-338zM84 467l57 20l-28 338h-29v-358zM90 1565l6 -2l4 2h-10zM96 1348h41l2 53zM100 434l84 -63v92zM109 1540l98 -74h162v-20l268 119h-498zM139 825l29 -336l16 5v235h207l-6 123 l-16 2v-29h-230zM213 90l63 -96h312l-92 96h-283zM369 885l102 -15v197l-102 -129v-53zM369 971l102 127v100l-102 80v-307zM369 1329l102 -78v209l-102 -45v-86zM403 854l7 -125h61v115zM483 1466h209v-151l105 90v61h4l-33 99h-61zM528 90l95 -96h53l43 96h-191zM692 819 l13 -151l129 45l6 86zM692 1112h33l109 98h-37v166l-105 -90v-174zM705 651l8 -114l114 86l4 59l-22 6zM715 518l4 -53h98l4 84l-55 8zM725 -6h502l-19 63h-452zM743 829l56 -8v8h-56zM756 78h452l-2 12h-444zM756 1112h174l-33 98h-33zM778 573l45 -6l2 41zM782 252h15 l18 45l-10 8zM803 1565l33 -99h69v99h-102zM811 324l14 -15l19 39h-21zM813 815l27 -4l2 18h-29v-14zM829 700h5v2zM834 252h227l-221 14zM840 291l325 -21l-20 78h-279zM915 1208l3 2h-3v-2zM922 1184l22 -72h80l-4 98h-82zM1034 1210l6 -98h127v-59l11 10l73 147h-217z M1059 760q0 -18 22 -80q14 -37 60 -143l45 92zM1059 797l26 30h-12zM1059 809l8 18h-8v-18zM1063 768l145 -152l-43 105zM1063 776l102 -47h95l20 80zM1065 788l240 35v2h-35v199l-103 -119v-78h-69zM1149 516l55 -139l86 39l-67 170l-29 26zM1167 920l66 73l-51 51l-15 -28 v-96zM1167 1026l7 16l-7 -6v-10zM1178 342l22 -90h53l31 -76l90 35l-76 184l-86 -39l5 -8h-23zM1192 1061l49 -51l29 30v170h-4zM1247 90l27 -96h252l92 94l-193 2l-41 96l-92 -32l27 -64h-72zM1280 729h221l27 96h-96q-10 0 -29 -2t-41.5 -6t-38.5 -6t-25 -4zM1358 1145 l102 117v53l-100 80l-2 -2v-248zM1358 1454l53 109h-53v-109zM1370 1411l90 -70v123h111l-78 99h-47zM1372 1116l6 -6h205l-108 98h-15v9zM1493 373h215l66 61l-82 37h-199v-98zM1503 1208l111 -98h57v-51l58 -53h38v305l-4 4h-92v-107h-168zM1522 729h155l21 96h-150z M1526 1563l78 -99h26l86 99h-190zM1559 -6h210l-92 94h-26zM1671 1006h29l-29 26v-26zM1686 1464h28l-8 25zM1702 729q76 0 129 -24q70 -31 70 -93q0 -59 -46 -96q-41 -35 -94 -43l183 -82v15q-14 8 -25.5 13t-28.5 9q25 14 52 37l-11 420l-61 -8l-2 -52h-148zM1724 1499 l13 -35h118l17 -188h94l-2 92l-109 195h-75zM1735 373q23 0 51 -6l24 45l-22 12zM1741 88l90 -90q43 2 80 18l145 181l2 16q0 45 -16 88l-215 98l-21 -34q59 -14 101 -43q45 -37 45 -107q0 -66 -72 -100q-23 -10 -57.5 -17.5t-81.5 -9.5zM1872 926l24 4l-22 61zM1884 1563 l78 -144l-2 144h-76zM1888 1016l27 -76l57 8v68h-84zM1958 883l10 -389q25 41 32 76.5t4 66.5t-14.5 53.5t-23.5 38.5h6v156zM1970 387h2l-2 2v-2zM1978 55q39 33 62 74z" />
<glyph unicode="&#xad;" horiz-adv-x="724" d="M131 539q-4 -12 16.5 -22.5t51.5 -10.5h370q31 0 57.5 10.5t30.5 22.5q4 18 -20.5 29.5t-54.5 11.5h-371q-31 0 -53.5 -11.5t-26.5 -29.5z" />
<glyph unicode="&#xae;" horiz-adv-x="1257" d="M186 530q-4 -31 4.5 -59.5t27 -50t44 -33.5t55.5 -12h639q68 0 119.5 47t61.5 108l125 795q10 68 -26 116t-103 48h-639q-31 0 -62 -13.5t-55.5 -35t-42 -52t-23.5 -63.5zM268 530l125 795q6 37 32 59.5t56 22.5h639q31 0 52.5 -22.5t15.5 -59.5l-125 -795 q-4 -31 -34 -52t-60 -21h-639q-31 0 -48.5 21.5t-13.5 51.5zM408 535h81l52 315h196q57 0 86 -23.5t38 -62.5t4 -90t-13 -107l-6 -32h74q6 47 12 97t6 95t-8 83t-27 62q29 16 49.5 41t34.5 54q8 18 12 47l25 155q10 68 -26.5 112t-104.5 44h-197q-68 0 -123 -44t-65 -112z M553 932l37 237q6 31 32.5 56.5t63.5 25.5h197q31 0 52 -25.5t15 -56.5l-24 -163q-10 -35 -38 -54.5t-57 -19.5h-278z" />
<glyph unicode="&#xaf;" horiz-adv-x="868" d="M395 1384q-2 -12 18.5 -22t51.5 -10h268q31 0 57.5 10t28.5 22q4 18 -20.5 29.5t-55.5 11.5h-268q-31 0 -53.5 -11t-26.5 -30z" />
<glyph unicode="&#xb0;" horiz-adv-x="692" d="M262 1194q-10 -68 27 -116t104 -48h127q31 0 60.5 13.5t54 35t42 51t23.5 64.5l27 160q10 68 -30 111.5t-101 43.5h-127q-68 0 -119 -44t-61 -111zM336 1194l26 160q4 31 34 56.5t61 25.5h127q31 0 48 -26t13 -56l-27 -160q-4 -37 -29.5 -59.5t-56.5 -22.5h-126 q-31 0 -52.5 22.5t-17.5 59.5z" />
<glyph unicode="&#xb1;" horiz-adv-x="1101" d="M127 141q-2 -12 17.5 -22t50.5 -10h639q31 0 58.5 10t29.5 22q4 18 -20.5 29.5t-55.5 11.5h-639q-31 0 -53.5 -11t-26.5 -30zM213 694q-4 -12 16.5 -22t51.5 -10h278l-43 -279q-6 -37 1 -59.5t26 -22.5q18 0 33.5 22.5t21.5 59.5l43 279h279q31 0 57.5 10t30.5 22 q4 18 -20.5 29.5t-55.5 11.5h-279l43 279q6 37 -1 59.5t-25 22.5t-33.5 -22.5t-22.5 -59.5l-43 -279h-278q-31 0 -53.5 -11t-26.5 -30z" />
<glyph unicode="&#xb2;" horiz-adv-x="870" d="M217 864q-10 -61 27 -108t104 -47h383q31 0 53.5 11.5t26.5 29.5t-16.5 29.5t-51.5 11.5h-383q-31 0 -52 21.5t-17 51.5v2q10 68 29.5 109t50 62.5t76 28.5t110.5 7q80 0 139.5 13.5t102.5 47t69.5 89t38.5 139.5q10 68 -26.5 112t-104.5 44h-383q-31 0 -53.5 -11.5 t-26.5 -29.5q-2 -12 17.5 -26.5t50.5 -14.5h383q31 0 52.5 -21.5t17.5 -54.5q-10 -68 -29 -109t-49.5 -62.5t-76.5 -27.5t-110 -6q-84 0 -144 -14.5t-102 -47t-68 -89t-38 -138.5v-2z" />
<glyph unicode="&#xb3;" horiz-adv-x="831" d="M160 747.5q-4 -18.5 17.5 -29.5t58.5 -11h382q33 0 65 13t57.5 34.5t43 51.5t23.5 64q18 115 -28 176.5t-113 67.5q68 0 133 60.5t86 177.5q10 68 -31 111.5t-109 43.5h-383q-37 0 -61.5 -11.5t-28.5 -29.5q-2 -12 18.5 -26.5t57.5 -14.5h383q37 0 56.5 -21.5t13.5 -53.5 q-10 -66 -40 -105t-74 -59.5t-101.5 -25.5t-122.5 -5h-84q-31 0 -53.5 -11t-26.5 -29.5t16.5 -30t51.5 -11.5h84q66 0 121 -7t92.5 -29.5t54 -63.5t6.5 -111q-4 -31 -30.5 -52.5t-63.5 -21.5h-383q-37 0 -60.5 -11t-27.5 -29.5z" />
<glyph unicode="&#xb4;" horiz-adv-x="561" d="M285 1153q-4 -27 8 -33q2 -2 8 -2q16 0 36.5 18.5t37.5 41.5l164 241q16 25 20 54q4 31 -14 36q-2 2 -8 2q-14 0 -34 -18t-36 -45q-63 -100 -97 -146.5t-51.5 -69t-22.5 -34.5t-11 -45z" />
<glyph unicode="&#xb5;" horiz-adv-x="1019" d="M57 -309q-4 -31 3.5 -56.5t25.5 -25.5q12 0 27.5 25.5t19.5 56.5l53 332q35 -23 80 -23h393q68 0 120 48t63 116l125 794q4 31 -2.5 52.5t-18.5 21.5q-18 0 -33.5 -21.5t-19.5 -52.5l-125 -794q-6 -37 -36 -59.5t-60 -22.5h-393q-37 0 -55.5 22.5t-12.5 59.5l125 794 q4 31 -3 52.5t-26 21.5q-18 0 -33.5 -21.5t-19.5 -52.5z" />
<glyph unicode="&#xb6;" horiz-adv-x="1028" d="M172 442q-10 -68 31 -115.5t108 -47.5h193l-76 -472q-4 -31 19.5 -56t41.5 -25q6 0 17.5 7t24 18t22.5 25.5t12 30.5l226 1424q45 0 71.5 -9.5t41 -23.5t16.5 -32.5t0 -37.5l-209 -1325q-4 -31 3 -52t25 -21q12 0 30.5 21.5t23.5 51.5l213 1352q10 68 -31 112t-109 44 h-393q-68 0 -123 -44t-65 -112z" />
<glyph unicode="&#xb7;" horiz-adv-x="286" d="M164 684q-14 -90 26 -90q16 0 32 21.5t22 60.5l2 8q4 35 -4.5 55.5t-24.5 20.5q-18 0 -33.5 -20.5t-19.5 -55.5z" />
<glyph unicode="&#xb8;" horiz-adv-x="937" d="M215 -403.5q-4 -18.5 16.5 -29.5t51.5 -11h116q31 0 60.5 12t54.5 33.5t42 50.5t24 59l6 47q10 61 -33 108.5t-123 47.5q10 55 14.5 82t8.5 39q0 6 1 9t-1 7h-82l-29 -180h2q0 -10 1 -17.5t10.5 -11.5t30 -7t56.5 -3q31 0 48.5 -21.5t13.5 -52.5l-6 -47q-4 -31 -30 -52 t-56 -21h-117q-31 0 -53.5 -11.5t-26.5 -30z" />
<glyph unicode="&#xb9;" horiz-adv-x="460" d="M246 1466q-2 -12 21.5 -26.5t54.5 -14.5h4q31 0 53 -21.5t18 -51.5l-90 -564q-6 -37 2 -59t27 -22q12 0 25.5 22t19.5 59l90 564q10 68 -26.5 111.5t-104.5 43.5h-4q-31 0 -58.5 -11t-31.5 -30z" />
<glyph unicode="&#xba;" horiz-adv-x="692" d="M174 627q-2 -12 18.5 -22.5t51.5 -10.5h284q31 0 57.5 10.5t28.5 22.5q4 18 -19.5 29.5t-53.5 11.5h-285q-31 0 -54.5 -11.5t-27.5 -29.5zM236 1016q-10 -68 25.5 -116t103.5 -48h127q31 0 61.5 13.5t55 35t42 51t23.5 64.5l24 160q10 68 -29.5 111.5t-101.5 43.5h-127 q-68 0 -119 -44t-61 -111zM309 1016l25 160q4 31 33.5 56t60.5 25h127q31 0 48.5 -25.5t12.5 -55.5l-24 -160q-6 -37 -31.5 -59.5t-56.5 -22.5h-127q-31 0 -52.5 22.5t-15.5 59.5z" />
<glyph unicode="&#xbb;" horiz-adv-x="935" d="M117 309q8 -14 18.5 -18t20.5 -4q14 0 25.5 4t15.5 4q2 0 2 -2l8 4t35.5 19.5t77 46t131.5 79.5q29 10 47 28.5t22 37.5q4 16 -11 32.5t-38 32.5q-59 43 -96 70t-57.5 43t-27.5 23.5t-9 7.5q-29 18 -54 18q-29 0 -37 -18q-2 -2 -2 -4v-2q-4 -31 50 -70q182 -127 178 -133 h-2l-228 -133q-29 -10 -47 -27.5t-22 -32.5v-6zM457 309q8 -14 18.5 -18t20.5 -4q14 0 25 4t16 4q2 0 2 -2l8 4t35.5 19.5t77 46t131.5 79.5q29 10 47 28.5t22 37.5q4 16 -11 32.5t-38 32.5q-59 43 -96 70t-57.5 43t-27.5 23.5t-9 7.5q-29 18 -54 18q-29 0 -37 -18 q-2 -2 -2 -4v-2q-4 -31 50 -70q182 -127 178 -133h-2l-228 -133q-29 -10 -47 -27.5t-22 -32.5v-6z" />
<glyph unicode="&#xbc;" horiz-adv-x="1329" d="M49 33q-6 -27 6 -33q2 -2 6 -2q14 0 37 15.5t39 43.5l901 1358q2 0 4 2q25 35 27 58q4 27 -12 32q-2 2 -6 2q-14 0 -34 -16t-36 -43q-8 -8 -12 -15.5t-8 -15.5l-875 -1306q-8 -6 -16 -23q-16 -29 -21 -57zM246 1466q-2 -12 21.5 -26.5t54.5 -14.5h4q31 0 53 -21.5 t18 -51.5l-90 -564q-6 -37 2 -59t27 -22q12 0 25.5 22t19.5 59l90 564q10 68 -26.5 111.5t-104.5 43.5h-4q-31 0 -58.5 -11t-31.5 -30zM639 494q-10 -68 30 -116t107 -48h158l-39 -246q-4 -37 2 -59.5t18 -22.5q18 0 34 22.5t20 59.5l39 246h139q37 0 61.5 11.5t28.5 29.5 t-17.5 29.5t-58.5 11.5h-139l27 166q2 29 -6.5 49t-24.5 20q-12 0 -26.5 -25.5t-18.5 -56.5l-25 -153h-157q-37 0 -56.5 22.5t-13.5 59.5l37 227q6 37 -2 59.5t-27 22.5q-12 0 -29.5 -22.5t-23.5 -59.5z" />
<glyph unicode="&#xbd;" horiz-adv-x="1306" d="M49 33q-6 -27 6 -33q2 -2 6 -2q14 0 37 15.5t39 43.5l901 1358q2 0 4 2q25 35 27 58q4 27 -12 32q-2 2 -6 2q-14 0 -34 -16t-36 -43q-8 -8 -12 -15.5t-8 -15.5l-875 -1306q-8 -6 -16 -23q-16 -29 -21 -57zM246 1466q-2 -12 21.5 -26.5t54.5 -14.5h4q31 0 53 -21.5 t18 -51.5l-90 -564q-6 -37 2 -59t27 -22q12 0 25.5 22t19.5 59l90 564q10 68 -26.5 111.5t-104.5 43.5h-4q-31 0 -58.5 -11t-31.5 -30zM565 156q-10 -61 27 -108.5t104 -47.5h383q31 0 53.5 11.5t26.5 29.5t-16.5 29.5t-50.5 11.5h-383q-31 0 -52.5 21.5t-17.5 52.5v2 q10 68 29.5 108.5t50.5 62t76 29t110 7.5q80 0 139.5 13t102.5 47t69.5 89t40.5 139q10 68 -26.5 112t-104.5 44h-383q-31 0 -54 -11.5t-27 -29.5q-2 -12 17 -26.5t50 -14.5h383q31 0 53.5 -21.5t16.5 -54.5q-10 -68 -28.5 -108.5t-49.5 -62t-76 -28t-108 -6.5 q-84 0 -144.5 -14t-102.5 -47t-68.5 -89t-39.5 -138v-2z" />
<glyph unicode="&#xbe;" horiz-adv-x="1681" d="M172 747.5q-4 -18.5 17.5 -29.5t58.5 -11h383q33 0 64.5 13t57 34.5t43 51.5t23.5 64q18 115 -28 176.5t-113 67.5q68 0 133.5 60.5t85.5 177.5q10 68 -31 111.5t-108 43.5h-383q-37 0 -61.5 -11.5t-28.5 -29.5q-2 -12 18.5 -26.5t56.5 -14.5h383q37 0 56.5 -21.5 t13.5 -53.5q-10 -66 -40 -105t-74 -59.5t-101 -25.5t-123 -5h-84q-31 0 -53.5 -11t-26.5 -29.5t16.5 -30t51.5 -11.5h84q66 0 121 -7t93 -29.5t54.5 -63.5t5.5 -111q-4 -31 -30.5 -52.5t-63.5 -21.5h-383q-37 0 -60.5 -11t-27.5 -29.5zM401 33q-6 -27 7 -33q2 -2 6 -2 q14 0 36.5 15.5t38.5 43.5l902 1358q2 0 4 2q24 35 26 58q4 27 -12 32q-2 2 -6 2q-14 0 -33.5 -16t-36.5 -43q-8 -8 -12 -15.5t-8 -15.5l-875 -1306q-8 -6 -16 -23q-16 -29 -21 -57zM991 494q-10 -68 30 -116t107 -48h158l-39 -246q-4 -37 2 -59.5t19 -22.5q18 0 33.5 22.5 t19.5 59.5l39 246h139q37 0 61.5 11.5t28.5 29.5t-17.5 29.5t-58.5 11.5h-139l27 166q2 29 -6.5 49t-24.5 20q-12 0 -26.5 -25.5t-18.5 -56.5l-25 -153h-157q-37 0 -56.5 22.5t-13.5 59.5l37 227q6 37 -2 59.5t-27 22.5q-12 0 -29.5 -22.5t-23.5 -59.5z" />
<glyph unicode="&#xbf;" d="M76 -164q-10 -68 30.5 -111.5t108.5 -43.5h631q31 0 58.5 11t29.5 29q4 12 -19.5 26.5t-54.5 14.5h-631q-37 0 -56 21.5t-15 52.5l51 320q4 31 30.5 56.5t63.5 25.5h311q68 0 123.5 44t65.5 111l51 320q4 31 -3 56.5t-26 25.5q-18 0 -33.5 -26t-19.5 -56l-51 -320 q-4 -31 -30.5 -56.5t-63.5 -25.5h-312q-68 0 -123 -43.5t-65 -111.5zM834 1098q-6 -35 3 -55.5t25 -20.5q18 0 32.5 20.5t20.5 55.5q14 90 -26 90q-16 0 -32.5 -21.5t-20.5 -60.5z" />
<glyph unicode="&#xc0;" d="M115 82q-4 -37 3 -59.5t25 -22.5t34 22.5t20 59.5l100 631h713l-101 -631q-4 -37 3.5 -59.5t25.5 -22.5q12 0 30.5 22.5t22.5 59.5l203 1270q10 68 -31 111.5t-108 43.5h-557q-31 0 -60.5 -11t-54.5 -32.5t-42 -50.5t-24 -61zM309 795l90 557q4 31 29 52t55 21h557 q37 0 56.5 -21.5t15.5 -51.5l-90 -557h-713zM700 1952q0 -12 7 -27l86 -242q10 -23 24 -41t31 -18q6 0 10 2q12 6 16 33q6 33 4.5 45t-12 34.5t-30 68.5t-50.5 147q-8 27 -21 45t-28 18q-6 0 -8 -2q-23 -6 -27 -37q-2 -12 -2 -26z" />
<glyph unicode="&#xc1;" d="M115 82q-4 -37 3 -59.5t25 -22.5t34 22.5t20 59.5l100 631h713l-101 -631q-4 -37 3.5 -59.5t25.5 -22.5q12 0 30.5 22.5t22.5 59.5l203 1270q10 68 -31 111.5t-108 43.5h-557q-31 0 -60.5 -11t-54.5 -32.5t-42 -50.5t-24 -61zM309 795l90 557q4 31 29 52t55 21h557 q37 0 56.5 -21.5t15.5 -51.5l-90 -557h-713zM723 1659q-4 -27 8 -33q4 -2 10 -2q16 0 36 18.5t36 40.5l164 242q16 24 20 53q4 33 -14 37q-2 2 -8 2q-14 0 -33.5 -18.5t-36.5 -44.5q-63 -100 -97 -146.5t-51.5 -69t-22.5 -34.5t-11 -45z" />
<glyph unicode="&#xc2;" d="M115 82q-4 -37 3 -59.5t25 -22.5t34 22.5t20 59.5l100 631h713l-101 -631q-4 -37 3.5 -59.5t25.5 -22.5q12 0 30.5 22.5t22.5 59.5l203 1270q10 68 -31 111.5t-108 43.5h-557q-31 0 -60.5 -11t-54.5 -32.5t-42 -50.5t-24 -61zM309 795l90 557q4 31 29 52t55 21h557 q37 0 56.5 -21.5t15.5 -51.5l-90 -557h-713zM557 1645q-4 -27 14 -33q0 -2 4 -2q14 0 35 16t43 43q162 201 168 201l-2 -2l101 -207q4 -20 19 -39.5t30 -19.5q6 0 8 2q14 8 19 16t7.5 18.5t0 22.5t0.5 22l-111 232q-6 29 -22.5 44t-32.5 15t-35 -16t-41 -43 q-53 -66 -87 -107t-53.5 -64.5t-27.5 -31.5t-8 -10q-25 -33 -29 -57z" />
<glyph unicode="&#xc3;" horiz-adv-x="1175" d="M115 82q-4 -37 3 -59.5t25 -22.5t34 22.5t20 59.5l100 631h713l-101 -631q-4 -37 3.5 -59.5t25.5 -22.5q12 0 30.5 22.5t22.5 59.5l203 1270q10 68 -31 111.5t-108 43.5h-557q-31 0 -60.5 -11t-54.5 -32.5t-42 -50.5t-24 -61zM309 795l90 557q4 31 29 52t55 21h557 q37 0 56.5 -21.5t15.5 -51.5l-90 -557h-713zM610 1688q12 -31 34 -43.5t46 -12.5q25 0 50.5 9.5t50.5 19.5q66 53 112 53q39 0 64 -47q6 -4 10 -12t8 -8q2 0 8 8q4 31 2 52.5t-8 37.5q-31 43 -74 43q-35 0 -75 -29q-31 -29 -63 -42t-60 -13q-29 0 -49.5 13.5t-26.5 35.5 q-8 -18 -16.5 -32.5t-12.5 -32.5z" />
<glyph unicode="&#xc4;" d="M115 82q-4 -37 3 -59.5t25 -22.5t34 22.5t20 59.5l100 631h713l-101 -631q-4 -37 3.5 -59.5t25.5 -22.5q12 0 30.5 22.5t22.5 59.5l203 1270q10 68 -31 111.5t-108 43.5h-557q-31 0 -60.5 -11t-54.5 -32.5t-42 -50.5t-24 -61zM309 795l90 557q4 31 29 52t55 21h557 q37 0 56.5 -21.5t15.5 -51.5l-90 -557h-713zM672 1712q-12 -90 26 -90q16 0 33 21.5t23 60.5v8q6 35 -3.5 55.5t-25.5 20.5q-18 0 -32.5 -20.5t-20.5 -55.5zM877 1712q-12 -90 26 -90q16 0 32.5 21.5t22.5 60.5v8q6 35 -3 55.5t-25 20.5q-18 0 -32.5 -20.5t-20.5 -55.5z" />
<glyph unicode="&#xc5;" d="M115 82q-4 -37 3 -59.5t25 -22.5t34 22.5t20 59.5l100 631h713l-101 -631q-4 -37 3.5 -59.5t25.5 -22.5q12 0 30.5 22.5t22.5 59.5l203 1270q10 68 -31 111.5t-108 43.5h-557q-31 0 -60.5 -11t-54.5 -32.5t-42 -50.5t-24 -61zM309 795l90 557q4 31 29 52t55 21h557 q37 0 56.5 -21.5t15.5 -51.5l-90 -557h-713zM651 1747q-10 -68 26 -116t103 -48h49q31 0 62 13.5t55.5 35t42 51t23.5 64.5l10 57q10 68 -30 112t-101 44h-49q-68 0 -119 -44t-61 -112zM725 1747l10 57q4 31 34 56.5t60 25.5h50q31 0 48 -25.5t13 -56.5l-10 -57 q-6 -37 -31 -59.5t-55 -22.5h-49q-31 0 -53.5 22.5t-16.5 59.5z" />
<glyph unicode="&#xc6;" horiz-adv-x="1902" d="M115 82q-4 -37 3 -59.5t25 -22.5t34 22.5t20 59.5l100 631h713l-90 -568q-25 -145 139 -145h639q31 0 53.5 11.5t26.5 29.5t-16.5 29.5t-51.5 11.5h-639q-29 0 -48 16.5t-22 40.5l91 574h555q37 0 60.5 11t27.5 29.5t-17.5 30t-58.5 11.5h-555q33 211 51.5 325.5 t26.5 167.5t9 63.5t1 12.5q10 27 36.5 44t55.5 17h639q31 0 54.5 14.5t25.5 26.5q4 18 -15.5 29.5t-50.5 11.5h-639q-37 0 -70.5 -14t-60.5 -39q-37 53 -112 53h-557q-31 0 -60.5 -11t-54.5 -32.5t-42 -50.5t-24 -61zM309 795l90 557q4 31 29 52t55 21h557q37 0 56.5 -21.5 t15.5 -51.5l-90 -557h-713z" />
<glyph unicode="&#xc7;" horiz-adv-x="1083" d="M127 156q-4 -31 4 -59.5t26.5 -50t44 -34t56.5 -12.5h225l-20 -129h2q0 -10 1 -17.5t10 -11.5t29.5 -7t57.5 -3q31 0 48.5 -21.5t13.5 -52.5l-7 -47q-4 -31 -29.5 -52t-56.5 -21h-116q-31 0 -53.5 -11.5t-26.5 -30t16.5 -29.5t50.5 -11h117q31 0 60.5 12t54 33.5t42 50.5 t23.5 59l7 47q10 61 -33 108.5t-123 47.5l14 86h332q31 0 57.5 11.5t30.5 29.5t-20.5 29.5t-55.5 11.5h-639q-31 0 -48 21.5t-13 52.5l190 1196q4 31 29 52t55 21h639q31 0 58.5 14.5t29.5 26.5q4 18 -19.5 29.5t-53.5 11.5h-639q-31 0 -60.5 -11t-54.5 -32.5t-42 -50.5 t-24 -61z" />
<glyph unicode="&#xc8;" d="M127 156q-10 -61 26.5 -108.5t104.5 -47.5h639q31 0 53.5 11.5t26.5 29.5t-16.5 29.5t-51.5 11.5h-639q-31 0 -52 21.5t-17 52.5l88 557h557q37 0 60.5 11t27.5 29.5t-17.5 30t-58.5 11.5h-557l90 557q4 31 33 52t59 21h639q31 0 54.5 14.5t25.5 26.5q4 18 -15.5 29.5 t-49.5 11.5h-639q-68 0 -119 -44t-62 -111zM700 1952q0 -12 7 -27l86 -242q10 -23 24 -41t31 -18q6 0 10 2q12 6 16 33q6 33 4.5 45t-12 34.5t-30 68.5t-50.5 147q-8 27 -21 45t-28 18q-6 0 -8 -2q-23 -6 -27 -37q-2 -12 -2 -26z" />
<glyph unicode="&#xc9;" d="M127 156q-10 -61 26.5 -108.5t104.5 -47.5h639q31 0 53.5 11.5t26.5 29.5t-16.5 29.5t-51.5 11.5h-639q-31 0 -52 21.5t-17 52.5l88 557h557q37 0 60.5 11t27.5 29.5t-17.5 30t-58.5 11.5h-557l90 557q4 31 33 52t59 21h639q31 0 54.5 14.5t25.5 26.5q4 18 -15.5 29.5 t-49.5 11.5h-639q-68 0 -119 -44t-62 -111zM723 1659q-4 -27 8 -33q4 -2 10 -2q16 0 36 18.5t36 40.5l164 242q16 24 20 53q4 33 -14 37q-2 2 -8 2q-14 0 -33.5 -18.5t-36.5 -44.5q-63 -100 -97 -146.5t-51.5 -69t-22.5 -34.5t-11 -45z" />
<glyph unicode="&#xca;" d="M127 156q-10 -61 26.5 -108.5t104.5 -47.5h639q31 0 53.5 11.5t26.5 29.5t-16.5 29.5t-51.5 11.5h-639q-31 0 -52 21.5t-17 52.5l88 557h557q37 0 60.5 11t27.5 29.5t-17.5 30t-58.5 11.5h-557l90 557q4 31 33 52t59 21h639q31 0 54.5 14.5t25.5 26.5q4 18 -15.5 29.5 t-49.5 11.5h-639q-68 0 -119 -44t-62 -111zM557 1645q-4 -27 14 -33q0 -2 4 -2q14 0 35 16t43 43q162 201 168 201l-2 -2l101 -207q4 -20 19 -39.5t30 -19.5q6 0 8 2q14 8 19 16t7.5 18.5t0 22.5t0.5 22l-111 232q-6 29 -22.5 44t-32.5 15t-35 -16t-41 -43q-53 -66 -87 -107 t-53.5 -64.5t-27.5 -31.5t-8 -10q-25 -33 -29 -57z" />
<glyph unicode="&#xcb;" d="M127 156q-10 -61 26.5 -108.5t104.5 -47.5h639q31 0 53.5 11.5t26.5 29.5t-16.5 29.5t-51.5 11.5h-639q-31 0 -52 21.5t-17 52.5l88 557h557q37 0 60.5 11t27.5 29.5t-17.5 30t-58.5 11.5h-557l90 557q4 31 33 52t59 21h639q31 0 54.5 14.5t25.5 26.5q4 18 -15.5 29.5 t-49.5 11.5h-639q-68 0 -119 -44t-62 -111zM700 1712q-12 -90 27 -90q16 0 32.5 21.5t22.5 60.5v8q6 35 -3 55.5t-25 20.5q-18 0 -32.5 -20.5t-21.5 -55.5zM905 1712q-12 -90 27 -90q16 0 32.5 21.5t22.5 60.5v8q6 35 -3 55.5t-26 20.5q-18 0 -32.5 -20.5t-20.5 -55.5z" />
<glyph unicode="&#xcc;" horiz-adv-x="389" d="M115 82q-4 -37 3 -59.5t25 -22.5q12 0 31 22.5t23 59.5l213 1343q6 37 -4.5 59.5t-22.5 22.5q-18 0 -33.5 -22.5t-21.5 -59.5zM350 1872q0 -14 4 -31l62 -194q10 -27 23.5 -43.5t27.5 -16.5q4 0 6 2q21 6 27 37q2 23 -4 53q-29 90 -43.5 134.5t-20.5 60.5h2l-4 4v2 q-10 23 -22.5 38t-26.5 15q-6 0 -12 -2q-12 -6 -17 -33q-2 -12 -2 -26z" />
<glyph unicode="&#xcd;" horiz-adv-x="389" d="M115 82q-4 -37 3 -59.5t25 -22.5q12 0 31 22.5t23 59.5l213 1343q6 37 -4.5 59.5t-22.5 22.5q-18 0 -33.5 -22.5t-21.5 -59.5zM289 1618q-4 -27 8 -33q2 -2 8 -2q16 0 36.5 18.5t37.5 40.5l164 242q16 24 20 53q4 31 -14 37q-2 2 -8 2q-14 0 -34 -18.5t-36 -44.5 q-63 -100 -97 -146.5t-51.5 -69t-22.5 -34.5t-11 -45z" />
<glyph unicode="&#xce;" horiz-adv-x="389" d="M115 82q-4 -37 3 -59.5t25 -22.5q12 0 31 22.5t23 59.5l213 1343q6 37 -4.5 59.5t-22.5 22.5q-18 0 -33.5 -22.5t-21.5 -59.5zM166 1583q-4 -27 14 -33q2 -2 6 -2q14 0 35 16.5t41 43.5q162 201 168 200v-2l100 -207q6 -27 20.5 -43t29.5 -16q4 0 6 2q16 10 21 20.5 t7 20.5q4 14 1 24.5t-3 14.5q2 2 4 2l-3 8t-15 33t-34.5 70t-61.5 118q-6 29 -22.5 44.5t-33.5 15.5q-16 0 -34.5 -16.5t-40.5 -43.5q-53 -66 -86 -106.5t-53.5 -64t-28.5 -32t-8 -10.5q-12 -16 -18.5 -30.5t-10.5 -26.5z" />
<glyph unicode="&#xcf;" horiz-adv-x="389" d="M115 82q-4 -37 3 -59.5t25 -22.5q12 0 31 22.5t23 59.5l213 1343q6 37 -4.5 59.5t-22.5 22.5q-18 0 -33.5 -22.5t-21.5 -59.5zM272 1692q-14 -90 27 -90q16 0 31.5 21.5t21.5 59.5l2 9q4 35 -4 55t-24 20q-18 0 -34 -20.5t-20 -54.5zM477 1692q-14 -90 27 -90 q16 0 31.5 21.5t21.5 59.5l2 9q4 35 -4 55t-25 20q-18 0 -33.5 -20.5t-19.5 -54.5z" />
<glyph unicode="&#xd0;" horiz-adv-x="1251" d="M125 786q-2 -12 17.5 -22t50.5 -10h96l-94 -598q-4 -31 4 -59.5t26.5 -50t44 -34t56.5 -12.5h319q82 0 161 31.5t141.5 85t105.5 125t55 151.5l115 721q12 80 -7.5 151.5t-65.5 125t-114.5 85t-150.5 31.5h-320q-31 0 -60.5 -11t-54 -32.5t-42 -50.5t-23.5 -61l-84 -525 h-96q-31 0 -53.5 -11t-26.5 -30zM276 156l95 598h432q31 0 58.5 10t29.5 22q4 18 -20.5 29.5t-55.5 11.5h-432l84 525q4 31 28.5 52t55.5 21h319q68 0 122.5 -24.5t91 -66.5t52 -99t5.5 -121l-115 -721q-10 -66 -44 -122t-83 -98t-111.5 -66.5t-130.5 -24.5h-319 q-31 0 -48.5 21.5t-13.5 52.5z" />
<glyph unicode="&#xd1;" horiz-adv-x="1175" d="M115 82q-4 -37 3 -59.5t25 -22.5q12 0 31 22.5t23 59.5l202 1270q4 31 29 52t55 21h557q31 0 53.5 -21.5t18.5 -51.5l-203 -1270q-4 -37 3.5 -59.5t25.5 -22.5q12 0 26.5 22.5t18.5 59.5l203 1270q10 68 -27 111.5t-104 43.5h-557q-68 0 -119 -44t-62 -111zM610 1688 q12 -31 34 -43.5t46 -12.5q25 0 50.5 9.5t50.5 19.5q66 53 112 53q39 0 64 -47q6 -4 10 -12t8 -8q2 0 8 8q4 31 2 52.5t-8 37.5q-31 43 -74 43q-35 0 -75 -29q-31 -29 -63 -42t-60 -13q-29 0 -49.5 13.5t-26.5 35.5q-8 -18 -16.5 -32.5t-12.5 -32.5z" />
<glyph unicode="&#xd2;" d="M127 156q-10 -61 26.5 -108.5t104.5 -47.5h557q68 0 119 47.5t61 108.5l191 1196q10 68 -27 111.5t-104 43.5h-557q-68 0 -119 -44t-62 -111zM201 156l190 1196q4 31 33 52t59 21h557q31 0 49.5 -21.5t14.5 -51.5l-191 -1196q-4 -31 -29.5 -52.5t-56.5 -21.5h-557 q-31 0 -52 21.5t-17 52.5zM700 1952q0 -12 7 -27l86 -242q10 -23 24 -41t31 -18q6 0 10 2q12 6 16 33q6 33 4.5 45t-12 34.5t-30 68.5t-50.5 147q-8 27 -21 45t-28 18q-6 0 -8 -2q-23 -6 -27 -37q-2 -12 -2 -26z" />
<glyph unicode="&#xd3;" d="M127 156q-10 -61 26.5 -108.5t104.5 -47.5h557q68 0 119 47t61 109l191 1196q10 68 -27 111.5t-104 43.5h-557q-68 0 -119 -44t-62 -111zM209 156l190 1196q4 31 29 52t55 21h557q31 0 53.5 -21.5t18.5 -51.5l-190 -1196q-4 -31 -34 -52.5t-61 -21.5h-557q-31 0 -48 21.5 t-13 52.5zM723 1659q-4 -27 8 -33q4 -2 10 -2q16 0 36 18.5t36 40.5l164 242q16 24 20 53q4 33 -14 37q-2 2 -8 2q-14 0 -33.5 -18.5t-36.5 -44.5q-63 -100 -97 -146.5t-51.5 -69t-22.5 -34.5t-11 -45z" />
<glyph unicode="&#xd4;" d="M127 156q-10 -61 26.5 -108.5t104.5 -47.5h557q68 0 119 47.5t61 108.5l191 1196q10 68 -27 111.5t-104 43.5h-557q-68 0 -119 -44t-62 -111zM201 156l190 1196q4 31 33 52t59 21h557q31 0 49.5 -21.5t14.5 -51.5l-191 -1196q-4 -31 -29.5 -52.5t-56.5 -21.5h-557 q-31 0 -52 21.5t-17 52.5zM557 1645q-4 -27 14 -33q0 -2 4 -2q14 0 35 16t43 43q162 201 168 201l-2 -2l101 -207q4 -20 19 -39.5t30 -19.5q6 0 8 2q14 8 19 16t7.5 18.5t0 22.5t0.5 22l-111 232q-6 29 -22.5 44t-32.5 15t-35 -16t-41 -43q-53 -66 -87 -107t-53.5 -64.5 t-27.5 -31.5t-8 -10q-25 -33 -29 -57z" />
<glyph unicode="&#xd5;" horiz-adv-x="1175" d="M127 156q-10 -61 26.5 -108.5t104.5 -47.5h557q68 0 119 47.5t61 108.5l191 1196q10 68 -27 111.5t-104 43.5h-557q-68 0 -119 -44t-62 -111zM201 156l190 1196q4 31 33 52t59 21h557q31 0 49.5 -21.5t14.5 -51.5l-191 -1196q-4 -31 -29.5 -52.5t-56.5 -21.5h-557 q-31 0 -52 21.5t-17 52.5zM610 1688q12 -31 34 -43.5t46 -12.5q25 0 50.5 9.5t50.5 19.5q66 53 112 53q39 0 64 -47q6 -4 10 -12t8 -8q2 0 8 8q4 31 2 52.5t-8 37.5q-31 43 -74 43q-35 0 -75 -29q-31 -29 -63 -42t-60 -13q-29 0 -49.5 13.5t-26.5 35.5q-8 -18 -16.5 -32.5 t-12.5 -32.5z" />
<glyph unicode="&#xd6;" d="M127 156q-10 -61 26.5 -108.5t104.5 -47.5h557q68 0 119 47.5t61 108.5l191 1196q10 68 -27 111.5t-104 43.5h-557q-68 0 -119 -44t-62 -111zM201 156l190 1196q4 31 33 52t59 21h557q31 0 49.5 -21.5t14.5 -51.5l-191 -1196q-4 -31 -29.5 -52.5t-56.5 -21.5h-557 q-31 0 -52 21.5t-17 52.5zM672 1712q-12 -90 26 -90q16 0 33 21.5t23 60.5v8q6 35 -3.5 55.5t-25.5 20.5q-18 0 -32.5 -20.5t-20.5 -55.5zM877 1712q-12 -90 26 -90q16 0 32.5 21.5t22.5 60.5v8q6 35 -3 55.5t-25 20.5q-18 0 -32.5 -20.5t-20.5 -55.5z" />
<glyph unicode="&#xd7;" horiz-adv-x="876" d="M172 379q6 -6 18 -6q16 0 37 9t39 26l228 198l165 -198q31 -37 62 -37q8 0 20 8q10 10 13 20q4 29 -29 68l-166 197l229 196q16 16 27.5 30.5t13.5 29.5q2 12 -4 22q-8 4 -12 4q-12 0 -31.5 -9t-38.5 -26l-227 -196l-166 196q-33 39 -61 39q-8 0 -21 -8q-10 -10 -12 -20 q-4 -31 27 -68l168 -197l-230 -196q-20 -16 -32.5 -37t-16.5 -35v-10z" />
<glyph unicode="&#xd8;" horiz-adv-x="1175" d="M45 -111q-4 -27 8 -32q4 -2 10 -2q16 0 36 17t36 42l66 96q27 -10 57 -10h557q68 0 119 47t61 109l191 1196q10 61 -21 104l62 92q8 14 13 28t7 26q4 31 -14 36q-2 2 -6 2q-14 0 -33.5 -16t-36.5 -43l-2 -2l-53 -80q-18 8 -47 8h-557q-68 0 -119 -44t-62 -111l-190 -1196 q-10 -53 16 -95l-75 -114q-10 -16 -14.5 -30.5t-8.5 -27.5zM199 145l192 1207q4 31 33 52t59 21h557q8 0 13 -2zM248 84l854 1280q2 -4 2 -12l-191 -1196q-4 -31 -29.5 -52.5t-56.5 -21.5h-557q-14 0 -22 2z" />
<glyph unicode="&#xd9;" d="M129 164q-10 -68 30 -116t107 -48h557q68 0 120 48t63 116l200 1270q4 31 -3 52t-25 21q-12 0 -31 -21.5t-23 -51.5l-200 -1270q-6 -37 -32 -59.5t-56 -22.5h-557q-37 0 -55.5 22.5t-12.5 59.5l201 1270q4 31 -3.5 52t-25.5 21q-12 0 -30.5 -21.5t-22.5 -51.5zM676 1798 q0 -12 6 -26l86 -242q10 -23 24.5 -41.5t30.5 -18.5q6 0 11 3q12 6 16 32q6 33 4 45.5t-12.5 35t-29.5 68.5t-50 146q-8 27 -21.5 45.5t-27.5 18.5q-6 0 -8 -2q-21 -6 -27 -37q-2 -12 -2 -27z" />
<glyph unicode="&#xda;" d="M129 164q-10 -68 25.5 -116t103.5 -48h557q33 0 65.5 13.5t58.5 35t43.5 51t23.5 64.5l200 1270q4 31 -6 52t-22 21q-18 0 -34 -21.5t-20 -51.5l-200 -1270q-6 -37 -33 -59.5t-64 -22.5h-557q-31 0 -48 22.5t-11 59.5l201 1270q4 31 -6.5 52t-22.5 21q-18 0 -33.5 -21.5 t-19.5 -51.5zM707 1505q-4 -27 8 -32q4 -2 10 -3q16 0 35.5 18.5t36.5 41.5l164 242q16 24 20 53q6 31 -14 37q-2 2 -9 2q-14 0 -33.5 -18.5t-35.5 -45.5q-63 -100 -97 -146t-51.5 -68.5t-22.5 -35t-11 -45.5z" />
<glyph unicode="&#xdb;" d="M129 164q-10 -68 25.5 -116t103.5 -48h557q33 0 65.5 13.5t58.5 35t43.5 51t23.5 64.5l200 1270q4 31 -6 52t-22 21q-18 0 -34 -21.5t-20 -51.5l-200 -1270q-6 -37 -33 -59.5t-64 -22.5h-557q-31 0 -48 22.5t-11 59.5l201 1270q4 31 -6.5 52t-22.5 21q-18 0 -33.5 -21.5 t-19.5 -51.5zM557 1645q-4 -27 14 -33q0 -2 4 -2q14 0 35 16t43 43q162 201 168 201l-2 -2l101 -207q4 -20 19 -39.5t30 -19.5q6 0 8 2q14 8 19 16t7.5 18.5t0 22.5t0.5 22l-111 232q-6 29 -22.5 44t-32.5 15t-35 -16t-41 -43q-53 -66 -87 -107t-53.5 -64.5t-27.5 -31.5 t-8 -10q-25 -33 -29 -57z" />
<glyph unicode="&#xdc;" d="M129 164q-10 -68 25.5 -116t103.5 -48h557q33 0 65.5 13.5t58.5 35t43.5 51t23.5 64.5l200 1270q4 31 -6 52t-22 21q-18 0 -34 -21.5t-20 -51.5l-200 -1270q-6 -37 -33 -59.5t-64 -22.5h-557q-31 0 -48 22.5t-11 59.5l201 1270q4 31 -6.5 52t-22.5 21q-18 0 -33.5 -21.5 t-19.5 -51.5zM662 1642q-14 -90 26 -90q16 0 31.5 21.5t21.5 60.5l2 8q6 35 -3 55.5t-25 20.5q-18 0 -32.5 -20.5t-20.5 -55.5zM866 1642q-14 -90 27 -90q16 0 31.5 21.5t21.5 60.5l2 8q6 35 -3 55.5t-25 20.5q-18 0 -33 -20.5t-21 -55.5z" />
<glyph unicode="&#xdd;" d="M252 950q-8 -49 4 -92t40 -75.5t67.5 -51t89.5 -18.5h163l-100 -631q-4 -37 3 -59.5t26 -22.5q12 0 30.5 22.5t22.5 59.5l100 631h156q49 0 95 18.5t83 51t62.5 75.5t33.5 92l76 475q6 37 -1 59.5t-25 22.5t-34 -22.5t-22 -59.5l-75 -475q-10 -61 -61.5 -108t-119.5 -47 h-401q-31 0 -56.5 12t-44 33.5t-26.5 50.5t-4 59l76 475q6 37 -1.5 59.5t-25.5 22.5q-12 0 -30.5 -22.5t-24.5 -59.5zM707 1505q-4 -27 8 -32q4 -2 10 -3q16 0 35.5 18.5t36.5 41.5l164 242q16 24 20 53q6 31 -14 37q-2 2 -9 2q-14 0 -33.5 -18.5t-35.5 -45.5 q-63 -100 -97 -146t-51.5 -68.5t-22.5 -35t-11 -45.5z" />
<glyph unicode="&#xde;" horiz-adv-x="1028" d="M115 82q-4 -37 6 -59.5t22 -22.5q18 0 34 22.5t20 59.5l41 258q33 -20 79 -21h394q68 0 123 44t65 112l88 557q10 68 -31 112t-108 44h-393q-41 0 -86 -21l41 258q6 37 -1.5 59.5t-25.5 22.5q-12 0 -30.5 -22.5t-24.5 -59.5zM260 475l88 557q4 31 31 56.5t63 25.5h394 q37 0 55 -25.5t14 -56.5l-88 -557q-4 -31 -31.5 -56.5t-64.5 -25.5h-393q-37 0 -54.5 25.5t-13.5 56.5z" />
<glyph unicode="&#xdf;" horiz-adv-x="1173" d="M139 -78q-6 -37 2.5 -59.5t26.5 -22.5t32.5 22.5t20.5 59.5l228 1430q4 31 28.5 52t54.5 21h386l-62 -391h-141q-68 0 -119 -44t-61 -111l-37 -238q-10 -68 26.5 -112t104.5 -44h256q37 0 54 -25.5t13 -56.5l-37 -237q-6 -37 -32.5 -59.5t-63.5 -22.5h-338 q-31 0 -53 -11.5t-27 -29.5q-2 -12 17.5 -26.5t50.5 -14.5h338q33 0 65.5 13.5t58 35t43 51t23.5 64.5l37 237q10 68 -30.5 112t-108.5 44h-256q-31 0 -52.5 25.5t-15.5 56.5l37 238q4 31 34 56.5t60 25.5q211 0 216 2q27 170 43 266t23 144t8 60.5t1 14.5l2 8q6 51 -59 51 h-389q-31 0 -60.5 -11t-54 -32.5t-42 -50.5t-23.5 -61l-52 -318h-49q-31 0 -53.5 -11.5t-26.5 -29.5q-2 -12 17.5 -22t50.5 -10h49z" />
<glyph unicode="&#xe0;" horiz-adv-x="1019" d="M127 156q-4 -31 4 -59.5t26.5 -50t46 -34t62.5 -12.5h393q68 0 119.5 47.5t61.5 108.5l114 721q10 61 -26.5 108t-104.5 47h-475q-37 0 -60.5 -11t-27.5 -29.5t16.5 -30t57.5 -11.5h475q31 0 53.5 -21.5t18.5 -51.5q-10 -66 -61.5 -106t-127.5 -62l-321 -99 q-31 -10 -61.5 -24.5t-57.5 -34t-45.5 -46t-24.5 -59.5zM209 156l55 290q6 37 27.5 51.5t66.5 30.5l322 99q70 20 103.5 36.5t70.5 47.5l-88 -555q-4 -31 -34 -52.5t-60 -21.5h-393q-37 0 -55.5 21.5t-14.5 52.5zM595 1452.5q1 -14.5 5 -31.5l62 -194q8 -27 21 -43.5 t28 -16.5q4 0 6 2q22 6 26 37q6 23 -4 54q-29 90 -42 134t-21 60h2l-2 4v2q-12 23 -24.5 38t-26.5 15q-6 0 -11 -2q-12 -6 -18 -32q-2 -12 -1 -26.5z" />
<glyph unicode="&#xe1;" horiz-adv-x="1019" d="M127 156q-4 -31 4 -59.5t26.5 -50t46 -34t62.5 -12.5h393q68 0 119.5 47.5t61.5 108.5l114 721q10 61 -26.5 108t-104.5 47h-475q-37 0 -60.5 -11t-27.5 -29.5t16.5 -30t57.5 -11.5h475q31 0 53.5 -21.5t18.5 -51.5q-10 -66 -61.5 -106t-127.5 -62l-321 -99 q-31 -10 -61.5 -24.5t-57.5 -34t-45.5 -46t-24.5 -59.5zM209 156l55 290q6 37 27.5 51.5t66.5 30.5l322 99q70 20 103.5 36.5t70.5 47.5l-88 -555q-4 -31 -34 -52.5t-60 -21.5h-393q-37 0 -55.5 21.5t-14.5 52.5zM571 1155q-4 -27 9 -33q4 -2 10 -2q33 0 72 60l163 241 q17 25 21 54q4 33 -15 36q-2 2 -8 2q-14 0 -33.5 -18t-35.5 -45q-49 -80 -80 -127t-49.5 -73.5t-25.5 -35.5l-7 -8q-4 0 0 4q-18 -35 -21 -55z" />
<glyph unicode="&#xe2;" horiz-adv-x="1019" d="M127 156q-4 -31 4 -59.5t26.5 -50t46 -34t62.5 -12.5h393q68 0 119.5 47.5t61.5 108.5l114 721q10 61 -26.5 108t-104.5 47h-475q-37 0 -60.5 -11t-27.5 -29.5t16.5 -30t57.5 -11.5h475q31 0 53.5 -21.5t18.5 -51.5q-10 -66 -61.5 -106t-127.5 -62l-321 -99 q-31 -10 -61.5 -24.5t-57.5 -34t-45.5 -46t-24.5 -59.5zM209 156l55 290q6 37 27.5 51.5t66.5 30.5l322 99q70 20 103.5 36.5t70.5 47.5l-88 -555q-4 -31 -34 -52.5t-60 -21.5h-393q-37 0 -55.5 21.5t-14.5 52.5zM418 1182q-4 -27 14 -33q2 -2 6 -2q14 0 35 16.5t41 42.5 q162 201 168 201v-2l100 -207q4 -20 18.5 -39.5t28.5 -19.5q6 0 9 2q14 8 19 16t7 18.5t0 22.5t0 23l-110 231q-6 29 -22.5 44t-33.5 15q-16 0 -34.5 -16t-40.5 -43q-53 -66 -86 -106.5t-53.5 -64.5t-29 -32t-8.5 -10q-12 -16 -18 -30.5t-10 -26.5z" />
<glyph unicode="&#xe3;" horiz-adv-x="1028" d="M127 156q-4 -31 4 -59.5t26.5 -50t46 -34t62.5 -12.5h393q68 0 119.5 47.5t61.5 108.5l114 721q10 61 -26.5 108t-104.5 47h-475q-37 0 -60.5 -11t-27.5 -29.5t16.5 -30t57.5 -11.5h475q31 0 53.5 -21.5t18.5 -51.5q-10 -66 -61.5 -106t-127.5 -62l-321 -99 q-31 -10 -61.5 -24.5t-57.5 -34t-45.5 -46t-24.5 -59.5zM209 156l55 290q6 37 27.5 51.5t66.5 30.5l322 99q70 20 103.5 36.5t70.5 47.5l-88 -555q-4 -31 -34 -52.5t-60 -21.5h-393q-37 0 -55.5 21.5t-14.5 52.5zM461 1227q14 -31 35.5 -43.5t46.5 -12.5t50 9.5t50 19.5 q66 53 111 53q43 0 63 -47q6 -4 11.5 -12t9.5 -8t6 8q6 31 4 52.5t-10 37.5q-29 43 -72 43q-33 0 -78 -29q-31 -29 -62.5 -42t-60.5 -13q-59 0 -76 49q-8 -18 -15 -32.5t-13 -32.5z" />
<glyph unicode="&#xe4;" horiz-adv-x="1019" d="M127 156q-4 -31 4 -59.5t26.5 -50t46 -34t62.5 -12.5h393q68 0 119.5 47.5t61.5 108.5l114 721q10 61 -26.5 108t-104.5 47h-475q-37 0 -60.5 -11t-27.5 -29.5t16.5 -30t57.5 -11.5h475q31 0 53.5 -21.5t18.5 -51.5q-10 -66 -61.5 -106t-127.5 -62l-321 -99 q-31 -10 -61.5 -24.5t-57.5 -34t-45.5 -46t-24.5 -59.5zM209 156l55 290q6 37 27.5 51.5t66.5 30.5l322 99q70 20 103.5 36.5t70.5 47.5l-88 -555q-4 -31 -34 -52.5t-60 -21.5h-393q-37 0 -55.5 21.5t-14.5 52.5zM496 1278q-14 -90 26 -90q16 0 31.5 21.5t21.5 60.5l3 8 q4 35 -4.5 55.5t-24.5 20.5q-18 0 -33.5 -20.5t-19.5 -55.5zM700 1278q-14 -90 27 -90q16 0 31.5 21.5t21.5 60.5l2 8q4 35 -4 55.5t-24 20.5q-18 0 -33.5 -20.5t-20.5 -55.5z" />
<glyph unicode="&#xe5;" horiz-adv-x="1019" d="M127 156q-4 -31 4 -59.5t26.5 -50t46 -34t62.5 -12.5h393q68 0 119.5 47.5t61.5 108.5l114 721q10 61 -26.5 108t-104.5 47h-475q-37 0 -60.5 -11t-27.5 -29.5t16.5 -30t57.5 -11.5h475q31 0 53.5 -21.5t18.5 -51.5q-10 -66 -61.5 -106t-127.5 -62l-321 -99 q-31 -10 -61.5 -24.5t-57.5 -34t-45.5 -46t-24.5 -59.5zM209 156l55 290q6 37 27.5 51.5t66.5 30.5l322 99q70 20 103.5 36.5t70.5 47.5l-88 -555q-4 -31 -34 -52.5t-60 -21.5h-393q-37 0 -55.5 21.5t-14.5 52.5zM498 1296q-10 -68 26.5 -115.5t104.5 -47.5h49q31 0 60.5 13 t54 34.5t42 51t23.5 64.5l10 58q10 68 -29.5 111.5t-101.5 43.5h-49q-68 0 -119 -44t-61 -111zM571 1296l11 58q4 31 33.5 56.5t60.5 25.5h49q31 0 48.5 -26t12.5 -56l-10 -58q-6 -37 -30.5 -59.5t-55.5 -22.5h-49q-31 0 -53.5 23t-16.5 59z" />
<glyph unicode="&#xe6;" horiz-adv-x="1658" d="M127 156q-4 -31 4 -59.5t26.5 -50t46 -34t62.5 -12.5h393q37 0 70 15.5t57 39.5q16 -25 45 -40t66 -15h475q37 0 60.5 11.5t27.5 29.5t-17.5 29.5t-58.5 11.5h-475q-29 0 -50 19.5t-19 48.5l26 176q10 66 66.5 107.5t122.5 41.5h319q31 0 60.5 13.5t54 35t42 51 t23.5 64.5l39 238q8 61 -30.5 108t-100.5 47h-401q-37 0 -71 -15.5t-56 -39.5q-18 25 -46 40t-65 15h-475q-37 0 -60.5 -11t-27.5 -29.5t16.5 -30t57.5 -11.5h475q31 0 53.5 -21.5t18.5 -51.5l-17 -97q-16 -63 -68.5 -102t-117.5 -39h-311q-35 0 -66 -13.5t-56.5 -35 t-43 -52t-23.5 -63.5zM209 156l51 319q6 37 31.5 59.5t62.5 22.5h312q47 0 92 17.5t82 48.5l-74 -467q-4 -31 -34 -52.5t-60 -21.5h-393q-37 0 -55.5 21.5t-14.5 52.5zM893 492l61 385q4 31 33 52t60 21h401q31 0 49.5 -21.5t13.5 -51.5l-38 -238q-4 -37 -30 -59.5 t-57 -22.5h-319q-96 0 -174 -65z" />
<glyph unicode="&#xe7;" horiz-adv-x="937" d="M127 156q-4 -31 4 -59.5t26.5 -50t44 -34t56.5 -12.5h141l-18 -121h2q0 -10 1 -17t10 -11.5t29.5 -7.5t57.5 -3q31 0 48.5 -21.5t13.5 -51.5l-8 -48q-4 -31 -29 -52t-55 -21h-117q-31 0 -54.5 -11.5t-27.5 -29.5q-2 -18 17.5 -29.5t49.5 -11.5h117q31 0 61.5 12 t55.5 33.5t42 50.5t21 59l9 48q10 61 -33 108t-123 47l12 78h260q31 0 53.5 11.5t26.5 29.5t-16.5 29.5t-50.5 11.5h-484q-31 0 -48 21.5t-13 52.5l115 721q4 31 28.5 52t55.5 21h483q31 0 54.5 11.5t27.5 30t-16.5 29.5t-51.5 11h-483q-31 0 -61.5 -13t-55 -34.5t-42 -49.5 t-21.5 -58z" />
<glyph unicode="&#xe8;" horiz-adv-x="1019" d="M127 156q-10 -61 26.5 -108.5t104.5 -47.5h475q37 0 60.5 11.5t27.5 29.5t-16.5 29.5t-56.5 11.5h-476q-31 0 -53 21.5t-18 52.5q8 68 28.5 114.5t49 77.5t63.5 49.5t72 30.5l321 98q31 10 61.5 24.5t57.5 34t45.5 45t24.5 60.5l30 187q8 61 -31.5 108t-107.5 47h-393 q-68 0 -119 -47t-61 -108zM252 426l63 451q4 31 34 52t61 21h393q37 0 55.5 -21.5t13.5 -51.5l-30 -187q-6 -37 -27.5 -51t-66.5 -31l-322 -98q-35 -10 -59.5 -19.5t-44 -18.5t-36 -20.5t-34.5 -25.5zM595 1452.5q1 -14.5 5 -31.5l62 -194q8 -27 21 -43.5t28 -16.5q4 0 6 2 q22 6 26 37q6 23 -4 54q-29 90 -42 134t-21 60h2l-2 4v2q-12 23 -24.5 38t-26.5 15q-6 0 -11 -2q-12 -6 -18 -32q-2 -12 -1 -26.5z" />
<glyph unicode="&#xe9;" horiz-adv-x="1019" d="M127 156q-10 -61 26.5 -108.5t104.5 -47.5h475q37 0 60.5 11.5t27.5 29.5t-16.5 29.5t-56.5 11.5h-476q-31 0 -53 21.5t-18 52.5q8 68 28.5 114.5t49 77.5t63.5 49.5t72 30.5l321 98q31 10 61.5 24.5t57.5 34t45.5 45t24.5 60.5l30 187q8 61 -31.5 108t-107.5 47h-393 q-68 0 -119 -47t-61 -108zM252 426l63 451q4 31 34 52t61 21h393q37 0 55.5 -21.5t13.5 -51.5l-30 -187q-6 -37 -27.5 -51t-66.5 -31l-322 -98q-35 -10 -59.5 -19.5t-44 -18.5t-36 -20.5t-34.5 -25.5zM571 1155q-4 -27 9 -33q4 -2 10 -2q33 0 72 60l163 241q17 25 21 54 q4 33 -15 36q-2 2 -8 2q-14 0 -33.5 -18t-35.5 -45q-49 -80 -80 -127t-49.5 -73.5t-25.5 -35.5l-7 -8q-4 0 0 4q-18 -35 -21 -55z" />
<glyph unicode="&#xea;" horiz-adv-x="1019" d="M127 156q-10 -61 26.5 -108.5t104.5 -47.5h475q37 0 60.5 11.5t27.5 29.5t-16.5 29.5t-56.5 11.5h-476q-31 0 -53 21.5t-18 52.5q8 68 28.5 114.5t49 77.5t63.5 49.5t72 30.5l321 98q31 10 61.5 24.5t57.5 34t45.5 45t24.5 60.5l30 187q8 61 -31.5 108t-107.5 47h-393 q-68 0 -119 -47t-61 -108zM252 426l63 451q4 31 34 52t61 21h393q37 0 55.5 -21.5t13.5 -51.5l-30 -187q-6 -37 -27.5 -51t-66.5 -31l-322 -98q-35 -10 -59.5 -19.5t-44 -18.5t-36 -20.5t-34.5 -25.5zM418 1182q-4 -27 14 -33q2 -2 6 -2q14 0 35 16.5t41 42.5 q162 201 168 201v-2l100 -207q4 -20 18.5 -39.5t28.5 -19.5q6 0 9 2q14 8 19 16t7 18.5t0 22.5t0 23l-110 231q-6 29 -22.5 44t-33.5 15q-16 0 -34.5 -16t-40.5 -43q-53 -66 -86 -106.5t-53.5 -64.5t-29 -32t-8.5 -10q-12 -16 -18 -30.5t-10 -26.5z" />
<glyph unicode="&#xeb;" horiz-adv-x="1019" d="M127 156q-10 -61 26.5 -108.5t104.5 -47.5h475q37 0 60.5 11.5t27.5 29.5t-16.5 29.5t-56.5 11.5h-476q-31 0 -53 21.5t-18 52.5q8 68 28.5 114.5t49 77.5t63.5 49.5t72 30.5l321 98q31 10 61.5 24.5t57.5 34t45.5 45t24.5 60.5l30 187q8 61 -31.5 108t-107.5 47h-393 q-68 0 -119 -47t-61 -108zM252 426l63 451q4 31 34 52t61 21h393q37 0 55.5 -21.5t13.5 -51.5l-30 -187q-6 -37 -27.5 -51t-66.5 -31l-322 -98q-35 -10 -59.5 -19.5t-44 -18.5t-36 -20.5t-34.5 -25.5zM496 1278q-14 -90 26 -90q16 0 31.5 21.5t21.5 60.5l3 8q4 35 -4.5 55.5 t-24.5 20.5q-18 0 -33.5 -20.5t-19.5 -55.5zM700 1278q-14 -90 27 -90q16 0 31.5 21.5t21.5 60.5l2 8q4 35 -4 55.5t-24 20.5q-18 0 -33.5 -20.5t-20.5 -55.5z" />
<glyph unicode="&#xec;" horiz-adv-x="462" d="M123 147q-10 -61 25.5 -108t103.5 -47q31 0 54.5 11.5t27.5 29.5q2 18 -17.5 29.5t-48.5 11.5q-31 2 -53 22.5t-18 50.5l129 807q6 37 -1.5 59.5t-19.5 22.5q-18 0 -32.5 -22.5t-20.5 -59.5zM263 1452.5q1 -14.5 5 -31.5l62 -194q8 -27 21.5 -43.5t27.5 -16.5q4 0 6 2 q23 6 27 37q6 23 -4 54q-29 90 -42.5 134t-21.5 60h2l-2 4v2q-12 23 -24.5 38t-26.5 15q-6 0 -10 -2q-12 -6 -19 -32q-2 -12 -1 -26.5z" />
<glyph unicode="&#xed;" horiz-adv-x="460" d="M123 147q-10 -61 25.5 -108t103.5 -47q31 0 54.5 11.5t27.5 29.5q2 18 -17.5 29.5t-48.5 11.5q-31 2 -53 22.5t-18 50.5l129 807q6 37 -1.5 59.5t-19.5 22.5q-18 0 -32.5 -22.5t-20.5 -59.5zM231 1153q-4 -27 9 -33q2 -2 8 -2q16 0 36.5 18.5t37.5 41.5l163 241 q17 25 21 54q4 31 -14 36q-2 2 -9 2q-14 0 -33.5 -18t-35.5 -45q-63 -100 -97 -146.5t-51.5 -69t-22.5 -34.5t-12 -45z" />
<glyph unicode="&#xee;" horiz-adv-x="462" d="M94 1169q-4 -27 15 -32q2 -2 6 -2q14 0 34.5 16t40.5 43q162 201 168 201v-2l101 -207q4 -20 18.5 -40t28.5 -20q6 0 8 2q14 8 19.5 16.5t7.5 19t0 22.5t0 22l-111 232q-6 29 -22.5 44t-32.5 15t-34.5 -16.5t-41.5 -42.5q-53 -66 -86 -107t-53.5 -64.5t-28.5 -31.5 t-8 -10q-12 -16 -18.5 -30.5t-10.5 -27.5zM123 147q-10 -61 25.5 -108t103.5 -47q31 0 54.5 11.5t27.5 29.5q2 18 -17.5 29.5t-48.5 11.5q-31 2 -53 22.5t-18 50.5l129 807q6 37 -1.5 59.5t-19.5 22.5q-18 0 -32.5 -22.5t-20.5 -59.5z" />
<glyph unicode="&#xef;" horiz-adv-x="458" d="M123 147q-10 -61 25.5 -108t103.5 -47q31 0 54.5 11.5t27.5 29.5q2 18 -17.5 29.5t-48.5 11.5q-31 2 -53 22.5t-18 50.5l129 807q6 37 -1.5 59.5t-19.5 22.5q-18 0 -32.5 -22.5t-20.5 -59.5zM201 1282q-14 -90 26 -90q16 0 32.5 21.5t23.5 60.5v8q6 35 -3.5 55.5 t-25.5 20.5q-18 0 -32.5 -20.5t-20.5 -55.5zM406 1282q-14 -90 26 -90q16 0 32.5 21.5t22.5 60.5v8q6 35 -3 55.5t-25 20.5q-18 0 -32.5 -20.5t-20.5 -55.5z" />
<glyph unicode="&#xf0;" d="M127 156q-4 -31 4 -59.5t26.5 -50t44 -34t56.5 -12.5h557q33 0 65.5 12.5t58.5 34t43 50t22 59.5l151 958q16 98 -18.5 183t-104.5 139l47 69q10 14 14.5 28t8.5 26q4 31 -17 36q0 2 -6 2q-14 0 -33.5 -18t-35.5 -45q-10 -16 -20.5 -31.5t-18.5 -29.5q-70 35 -154 34 h-102q-37 0 -61.5 -11t-28.5 -30q-2 -12 18.5 -26.5t56.5 -14.5h103q66 0 119 -24q-31 -43 -48.5 -64.5t-26.5 -35t-12.5 -25.5t-7.5 -37q-4 -27 7 -33q4 -2 10 -2q16 0 36.5 18.5t37.5 41.5l65 100q53 -43 77.5 -107.5t12.5 -142.5l-26 -164q-4 -31 -30 -52t-63 -21h-319 q-80 0 -157 -32t-139.5 -86t-105.5 -128t-55 -156zM209 156l51 319q10 68 44 126t83 101t108.5 68t125.5 25h319q45 0 86 22l-104 -661q-4 -31 -31 -52.5t-64 -21.5h-557q-31 0 -48 21.5t-13 52.5z" />
<glyph unicode="&#xf1;" horiz-adv-x="1028" d="M115 82q-4 -31 6 -56.5t22 -25.5q18 0 34 25.5t20 56.5l127 795q4 31 30.5 56t63.5 25h393q37 0 55.5 -25.5t14.5 -55.5l-127 -795q-4 -31 3 -56.5t25 -25.5q12 0 31 25.5t23 56.5l127 795q10 68 -31 111.5t-109 43.5h-393q-68 0 -123 -44t-65 -111zM461 1227 q14 -31 35.5 -43.5t46.5 -12.5t50 9.5t50 19.5q66 53 111 53q43 0 63 -47q6 -4 11.5 -12t9.5 -8t6 8q6 31 4 52.5t-10 37.5q-29 43 -72 43q-33 0 -78 -29q-31 -29 -62.5 -42t-60.5 -13q-59 0 -76 49q-8 -18 -15 -32.5t-13 -32.5z" />
<glyph unicode="&#xf2;" horiz-adv-x="1019" d="M129 164q-10 -68 25.5 -116t103.5 -48h401q31 0 62 13.5t55.5 35t42 51t23.5 64.5l112 713q10 68 -29.5 111.5t-101.5 43.5h-401q-68 0 -119 -44t-61 -111zM203 164l112 713q4 31 34 56t61 25h401q31 0 48.5 -25.5t12.5 -55.5l-112 -713q-6 -37 -32 -59.5t-56 -22.5h-402 q-31 0 -52 22.5t-15 59.5zM595 1452.5q1 -14.5 5 -31.5l62 -194q8 -27 21 -43.5t28 -16.5q4 0 6 2q22 6 26 37q6 23 -4 54q-29 90 -42 134t-21 60h2l-2 4v2q-12 23 -24.5 38t-26.5 15q-6 0 -11 -2q-12 -6 -18 -32q-2 -12 -1 -26.5z" />
<glyph unicode="&#xf3;" horiz-adv-x="1019" d="M129 164q-10 -68 25.5 -116t103.5 -48h401q31 0 62 13.5t55.5 35t42 51t23.5 64.5l112 713q10 68 -29.5 111.5t-101.5 43.5h-401q-68 0 -119 -44t-61 -111zM203 164l112 713q4 31 34 56t61 25h401q31 0 48.5 -25.5t12.5 -55.5l-112 -713q-6 -37 -32 -59.5t-56 -22.5h-402 q-31 0 -52 22.5t-15 59.5zM571 1155q-4 -27 9 -33q4 -2 10 -2q33 0 72 60l163 241q17 25 21 54q4 33 -15 36q-2 2 -8 2q-14 0 -33.5 -18t-35.5 -45q-49 -80 -80 -127t-49.5 -73.5t-25.5 -35.5l-7 -8q-4 0 0 4q-18 -35 -21 -55z" />
<glyph unicode="&#xf4;" horiz-adv-x="1019" d="M129 164q-10 -68 25.5 -116t103.5 -48h401q31 0 62 13.5t55.5 35t42 51t23.5 64.5l112 713q10 68 -29.5 111.5t-101.5 43.5h-401q-68 0 -119 -44t-61 -111zM203 164l112 713q4 31 34 56t61 25h401q31 0 48.5 -25.5t12.5 -55.5l-112 -713q-6 -37 -32 -59.5t-56 -22.5h-402 q-31 0 -52 22.5t-15 59.5zM418 1182q-4 -27 14 -33q2 -2 6 -2q14 0 35 16.5t41 42.5q162 201 168 201v-2l100 -207q4 -20 18.5 -39.5t28.5 -19.5q6 0 9 2q14 8 19 16t7 18.5t0 22.5t0 23l-110 231q-6 29 -22.5 44t-33.5 15q-16 0 -34.5 -16t-40.5 -43q-53 -66 -86 -106.5 t-53.5 -64.5t-29 -32t-8.5 -10q-12 -16 -18 -30.5t-10 -26.5z" />
<glyph unicode="&#xf5;" horiz-adv-x="1028" d="M129 164q-10 -68 25.5 -116t103.5 -48h401q31 0 62 13.5t55.5 35t42 51t23.5 64.5l112 713q10 68 -29.5 111.5t-101.5 43.5h-401q-68 0 -119 -44t-61 -111zM203 164l112 713q4 31 34 56t61 25h401q31 0 48.5 -25.5t12.5 -55.5l-112 -713q-6 -37 -32 -59.5t-56 -22.5h-402 q-31 0 -52 22.5t-15 59.5zM461 1227q14 -31 35.5 -43.5t46.5 -12.5t50 9.5t50 19.5q66 53 111 53q43 0 63 -47q6 -4 11.5 -12t9.5 -8t6 8q6 31 4 52.5t-10 37.5q-29 43 -72 43q-33 0 -78 -29q-31 -29 -62.5 -42t-60.5 -13q-59 0 -76 49q-8 -18 -15 -32.5t-13 -32.5z" />
<glyph unicode="&#xf6;" horiz-adv-x="1019" d="M129 164q-10 -68 25.5 -116t103.5 -48h401q31 0 62 13.5t55.5 35t42 51t23.5 64.5l112 713q10 68 -29.5 111.5t-101.5 43.5h-401q-68 0 -119 -44t-61 -111zM203 164l112 713q4 31 34 56t61 25h401q31 0 48.5 -25.5t12.5 -55.5l-112 -713q-6 -37 -32 -59.5t-56 -22.5h-402 q-31 0 -52 22.5t-15 59.5zM518 1278q-14 -90 27 -90q16 0 31.5 21.5t21.5 60.5l2 8q4 35 -4 55.5t-25 20.5q-18 0 -33.5 -20.5t-19.5 -55.5zM723 1278q-14 -90 27 -90q16 0 31.5 21.5t21.5 60.5l2 8q4 35 -4 55.5t-25 20.5q-18 0 -33.5 -20.5t-19.5 -55.5z" />
<glyph unicode="&#xf7;" horiz-adv-x="989" d="M150 655q-4 -12 16 -22t51 -10h639q31 0 57.5 10t30.5 22q4 18 -20.5 29.5t-55.5 11.5h-639q-31 0 -53 -11t-26 -30zM463 422q-14 -90 26 -90q16 0 32 21.5t22 60.5l2 8q4 35 -5.5 55.5t-25.5 20.5q-18 0 -32.5 -20.5t-18.5 -55.5zM532 895q-14 -90 27 -90 q16 0 32.5 21.5t22.5 60.5v8q6 35 -3 55.5t-25 20.5q-18 0 -32.5 -20.5t-21.5 -55.5z" />
<glyph unicode="&#xf8;" horiz-adv-x="1019" d="M72 -80q-4 -27 6 -33q4 -2 10 -2q16 0 36.5 17.5t37.5 42.5l47 63q18 -8 49 -8h401q31 0 62 13.5t55.5 35t42 51t23.5 64.5l112 713q6 55 -14 90l51 69q17 25 21 54q6 31 -15 36q-2 2 -6 2q-14 0 -33.5 -16t-33.5 -43l-2 -2l-37 -49q-27 14 -62 14h-401q-68 0 -119 -44 t-61 -111l-113 -713q-12 -66 21 -111l-58 -76q-18 -35 -20 -57zM203 164l112 713q4 31 34 56t61 25h401q8 0 25 -4l-631 -829q-6 16 -2 39zM264 82l608 797l-112 -715q-6 -37 -32 -59.5t-56 -22.5h-408z" />
<glyph unicode="&#xf9;" horiz-adv-x="1019" d="M129 164q-10 -68 30 -116t107 -48h393q68 0 120.5 48t62.5 116l125 794q4 31 -2.5 52.5t-18.5 21.5q-18 0 -33.5 -21.5t-19.5 -52.5l-125 -794q-6 -37 -36 -59.5t-60 -22.5h-393q-37 0 -55.5 22.5t-12.5 59.5l125 794q4 31 -3 52.5t-26 21.5q-18 0 -33.5 -21.5 t-19.5 -52.5zM595 1452.5q1 -14.5 5 -31.5l62 -194q8 -27 21 -43.5t28 -16.5q4 0 6 2q22 6 26 37q6 23 -4 54q-29 90 -42 134t-21 60h2l-2 4v2q-12 23 -24.5 38t-26.5 15q-6 0 -11 -2q-12 -6 -18 -32q-2 -12 -1 -26.5z" />
<glyph unicode="&#xfa;" horiz-adv-x="1019" d="M129 164q-10 -68 30 -116t107 -48h393q68 0 120.5 48t62.5 116l125 794q4 31 -2.5 52.5t-18.5 21.5q-18 0 -33.5 -21.5t-19.5 -52.5l-125 -794q-6 -37 -36 -59.5t-60 -22.5h-393q-37 0 -55.5 22.5t-12.5 59.5l125 794q4 31 -3 52.5t-26 21.5q-18 0 -33.5 -21.5 t-19.5 -52.5zM571 1155q-4 -27 9 -33q4 -2 10 -2q33 0 72 60l163 241q17 25 21 54q4 33 -15 36q-2 2 -8 2q-14 0 -33.5 -18t-35.5 -45q-49 -80 -80 -127t-49.5 -73.5t-25.5 -35.5l-7 -8q-4 0 0 4q-18 -35 -21 -55z" />
<glyph unicode="&#xfb;" horiz-adv-x="1019" d="M129 164q-10 -68 30 -116t107 -48h393q68 0 120.5 48t62.5 116l125 794q4 31 -2.5 52.5t-18.5 21.5q-18 0 -33.5 -21.5t-19.5 -52.5l-125 -794q-6 -37 -36 -59.5t-60 -22.5h-393q-37 0 -55.5 22.5t-12.5 59.5l125 794q4 31 -3 52.5t-26 21.5q-18 0 -33.5 -21.5 t-19.5 -52.5zM418 1182q-4 -27 14 -33q2 -2 6 -2q14 0 35 16.5t41 42.5q162 201 168 201v-2l100 -207q4 -20 18.5 -39.5t28.5 -19.5q6 0 9 2q14 8 19 16t7 18.5t0 22.5t0 23l-110 231q-6 29 -22.5 44t-33.5 15q-16 0 -34.5 -16t-40.5 -43q-53 -66 -86 -106.5t-53.5 -64.5 t-29 -32t-8.5 -10q-12 -16 -18 -30.5t-10 -26.5z" />
<glyph unicode="&#xfc;" horiz-adv-x="1019" d="M129 164q-10 -68 30 -116t107 -48h393q68 0 120.5 48t62.5 116l125 794q4 31 -2.5 52.5t-18.5 21.5q-18 0 -33.5 -21.5t-19.5 -52.5l-125 -794q-6 -37 -36 -59.5t-60 -22.5h-393q-37 0 -55.5 22.5t-12.5 59.5l125 794q4 31 -3 52.5t-26 21.5q-18 0 -33.5 -21.5 t-19.5 -52.5zM520 1278q-14 -90 27 -90q16 0 31.5 21.5t21.5 60.5l2 8q4 35 -4 55.5t-25 20.5q-18 0 -33.5 -20.5t-19.5 -55.5zM725 1278q-14 -90 27 -90q16 0 31.5 21.5t21.5 60.5l2 8q4 35 -4 55.5t-25 20.5q-18 0 -33.5 -20.5t-19.5 -55.5z" />
<glyph unicode="&#xfd;" horiz-adv-x="1019" d="M20.5 -516.5q-4.5 -18.5 16 -29.5t51.5 -11h483q31 0 62 13.5t55.5 35t42 51t23.5 64.5l211 1343q6 37 -1.5 59.5t-25.5 22.5t-33.5 -22.5t-21.5 -59.5l-115 -727q-10 -61 -61.5 -101t-116.5 -40h-320q-31 0 -52 21.5t-17 52.5l125 794q6 37 -0.5 59.5t-18.5 22.5 q-18 0 -33.5 -22.5t-21.5 -59.5l-125 -794q-10 -61 26.5 -108.5t104.5 -47.5h320q45 0 87 15.5t76 41.5l-69 -450q-6 -37 -32 -59.5t-56 -22.5h-484q-31 0 -53 -11.5t-26.5 -30zM616 1157q-4 -27 9 -33q4 -2 10 -2q35 0 72 60l163 241q10 14 14.5 28t6.5 26q6 31 -14 36 q-2 2 -9 3q-14 0 -33.5 -18.5t-35.5 -45.5q-49 -80 -80 -127t-49.5 -73.5t-25.5 -35.5l-7 -8v4q-8 -16 -12 -30.5t-9 -24.5z" />
<glyph unicode="&#xfe;" horiz-adv-x="1028" d="M27 -477q-6 -37 5 -59.5t23 -22.5q18 0 32.5 22.5t21.5 59.5l79 497q29 -20 78 -20h393q68 0 123.5 44t65.5 112l115 723q10 68 -31 111.5t-109 43.5h-393q-41 0 -86 -20l68 416q4 37 -3.5 59t-25.5 22q-12 0 -30.5 -22.5t-22.5 -58.5zM209 156l115 723q4 31 30.5 56.5 t63.5 25.5h393q37 0 55.5 -26t14.5 -56l-115 -723q-4 -31 -30.5 -56.5t-63.5 -25.5h-393q-37 0 -55.5 25.5t-14.5 56.5z" />
<glyph unicode="&#xff;" horiz-adv-x="1019" d="M20.5 -516.5q-4.5 -18.5 16 -29.5t51.5 -11h483q31 0 62 13.5t55.5 35t42 51t23.5 64.5l211 1343q6 37 -1.5 59.5t-25.5 22.5t-33.5 -22.5t-21.5 -59.5l-115 -727q-10 -61 -61.5 -101t-116.5 -40h-320q-31 0 -52 21.5t-17 52.5l125 794q6 37 -0.5 59.5t-18.5 22.5 q-18 0 -33.5 -22.5t-21.5 -59.5l-125 -794q-10 -61 26.5 -108.5t104.5 -47.5h320q45 0 87 15.5t76 41.5l-69 -450q-6 -37 -32 -59.5t-56 -22.5h-484q-31 0 -53 -11.5t-26.5 -30zM506 1274q-14 -90 26 -90q16 0 32 21.5t22 60.5l2 8q4 35 -5.5 55.5t-25.5 20.5 q-18 0 -32.5 -20.5t-18.5 -55.5zM711 1274q-14 -90 26 -90q16 0 31.5 21.5t22.5 60.5l2 8q4 35 -5.5 55.5t-25.5 20.5q-18 0 -32.5 -20.5t-18.5 -55.5z" />
<glyph unicode="&#x152;" horiz-adv-x="1875" d="M127 158q-10 -61 26.5 -108.5t104.5 -47.5h557q35 0 69 13.5t56 37.5q18 -23 46 -37t63 -14h639q31 0 53 11.5t26 29.5t-16 29.5t-51 11.5h-639q-27 0 -46.5 15.5t-23.5 37.5l92 578h553q37 0 61.5 11t26.5 30q4 18 -16 29.5t-57 11.5h-553q33 211 51 325.5t26.5 170 t9.5 66.5t1 13q12 25 36.5 40t51.5 15h639q31 0 54.5 14.5t27.5 26.5q2 18 -17.5 29.5t-50.5 11.5h-639q-76 0 -127 -51q-16 23 -43.5 38t-62.5 15h-557q-68 0 -119 -44t-62 -111zM201 158l190 1198q4 31 34 52.5t60 21.5h557q31 0 48.5 -22t13.5 -52l-191 -1200 q-4 -31 -29.5 -51.5t-56.5 -20.5h-557q-31 0 -52 21.5t-17 52.5z" />
<glyph unicode="&#x153;" horiz-adv-x="1656" d="M129 164q-10 -68 25.5 -116t103.5 -48h401q33 0 66 14.5t57 40.5q16 -27 45 -42t68 -15h475q37 0 60.5 11.5t27.5 29.5t-17.5 29.5t-58.5 11.5h-475q-29 0 -50 17.5t-21 43.5l32 201q16 59 69.5 95t115.5 36h319q31 0 60.5 13.5t54 35t42 51t23.5 64.5l39 237 q8 61 -30.5 108.5t-100.5 47.5h-401q-76 0 -125 -53q-43 55 -111 55h-401q-68 0 -119 -44t-61 -111zM203 164l112 713q4 31 34 56t61 25h401q31 0 48.5 -25.5t12.5 -55.5l-112 -713q-6 -37 -32 -59.5t-56 -22.5h-402q-31 0 -52 22.5t-15 59.5zM893 492l63 397q10 25 35 42 t53 17h402q31 0 49 -21.5t14 -52.5l-39 -237q-6 -37 -30.5 -59.5t-55.5 -22.5h-319q-47 0 -91 -17.5t-81 -45.5z" />
<glyph unicode="&#x178;" d="M252 950q-8 -49 4 -92t40 -75.5t67.5 -51t89.5 -18.5h163l-100 -631q-4 -37 3 -59.5t26 -22.5q12 0 30.5 22.5t22.5 59.5l100 631h156q49 0 95 18.5t83 51t62.5 75.5t33.5 92l76 475q6 37 -1 59.5t-25 22.5t-34 -22.5t-22 -59.5l-75 -475q-10 -61 -61.5 -108t-119.5 -47 h-401q-31 0 -56.5 12t-44 33.5t-26.5 50.5t-4 59l76 475q6 37 -1.5 59.5t-25.5 22.5q-12 0 -30.5 -22.5t-24.5 -59.5zM662 1642q-14 -90 26 -90q16 0 31.5 21.5t21.5 60.5l2 8q6 35 -3 55.5t-25 20.5q-18 0 -32.5 -20.5t-20.5 -55.5zM866 1642q-14 -90 27 -90 q16 0 31.5 21.5t21.5 60.5l2 8q6 35 -3 55.5t-25 20.5q-18 0 -33 -20.5t-21 -55.5z" />
<glyph unicode="&#x2c6;" horiz-adv-x="741" d="M276 1169q-4 -27 15 -32q2 -2 6 -2q14 0 34.5 16t41.5 43q162 201 168 201v-2l100 -207q4 -20 18.5 -40t28.5 -20q6 0 8 2q14 8 19.5 16.5t7.5 19t0 22.5t0 22l-111 232q-6 29 -22.5 44t-32.5 15t-34.5 -16.5t-41.5 -42.5q-53 -66 -86 -107t-53 -64.5t-28.5 -31.5 t-8.5 -10q-12 -16 -18 -30.5t-11 -27.5z" />
<glyph unicode="&#x2dc;" horiz-adv-x="849" d="M393 1266q14 -31 36 -43.5t46 -12.5q25 0 50.5 9.5t49.5 19.5q66 53 111 53q43 0 64 -47q6 -4 11 -12t9 -8t6 8q6 31 4 52.5t-10 37.5q-29 43 -72 43q-33 0 -77 -29q-31 -29 -63 -42t-60 -13q-59 0 -76 49q-8 -18 -15.5 -32.5t-13.5 -32.5z" />
<glyph unicode="&#x2000;" horiz-adv-x="1008" />
<glyph unicode="&#x2001;" horiz-adv-x="2017" />
<glyph unicode="&#x2002;" horiz-adv-x="1008" />
<glyph unicode="&#x2003;" horiz-adv-x="2017" />
<glyph unicode="&#x2004;" horiz-adv-x="672" />
<glyph unicode="&#x2005;" horiz-adv-x="504" />
<glyph unicode="&#x2006;" horiz-adv-x="336" />
<glyph unicode="&#x2007;" horiz-adv-x="336" />
<glyph unicode="&#x2008;" horiz-adv-x="252" />
<glyph unicode="&#x2009;" horiz-adv-x="403" />
<glyph unicode="&#x200a;" horiz-adv-x="112" />
<glyph unicode="&#x2010;" horiz-adv-x="724" d="M131 539q-4 -12 16.5 -22.5t51.5 -10.5h370q31 0 57.5 10.5t30.5 22.5q4 18 -20.5 29.5t-54.5 11.5h-371q-31 0 -53.5 -11.5t-26.5 -29.5z" />
<glyph unicode="&#x2011;" horiz-adv-x="724" d="M131 539q-4 -12 16.5 -22.5t51.5 -10.5h370q31 0 57.5 10.5t30.5 22.5q4 18 -20.5 29.5t-54.5 11.5h-371q-31 0 -53.5 -11.5t-26.5 -29.5z" />
<glyph unicode="&#x2012;" horiz-adv-x="724" d="M131 539q-4 -12 16.5 -22.5t51.5 -10.5h370q31 0 57.5 10.5t30.5 22.5q4 18 -20.5 29.5t-54.5 11.5h-371q-31 0 -53.5 -11.5t-26.5 -29.5z" />
<glyph unicode="&#x2013;" horiz-adv-x="1177" d="M131 543q-2 -12 17.5 -22.5t50.5 -10.5h825q31 0 58.5 10.5t29.5 22.5q4 18 -20.5 29.5t-55.5 11.5h-825q-31 0 -53.5 -11.5t-26.5 -29.5z" />
<glyph unicode="&#x2014;" horiz-adv-x="1656" d="M131 547q-2 -12 18.5 -22.5t51.5 -10.5h1300q31 0 57.5 10.5t28.5 22.5q4 18 -20.5 29.5t-55.5 11.5h-1300q-31 0 -53.5 -11.5t-26.5 -29.5z" />
<glyph unicode="&#x2018;" horiz-adv-x="286" d="M244 1212q-6 -37 1 -59.5t25 -22.5q12 0 31 22.5t25 59.5l32 213q6 37 -4 59.5t-22 22.5q-18 0 -33.5 -22.5t-22.5 -59.5z" />
<glyph unicode="&#x2019;" horiz-adv-x="286" d="M244 1212q-6 -37 1 -59.5t25 -22.5q12 0 31 22.5t25 59.5l32 213q6 37 -4 59.5t-22 22.5q-18 0 -33.5 -22.5t-22.5 -59.5z" />
<glyph unicode="&#x201a;" horiz-adv-x="286" d="M33 -113q-6 -37 2 -59.5t26 -22.5q12 0 30 22.5t24 59.5l35 213q6 37 -5.5 59.5t-23.5 22.5q-18 0 -32.5 -22.5t-20.5 -59.5z" />
<glyph unicode="&#x201c;" horiz-adv-x="491" d="M244 1212q-6 -37 1 -59.5t25 -22.5q12 0 31 22.5t25 59.5l32 213q6 37 -4 59.5t-22 22.5q-18 0 -33.5 -22.5t-22.5 -59.5zM449 1212q-6 -37 1 -59.5t25 -22.5q12 0 30.5 22.5t24.5 59.5l33 213q6 37 -4 59.5t-22 22.5q-18 0 -34 -22.5t-22 -59.5z" />
<glyph unicode="&#x201d;" horiz-adv-x="491" d="M244 1212q-6 -37 1 -59.5t25 -22.5q12 0 31 22.5t25 59.5l32 213q6 37 -4 59.5t-22 22.5q-18 0 -33.5 -22.5t-22.5 -59.5zM449 1212q-6 -37 1 -59.5t25 -22.5q12 0 30.5 22.5t24.5 59.5l33 213q6 37 -4 59.5t-22 22.5q-18 0 -34 -22.5t-22 -59.5z" />
<glyph unicode="&#x201e;" horiz-adv-x="491" d="M35 -102q-6 -37 2 -59.5t26 -22.5q12 0 30 22.5t24 59.5l35 213q4 37 -6.5 59.5t-22.5 22.5q-18 0 -33.5 -23t-19.5 -59zM240 -102q-6 -37 2 -59.5t26 -22.5q12 0 30 22.5t24 59.5l34 213q4 37 -6 59.5t-22 22.5q-18 0 -33.5 -23t-20.5 -59z" />
<glyph unicode="&#x2022;" horiz-adv-x="540" d="M168 735q-29 -188 3 -277t105 -89q74 0 135.5 88t88.5 252l4 26q18 139 -15.5 225.5t-105.5 86.5q-37 0 -70.5 -23t-62.5 -63.5t-50.5 -98t-31.5 -127.5z" />
<glyph unicode="&#x2026;" horiz-adv-x="690" d="M66 86q-14 -90 26 -90q16 0 31.5 21.5t21.5 60.5l2 8q4 35 -4 55.5t-24 20.5q-18 0 -33.5 -20.5t-19.5 -55.5zM268 88q-14 -90 27 -90q16 0 31.5 21.5t21.5 60.5l2 8q4 35 -4 55.5t-24 20.5q-18 0 -34 -20.5t-20 -55.5zM469 92q-14 -90 27 -90q16 0 32.5 21.5t20.5 60.5 l2 8q6 35 -3 55.5t-26 20.5q-18 0 -32.5 -20.5t-20.5 -55.5z" />
<glyph unicode="&#x202f;" horiz-adv-x="403" />
<glyph unicode="&#x2039;" horiz-adv-x="614" d="M147 508q-4 -18 9.5 -36.5t40.5 -29.5q66 -49 106.5 -79.5t62 -46t29.5 -19.5l8 -4q0 2 3 2q4 0 13 -4t23 -4q10 0 21.5 4t25.5 18v6q4 14 -10 32t-39 28l-186 133h-2q-12 0 223 133q29 18 48.5 36.5t21.5 33.5v2q0 2 -2 4q-4 18 -29 18q-29 0 -61 -18q-2 0 -11.5 -7.5 t-35 -23.5t-70.5 -43t-119 -70q-27 -16 -46 -32.5t-24 -32.5z" />
<glyph unicode="&#x203a;" horiz-adv-x="614" d="M117 309q8 -14 18.5 -18t20.5 -4q14 0 25.5 4t15.5 4q2 0 2 -2l8 4t35.5 19.5t77 46t131.5 79.5q29 10 47 28.5t22 37.5q4 16 -11 32.5t-38 32.5q-59 43 -96 70t-57.5 43t-27.5 23.5t-9 7.5q-29 18 -54 18q-29 0 -37 -18q-2 -2 -2 -4v-2q-4 -31 50 -70q182 -127 178 -133 h-2l-228 -133q-29 -10 -47 -27.5t-22 -32.5v-6z" />
<glyph unicode="&#x205f;" horiz-adv-x="504" />
<glyph unicode="&#x2122;" horiz-adv-x="1640" d="M231 1468q-4 -12 16.5 -26.5t57.5 -14.5h164l-100 -636q-6 -37 1 -59.5t19 -22.5q18 0 32.5 22.5t20.5 59.5l101 636h164q31 0 58.5 14.5t31.5 26.5q2 18 -21.5 29.5t-54.5 11.5h-402q-37 0 -61.5 -11t-26.5 -30zM754 788q-6 -37 2 -59t26 -22t32.5 22.5t21.5 58.5 l90 570q4 31 29.5 52.5t56.5 21.5h145q29 0 50.5 -19.5t19.5 -48.5l-90 -578q-6 -37 0 -59t24 -22t30.5 22.5t18.5 58.5l90 572q4 31 34 52.5t61 21.5h110q37 0 55.5 -21.5t14.5 -52.5l-90 -570q-6 -37 2 -59t26 -22t33 22t21 59l90 570q10 68 -31 111.5t-108 43.5h-111 q-37 0 -70.5 -14t-56.5 -37q-18 23 -46 37t-65 14h-145q-31 0 -60.5 -11t-54 -32.5t-42 -50t-23.5 -61.5z" />
<glyph unicode="&#x25fc;" horiz-adv-x="1034" d="M0 0v1034h1034v-1034h-1034z" />
</font>
</defs>
</svg>
